<ttFont>
    <TTGlyph name="A" xMin="-21" yMin="-14" xMax="636" yMax="872">
      <contour>
        <pt x="402" y="759" on="1"/>
        <pt x="182" y="286" on="1"/>
        <pt x="497" y="286" on="1"/>
      </contour>
      <contour>
        <pt x="357" y="843" on="1"/>
        <pt x="370" y="872" on="0"/>
        <pt x="457" y="872" on="0"/>
        <pt x="463" y="843" on="1"/>
        <pt x="636" y="12" on="0"/>
        <pt x="636" y="11" on="1"/>
        <pt x="636" y="-14" on="0"/>
        <pt x="560" y="-14" on="0"/>
        <pt x="554" y="15" on="1"/>
        <pt x="510" y="225" on="1"/>
        <pt x="153" y="225" on="1"/>
        <pt x="87" y="80" on="1"/>
        <pt x="81" y="64" on="0"/>
        <pt x="68" y="38" on="0"/>
        <pt x="60" y="21" on="0"/>
        <pt x="55" y="12" on="0"/>
        <pt x="48" y="0" on="0"/>
        <pt x="42" y="-6" on="0"/>
        <pt x="39" y="-9" on="1"/>
        <pt x="34" y="-14" on="0"/>
        <pt x="8" y="-14" on="0"/>
        <pt x="-21" y="2" on="0"/>
        <pt x="-21" y="34" on="0"/>
        <pt x="28" y="139" on="1"/>
      </contour>
    </TTGlyph>
    <TTGlyph name="AE" xMin="-51" yMin="-14" xMax="954" yMax="860">
      <contour>
        <pt x="-5" y="-14" on="1"/>
        <pt x="-51" y="-14" on="0"/>
        <pt x="-51" y="15" on="1"/>
        <pt x="-51" y="34" on="0"/>
        <pt x="-26" y="82" on="1"/>
        <pt x="356" y="831" on="1"/>
        <pt x="370" y="860" on="0"/>
        <pt x="412" y="860" on="1"/>
        <pt x="923" y="860" on="1"/>
        <pt x="954" y="860" on="0"/>
        <pt x="954" y="833" on="1"/>
        <pt x="954" y="813" on="0"/>
        <pt x="938" y="797" on="0"/>
        <pt x="917" y="797" on="1"/>
        <pt x="581" y="797" on="1"/>
        <pt x="544" y="451" on="1"/>
        <pt x="821" y="451" on="1"/>
        <pt x="856" y="451" on="0"/>
        <pt x="856" y="425" on="1"/>
        <pt x="856" y="405" on="0"/>
        <pt x="839" y="388" on="0"/>
        <pt x="818" y="388" on="1"/>
        <pt x="535" y="388" on="1"/>
        <pt x="495" y="64" on="1"/>
        <pt x="852" y="64" on="1"/>
        <pt x="878" y="64" on="0"/>
        <pt x="878" y="34" on="1"/>
        <pt x="878" y="19" on="0"/>
        <pt x="862" y="0" on="0"/>
        <pt x="850" y="0" on="1"/>
        <pt x="446" y="0" on="1"/>
        <pt x="413" y="0" on="0"/>
        <pt x="413" y="26" on="1"/>
        <pt x="413" y="32" on="0"/>
        <pt x="414" y="41" on="1"/>
        <pt x="456" y="388" on="1"/>
        <pt x="217" y="388" on="1"/>
        <pt x="62" y="80" on="1"/>
        <pt x="59" y="74" on="0"/>
        <pt x="42" y="39" on="0"/>
        <pt x="31" y="19" on="0"/>
        <pt x="24" y="7" on="1"/>
        <pt x="10" y="-14" on="0"/>
      </contour>
      <contour>
        <pt x="424" y="797" on="1"/>
        <pt x="249" y="451" on="1"/>
        <pt x="463" y="451" on="1"/>
        <pt x="505" y="797" on="1"/>
      </contour>
    </TTGlyph>
    <TTGlyph name="Aacute" xMin="-21" yMin="-14" xMax="636" yMax="1074">
      <contour>
        <pt x="402" y="759" on="1"/>
        <pt x="182" y="286" on="1"/>
        <pt x="497" y="286" on="1"/>
      </contour>
      <contour>
        <pt x="357" y="843" on="1"/>
        <pt x="370" y="872" on="0"/>
        <pt x="457" y="872" on="0"/>
        <pt x="463" y="843" on="1"/>
        <pt x="636" y="12" on="0"/>
        <pt x="636" y="11" on="1"/>
        <pt x="636" y="-14" on="0"/>
        <pt x="560" y="-14" on="0"/>
        <pt x="554" y="15" on="1"/>
        <pt x="510" y="225" on="1"/>
        <pt x="153" y="225" on="1"/>
        <pt x="87" y="80" on="1"/>
        <pt x="81" y="64" on="0"/>
        <pt x="68" y="38" on="0"/>
        <pt x="60" y="21" on="0"/>
        <pt x="55" y="12" on="0"/>
        <pt x="48" y="0" on="0"/>
        <pt x="42" y="-6" on="0"/>
        <pt x="39" y="-9" on="1"/>
        <pt x="34" y="-14" on="0"/>
        <pt x="8" y="-14" on="0"/>
        <pt x="-21" y="2" on="0"/>
        <pt x="-21" y="34" on="0"/>
        <pt x="28" y="139" on="1"/>
      </contour>
      <contour>
        <pt x="507" y="1071" on="1"/>
        <pt x="513" y="1074" on="0"/>
        <pt x="535" y="1074" on="0"/>
        <pt x="558" y="1046" on="0"/>
        <pt x="558" y="1019" on="0"/>
        <pt x="550" y="1008" on="0"/>
        <pt x="538" y="1001" on="1"/>
        <pt x="350" y="902" on="1"/>
        <pt x="346" y="900" on="0"/>
        <pt x="330" y="900" on="0"/>
        <pt x="316" y="916" on="0"/>
        <pt x="316" y="939" on="0"/>
        <pt x="324" y="944" on="1"/>
      </contour>
    </TTGlyph>
    <TTGlyph name="Acircumflex" xMin="-21" yMin="-14" xMax="636" yMax="1086">
      <contour>
        <pt x="402" y="759" on="1"/>
        <pt x="182" y="286" on="1"/>
        <pt x="497" y="286" on="1"/>
      </contour>
      <contour>
        <pt x="357" y="843" on="1"/>
        <pt x="370" y="872" on="0"/>
        <pt x="457" y="872" on="0"/>
        <pt x="463" y="843" on="1"/>
        <pt x="636" y="12" on="0"/>
        <pt x="636" y="11" on="1"/>
        <pt x="636" y="-14" on="0"/>
        <pt x="560" y="-14" on="0"/>
        <pt x="554" y="15" on="1"/>
        <pt x="510" y="225" on="1"/>
        <pt x="153" y="225" on="1"/>
        <pt x="87" y="80" on="1"/>
        <pt x="81" y="64" on="0"/>
        <pt x="68" y="38" on="0"/>
        <pt x="60" y="21" on="0"/>
        <pt x="55" y="12" on="0"/>
        <pt x="48" y="0" on="0"/>
        <pt x="42" y="-6" on="0"/>
        <pt x="39" y="-9" on="1"/>
        <pt x="34" y="-14" on="0"/>
        <pt x="8" y="-14" on="0"/>
        <pt x="-21" y="2" on="0"/>
        <pt x="-21" y="34" on="0"/>
        <pt x="28" y="139" on="1"/>
      </contour>
      <contour>
        <pt x="312" y="905" on="1"/>
        <pt x="307" y="900" on="0"/>
        <pt x="288" y="900" on="0"/>
        <pt x="273" y="915" on="0"/>
        <pt x="273" y="933" on="0"/>
        <pt x="277" y="939" on="1"/>
        <pt x="386" y="1055" on="1"/>
        <pt x="414" y="1086" on="0"/>
        <pt x="465" y="1086" on="0"/>
        <pt x="478" y="1063" on="1"/>
        <pt x="547" y="944" on="1"/>
        <pt x="553" y="934" on="0"/>
        <pt x="553" y="917" on="0"/>
        <pt x="533" y="899" on="0"/>
        <pt x="513" y="899" on="0"/>
        <pt x="503" y="912" on="1"/>
        <pt x="434" y="1002" on="1"/>
      </contour>
    </TTGlyph>
    <TTGlyph name="Adieresis" xMin="-21" yMin="-14" xMax="636" yMax="1029">
      <contour>
        <pt x="402" y="759" on="1"/>
        <pt x="182" y="286" on="1"/>
        <pt x="497" y="286" on="1"/>
      </contour>
      <contour>
        <pt x="357" y="843" on="1"/>
        <pt x="370" y="872" on="0"/>
        <pt x="457" y="872" on="0"/>
        <pt x="463" y="843" on="1"/>
        <pt x="636" y="12" on="0"/>
        <pt x="636" y="11" on="1"/>
        <pt x="636" y="-14" on="0"/>
        <pt x="560" y="-14" on="0"/>
        <pt x="554" y="15" on="1"/>
        <pt x="510" y="225" on="1"/>
        <pt x="153" y="225" on="1"/>
        <pt x="87" y="80" on="1"/>
        <pt x="81" y="64" on="0"/>
        <pt x="68" y="38" on="0"/>
        <pt x="60" y="21" on="0"/>
        <pt x="55" y="12" on="0"/>
        <pt x="48" y="0" on="0"/>
        <pt x="42" y="-6" on="0"/>
        <pt x="39" y="-9" on="1"/>
        <pt x="34" y="-14" on="0"/>
        <pt x="8" y="-14" on="0"/>
        <pt x="-21" y="2" on="0"/>
        <pt x="-21" y="34" on="0"/>
        <pt x="28" y="139" on="1"/>
      </contour>
      <contour>
        <pt x="380" y="992" on="1"/>
        <pt x="380" y="930" on="0"/>
        <pt x="323" y="930" on="1"/>
        <pt x="278" y="930" on="0"/>
        <pt x="278" y="968" on="1"/>
        <pt x="278" y="1029" on="0"/>
        <pt x="335" y="1029" on="1"/>
        <pt x="380" y="1029" on="0"/>
      </contour>
      <contour>
        <pt x="572" y="992" on="1"/>
        <pt x="572" y="930" on="0"/>
        <pt x="515" y="930" on="1"/>
        <pt x="470" y="930" on="0"/>
        <pt x="470" y="968" on="1"/>
        <pt x="470" y="1029" on="0"/>
        <pt x="527" y="1029" on="1"/>
        <pt x="572" y="1029" on="0"/>
      </contour>
    </TTGlyph>
    <TTGlyph name="Agrave" xMin="-21" yMin="-14" xMax="636" yMax="1074">
      <contour>
        <pt x="402" y="759" on="1"/>
        <pt x="182" y="286" on="1"/>
        <pt x="497" y="286" on="1"/>
      </contour>
      <contour>
        <pt x="357" y="843" on="1"/>
        <pt x="370" y="872" on="0"/>
        <pt x="457" y="872" on="0"/>
        <pt x="463" y="843" on="1"/>
        <pt x="636" y="12" on="0"/>
        <pt x="636" y="11" on="1"/>
        <pt x="636" y="-14" on="0"/>
        <pt x="560" y="-14" on="0"/>
        <pt x="554" y="15" on="1"/>
        <pt x="510" y="225" on="1"/>
        <pt x="153" y="225" on="1"/>
        <pt x="87" y="80" on="1"/>
        <pt x="81" y="64" on="0"/>
        <pt x="68" y="38" on="0"/>
        <pt x="60" y="21" on="0"/>
        <pt x="55" y="12" on="0"/>
        <pt x="48" y="0" on="0"/>
        <pt x="42" y="-6" on="0"/>
        <pt x="39" y="-9" on="1"/>
        <pt x="34" y="-14" on="0"/>
        <pt x="8" y="-14" on="0"/>
        <pt x="-21" y="2" on="0"/>
        <pt x="-21" y="34" on="0"/>
        <pt x="28" y="139" on="1"/>
      </contour>
      <contour>
        <pt x="525" y="944" on="1"/>
        <pt x="533" y="939" on="0"/>
        <pt x="533" y="916" on="0"/>
        <pt x="519" y="900" on="0"/>
        <pt x="503" y="900" on="0"/>
        <pt x="499" y="902" on="1"/>
        <pt x="311" y="1001" on="1"/>
        <pt x="299" y="1008" on="0"/>
        <pt x="291" y="1019" on="0"/>
        <pt x="291" y="1046" on="0"/>
        <pt x="313" y="1074" on="0"/>
        <pt x="338" y="1074" on="0"/>
        <pt x="342" y="1071" on="1"/>
      </contour>
    </TTGlyph>
    <TTGlyph name="Aring" xMin="-21" yMin="-14" xMax="636" yMax="1094">
      <contour>
        <pt x="392" y="870" on="1"/>
        <pt x="321" y="882" on="0"/>
        <pt x="321" y="971" on="1"/>
        <pt x="321" y="1014" on="0"/>
        <pt x="384" y="1094" on="0"/>
        <pt x="490" y="1094" on="0"/>
        <pt x="539" y="1037" on="0"/>
        <pt x="539" y="949" on="0"/>
        <pt x="482" y="877" on="0"/>
        <pt x="436" y="869" on="1"/>
        <pt x="459" y="864" on="0"/>
        <pt x="463" y="843" on="1"/>
        <pt x="636" y="12" on="0"/>
        <pt x="636" y="11" on="1"/>
        <pt x="636" y="-14" on="0"/>
        <pt x="560" y="-14" on="0"/>
        <pt x="554" y="15" on="1"/>
        <pt x="510" y="225" on="1"/>
        <pt x="153" y="225" on="1"/>
        <pt x="87" y="80" on="1"/>
        <pt x="81" y="64" on="0"/>
        <pt x="68" y="38" on="0"/>
        <pt x="60" y="21" on="0"/>
        <pt x="55" y="12" on="0"/>
        <pt x="48" y="0" on="0"/>
        <pt x="42" y="-6" on="0"/>
        <pt x="39" y="-9" on="1"/>
        <pt x="34" y="-14" on="0"/>
        <pt x="8" y="-14" on="0"/>
        <pt x="-21" y="2" on="0"/>
        <pt x="-21" y="34" on="0"/>
        <pt x="28" y="139" on="1"/>
        <pt x="357" y="843" on="1"/>
        <pt x="367" y="864" on="0"/>
      </contour>
      <contour>
        <pt x="402" y="759" on="1"/>
        <pt x="182" y="286" on="1"/>
        <pt x="497" y="286" on="1"/>
      </contour>
      <contour>
        <pt x="376" y="970" on="1"/>
        <pt x="376" y="917" on="0"/>
        <pt x="421" y="917" on="1"/>
        <pt x="448" y="917" on="0"/>
        <pt x="485" y="960" on="0"/>
        <pt x="485" y="989" on="1"/>
        <pt x="485" y="1043" on="0"/>
        <pt x="440" y="1043" on="1"/>
        <pt x="410" y="1043" on="0"/>
        <pt x="376" y="998" on="0"/>
      </contour>
    </TTGlyph>
    <TTGlyph name="Atilde" xMin="-21" yMin="-14" xMax="636" yMax="1031">
      <contour>
        <pt x="402" y="759" on="1"/>
        <pt x="182" y="286" on="1"/>
        <pt x="497" y="286" on="1"/>
      </contour>
      <contour>
        <pt x="357" y="843" on="1"/>
        <pt x="370" y="872" on="0"/>
        <pt x="457" y="872" on="0"/>
        <pt x="463" y="843" on="1"/>
        <pt x="636" y="12" on="0"/>
        <pt x="636" y="11" on="1"/>
        <pt x="636" y="-14" on="0"/>
        <pt x="560" y="-14" on="0"/>
        <pt x="554" y="15" on="1"/>
        <pt x="510" y="225" on="1"/>
        <pt x="153" y="225" on="1"/>
        <pt x="87" y="80" on="1"/>
        <pt x="81" y="64" on="0"/>
        <pt x="68" y="38" on="0"/>
        <pt x="60" y="21" on="0"/>
        <pt x="55" y="12" on="0"/>
        <pt x="48" y="0" on="0"/>
        <pt x="42" y="-6" on="0"/>
        <pt x="39" y="-9" on="1"/>
        <pt x="34" y="-14" on="0"/>
        <pt x="8" y="-14" on="0"/>
        <pt x="-21" y="2" on="0"/>
        <pt x="-21" y="34" on="0"/>
        <pt x="28" y="139" on="1"/>
      </contour>
      <contour>
        <pt x="385" y="1031" on="0"/>
        <pt x="461" y="991" on="0"/>
        <pt x="504" y="991" on="0"/>
        <pt x="555" y="1031" on="0"/>
        <pt x="557" y="1031" on="1"/>
        <pt x="586" y="1031" on="0"/>
        <pt x="586" y="1000" on="1"/>
        <pt x="586" y="986" on="0"/>
        <pt x="514" y="922" on="0"/>
        <pt x="479" y="922" on="1"/>
        <pt x="460" y="922" on="0"/>
        <pt x="384" y="962" on="0"/>
        <pt x="341" y="962" on="0"/>
        <pt x="290" y="922" on="0"/>
        <pt x="288" y="922" on="1"/>
        <pt x="259" y="922" on="0"/>
        <pt x="259" y="953" on="1"/>
        <pt x="259" y="967" on="0"/>
        <pt x="331" y="1031" on="0"/>
        <pt x="366" y="1031" on="1"/>
      </contour>
    </TTGlyph>
    <TTGlyph name="B" xMin="57" yMin="-14" xMax="654" yMax="872">
      <contour>
        <pt x="489" y="470" on="1"/>
        <pt x="654" y="399" on="0"/>
        <pt x="654" y="246" on="1"/>
        <pt x="654" y="165" on="0"/>
        <pt x="605" y="104" on="1"/>
        <pt x="511" y="-14" on="0"/>
        <pt x="301" y="-14" on="1"/>
        <pt x="192" y="-14" on="0"/>
        <pt x="117" y="-6" on="1"/>
        <pt x="95" y="-3" on="1"/>
        <pt x="57" y="0" on="0"/>
        <pt x="57" y="27" on="1"/>
        <pt x="57" y="32" on="1"/>
        <pt x="154" y="837" on="1"/>
        <pt x="159" y="872" on="0"/>
        <pt x="381" y="872" on="1"/>
        <pt x="493" y="872" on="0"/>
        <pt x="644" y="775" on="0"/>
        <pt x="645" y="683" on="1"/>
        <pt x="645" y="611" on="0"/>
        <pt x="563" y="501" on="0"/>
      </contour>
      <contour>
        <pt x="337" y="440" on="1"/>
        <pt x="185" y="440" on="1"/>
        <pt x="140" y="62" on="1"/>
        <pt x="210" y="55" on="0"/>
        <pt x="370" y="55" on="0"/>
        <pt x="492" y="98" on="0"/>
        <pt x="574" y="190" on="0"/>
        <pt x="574" y="251" on="1"/>
        <pt x="574" y="327" on="0"/>
        <pt x="434" y="440" on="0"/>
      </contour>
      <contour>
        <pt x="459" y="514" on="0"/>
        <pt x="566" y="609" on="0"/>
        <pt x="566" y="744" on="0"/>
        <pt x="458" y="811" on="0"/>
        <pt x="296" y="811" on="0"/>
        <pt x="228" y="799" on="1"/>
        <pt x="193" y="503" on="1"/>
        <pt x="377" y="503" on="1"/>
      </contour>
    </TTGlyph>
    <TTGlyph name="C" xMin="42" yMin="-14" xMax="662" yMax="872">
      <contour>
        <pt x="424" y="872" on="1"/>
        <pt x="551" y="872" on="0"/>
        <pt x="626" y="797" on="1"/>
        <pt x="662" y="761" on="0"/>
        <pt x="662" y="741" on="1"/>
        <pt x="662" y="731" on="0"/>
        <pt x="629" y="708" on="0"/>
        <pt x="608" y="708" on="0"/>
        <pt x="581" y="740" on="0"/>
        <pt x="548" y="779" on="0"/>
        <pt x="472" y="811" on="0"/>
        <pt x="357" y="811" on="0"/>
        <pt x="252" y="743" on="0"/>
        <pt x="186" y="638" on="0"/>
        <pt x="163" y="572" on="1"/>
        <pt x="122" y="453" on="0"/>
        <pt x="122" y="325" on="1"/>
        <pt x="122" y="213" on="0"/>
        <pt x="171" y="137" on="1"/>
        <pt x="196" y="98" on="0"/>
        <pt x="283" y="53" on="0"/>
        <pt x="340" y="53" on="1"/>
        <pt x="460" y="53" on="0"/>
        <pt x="539" y="139" on="1"/>
        <pt x="542" y="142" on="0"/>
        <pt x="552" y="155" on="1"/>
        <pt x="570" y="181" on="0"/>
        <pt x="596" y="181" on="0"/>
        <pt x="616" y="164" on="0"/>
        <pt x="616" y="144" on="0"/>
        <pt x="609" y="133" on="1"/>
        <pt x="563" y="61" on="0"/>
        <pt x="420" y="-14" on="0"/>
        <pt x="333" y="-14" on="1"/>
        <pt x="182" y="-14" on="0"/>
        <pt x="42" y="174" on="0"/>
        <pt x="42" y="330" on="1"/>
        <pt x="42" y="526" on="0"/>
        <pt x="126" y="688" on="1"/>
        <pt x="168" y="771" on="0"/>
        <pt x="322" y="872" on="0"/>
      </contour>
    </TTGlyph>
    <TTGlyph name="Ccedilla" xMin="42" yMin="-320" xMax="662" yMax="872">
      <contour>
        <pt x="424" y="872" on="1"/>
        <pt x="551" y="872" on="0"/>
        <pt x="626" y="797" on="1"/>
        <pt x="662" y="761" on="0"/>
        <pt x="662" y="741" on="1"/>
        <pt x="662" y="731" on="0"/>
        <pt x="629" y="708" on="0"/>
        <pt x="608" y="708" on="0"/>
        <pt x="581" y="740" on="0"/>
        <pt x="548" y="779" on="0"/>
        <pt x="472" y="811" on="0"/>
        <pt x="357" y="811" on="0"/>
        <pt x="252" y="743" on="0"/>
        <pt x="186" y="638" on="0"/>
        <pt x="163" y="572" on="1"/>
        <pt x="122" y="453" on="0"/>
        <pt x="122" y="325" on="1"/>
        <pt x="122" y="213" on="0"/>
        <pt x="171" y="137" on="1"/>
        <pt x="196" y="98" on="0"/>
        <pt x="283" y="53" on="0"/>
        <pt x="340" y="53" on="1"/>
        <pt x="460" y="53" on="0"/>
        <pt x="539" y="139" on="1"/>
        <pt x="542" y="142" on="0"/>
        <pt x="552" y="155" on="1"/>
        <pt x="570" y="181" on="0"/>
        <pt x="596" y="181" on="0"/>
        <pt x="616" y="164" on="0"/>
        <pt x="616" y="144" on="0"/>
        <pt x="609" y="133" on="1"/>
        <pt x="563" y="61" on="0"/>
        <pt x="420" y="-14" on="0"/>
        <pt x="333" y="-14" on="1"/>
        <pt x="326" y="-14" on="1"/>
        <pt x="309" y="-71" on="1"/>
        <pt x="364" y="-71" on="0"/>
        <pt x="441" y="-128" on="0"/>
        <pt x="441" y="-252" on="0"/>
        <pt x="360" y="-320" on="0"/>
        <pt x="247" y="-320" on="0"/>
        <pt x="180" y="-267" on="0"/>
        <pt x="180" y="-235" on="1"/>
        <pt x="180" y="-222" on="0"/>
        <pt x="194" y="-203" on="0"/>
        <pt x="226" y="-203" on="0"/>
        <pt x="244" y="-241" on="0"/>
        <pt x="274" y="-265" on="0"/>
        <pt x="338" y="-265" on="0"/>
        <pt x="379" y="-224" on="0"/>
        <pt x="379" y="-193" on="1"/>
        <pt x="379" y="-124" on="0"/>
        <pt x="288" y="-124" on="1"/>
        <pt x="256" y="-124" on="0"/>
        <pt x="256" y="-101" on="1"/>
        <pt x="256" y="-90" on="0"/>
        <pt x="261" y="-72" on="1"/>
        <pt x="279" y="-10" on="1"/>
        <pt x="156" y="6" on="0"/>
        <pt x="42" y="188" on="0"/>
        <pt x="42" y="330" on="1"/>
        <pt x="42" y="526" on="0"/>
        <pt x="126" y="688" on="1"/>
        <pt x="168" y="771" on="0"/>
        <pt x="322" y="872" on="0"/>
      </contour>
    </TTGlyph>
    <TTGlyph name="D" xMin="56" yMin="-14" xMax="730" yMax="872">
      <contour>
        <pt x="730" y="536" on="1"/>
        <pt x="730" y="304" on="0"/>
        <pt x="634" y="151" on="1"/>
        <pt x="585" y="73" on="0"/>
        <pt x="414" y="-14" on="0"/>
        <pt x="166" y="-14" on="0"/>
        <pt x="94" y="-4" on="1"/>
        <pt x="56" y="1" on="0"/>
        <pt x="56" y="24" on="1"/>
        <pt x="56" y="38" on="0"/>
        <pt x="58" y="52" on="1"/>
        <pt x="152" y="837" on="1"/>
        <pt x="153" y="847" on="0"/>
        <pt x="171" y="860" on="0"/>
        <pt x="181" y="861" on="1"/>
        <pt x="295" y="872" on="0"/>
        <pt x="397" y="872" on="1"/>
        <pt x="563" y="872" on="0"/>
        <pt x="730" y="697" on="0"/>
      </contour>
      <contour>
        <pt x="650" y="547" on="1"/>
        <pt x="650" y="665" on="0"/>
        <pt x="514" y="809" on="0"/>
        <pt x="283" y="809" on="0"/>
        <pt x="226" y="799" on="1"/>
        <pt x="138" y="62" on="1"/>
        <pt x="202" y="53" on="0"/>
        <pt x="392" y="53" on="0"/>
        <pt x="533" y="138" on="0"/>
        <pt x="572" y="210" on="1"/>
        <pt x="650" y="353" on="0"/>
      </contour>
    </TTGlyph>
    <TTGlyph name="Delta" xMin="-21" yMin="-14" xMax="636" yMax="872">
      <contour>
        <pt x="628" y="50" on="1"/>
        <pt x="636" y="5" on="1"/>
        <pt x="636" y="-14" on="0"/>
        <pt x="610" y="-14" on="1"/>
        <pt x="25" y="-14" on="1"/>
        <pt x="-21" y="-14" on="0"/>
        <pt x="-21" y="16" on="1"/>
        <pt x="-21" y="27" on="0"/>
        <pt x="28" y="132" on="1"/>
        <pt x="357" y="843" on="1"/>
        <pt x="370" y="872" on="0"/>
        <pt x="457" y="872" on="0"/>
        <pt x="463" y="843" on="1"/>
      </contour>
      <contour>
        <pt x="402" y="759" on="1"/>
        <pt x="73" y="50" on="1"/>
        <pt x="547" y="50" on="1"/>
      </contour>
    </TTGlyph>
    <TTGlyph name="E" xMin="57" yMin="0" xMax="598" yMax="860">
      <contour>
        <pt x="181" y="860" on="1"/>
        <pt x="567" y="860" on="1"/>
        <pt x="598" y="860" on="0"/>
        <pt x="598" y="833" on="1"/>
        <pt x="598" y="813" on="0"/>
        <pt x="582" y="797" on="0"/>
        <pt x="561" y="797" on="1"/>
        <pt x="225" y="797" on="1"/>
        <pt x="192" y="484" on="1"/>
        <pt x="469" y="484" on="1"/>
        <pt x="504" y="484" on="0"/>
        <pt x="504" y="458" on="1"/>
        <pt x="504" y="438" on="0"/>
        <pt x="487" y="421" on="0"/>
        <pt x="466" y="421" on="1"/>
        <pt x="183" y="421" on="1"/>
        <pt x="139" y="64" on="1"/>
        <pt x="496" y="64" on="1"/>
        <pt x="522" y="64" on="0"/>
        <pt x="522" y="34" on="1"/>
        <pt x="522" y="19" on="0"/>
        <pt x="506" y="0" on="0"/>
        <pt x="494" y="0" on="1"/>
        <pt x="90" y="0" on="1"/>
        <pt x="57" y="0" on="0"/>
        <pt x="57" y="26" on="1"/>
        <pt x="57" y="32" on="0"/>
        <pt x="58" y="41" on="1"/>
        <pt x="153" y="826" on="1"/>
        <pt x="156" y="860" on="0"/>
      </contour>
    </TTGlyph>
    <TTGlyph name="Eacute" xMin="57" yMin="0" xMax="598" yMax="1074">
      <contour>
        <pt x="181" y="860" on="1"/>
        <pt x="567" y="860" on="1"/>
        <pt x="598" y="860" on="0"/>
        <pt x="598" y="833" on="1"/>
        <pt x="598" y="813" on="0"/>
        <pt x="582" y="797" on="0"/>
        <pt x="561" y="797" on="1"/>
        <pt x="225" y="797" on="1"/>
        <pt x="192" y="484" on="1"/>
        <pt x="469" y="484" on="1"/>
        <pt x="504" y="484" on="0"/>
        <pt x="504" y="458" on="1"/>
        <pt x="504" y="438" on="0"/>
        <pt x="487" y="421" on="0"/>
        <pt x="466" y="421" on="1"/>
        <pt x="183" y="421" on="1"/>
        <pt x="139" y="64" on="1"/>
        <pt x="496" y="64" on="1"/>
        <pt x="522" y="64" on="0"/>
        <pt x="522" y="34" on="1"/>
        <pt x="522" y="19" on="0"/>
        <pt x="506" y="0" on="0"/>
        <pt x="494" y="0" on="1"/>
        <pt x="90" y="0" on="1"/>
        <pt x="57" y="0" on="0"/>
        <pt x="57" y="26" on="1"/>
        <pt x="57" y="32" on="0"/>
        <pt x="58" y="41" on="1"/>
        <pt x="153" y="826" on="1"/>
        <pt x="156" y="860" on="0"/>
      </contour>
      <contour>
        <pt x="473" y="1071" on="1"/>
        <pt x="479" y="1074" on="0"/>
        <pt x="501" y="1074" on="0"/>
        <pt x="524" y="1046" on="0"/>
        <pt x="524" y="1019" on="0"/>
        <pt x="516" y="1008" on="0"/>
        <pt x="504" y="1001" on="1"/>
        <pt x="316" y="902" on="1"/>
        <pt x="312" y="900" on="0"/>
        <pt x="296" y="900" on="0"/>
        <pt x="282" y="916" on="0"/>
        <pt x="282" y="939" on="0"/>
        <pt x="290" y="944" on="1"/>
      </contour>
    </TTGlyph>
    <TTGlyph name="Ecircumflex" xMin="57" yMin="0" xMax="598" yMax="1086">
      <contour>
        <pt x="181" y="860" on="1"/>
        <pt x="567" y="860" on="1"/>
        <pt x="598" y="860" on="0"/>
        <pt x="598" y="833" on="1"/>
        <pt x="598" y="813" on="0"/>
        <pt x="582" y="797" on="0"/>
        <pt x="561" y="797" on="1"/>
        <pt x="225" y="797" on="1"/>
        <pt x="192" y="484" on="1"/>
        <pt x="469" y="484" on="1"/>
        <pt x="504" y="484" on="0"/>
        <pt x="504" y="458" on="1"/>
        <pt x="504" y="438" on="0"/>
        <pt x="487" y="421" on="0"/>
        <pt x="466" y="421" on="1"/>
        <pt x="183" y="421" on="1"/>
        <pt x="139" y="64" on="1"/>
        <pt x="496" y="64" on="1"/>
        <pt x="522" y="64" on="0"/>
        <pt x="522" y="34" on="1"/>
        <pt x="522" y="19" on="0"/>
        <pt x="506" y="0" on="0"/>
        <pt x="494" y="0" on="1"/>
        <pt x="90" y="0" on="1"/>
        <pt x="57" y="0" on="0"/>
        <pt x="57" y="26" on="1"/>
        <pt x="57" y="32" on="0"/>
        <pt x="58" y="41" on="1"/>
        <pt x="153" y="826" on="1"/>
        <pt x="156" y="860" on="0"/>
      </contour>
      <contour>
        <pt x="283" y="905" on="1"/>
        <pt x="278" y="900" on="0"/>
        <pt x="259" y="900" on="0"/>
        <pt x="244" y="915" on="0"/>
        <pt x="244" y="933" on="0"/>
        <pt x="248" y="939" on="1"/>
        <pt x="357" y="1055" on="1"/>
        <pt x="385" y="1086" on="0"/>
        <pt x="436" y="1086" on="0"/>
        <pt x="449" y="1063" on="1"/>
        <pt x="518" y="944" on="1"/>
        <pt x="524" y="934" on="0"/>
        <pt x="524" y="917" on="0"/>
        <pt x="504" y="899" on="0"/>
        <pt x="484" y="899" on="0"/>
        <pt x="474" y="912" on="1"/>
        <pt x="405" y="1002" on="1"/>
      </contour>
    </TTGlyph>
    <TTGlyph name="Edieresis" xMin="57" yMin="0" xMax="598" yMax="1029">
      <contour>
        <pt x="181" y="860" on="1"/>
        <pt x="567" y="860" on="1"/>
        <pt x="598" y="860" on="0"/>
        <pt x="598" y="833" on="1"/>
        <pt x="598" y="813" on="0"/>
        <pt x="582" y="797" on="0"/>
        <pt x="561" y="797" on="1"/>
        <pt x="225" y="797" on="1"/>
        <pt x="192" y="484" on="1"/>
        <pt x="469" y="484" on="1"/>
        <pt x="504" y="484" on="0"/>
        <pt x="504" y="458" on="1"/>
        <pt x="504" y="438" on="0"/>
        <pt x="487" y="421" on="0"/>
        <pt x="466" y="421" on="1"/>
        <pt x="183" y="421" on="1"/>
        <pt x="139" y="64" on="1"/>
        <pt x="496" y="64" on="1"/>
        <pt x="522" y="64" on="0"/>
        <pt x="522" y="34" on="1"/>
        <pt x="522" y="19" on="0"/>
        <pt x="506" y="0" on="0"/>
        <pt x="494" y="0" on="1"/>
        <pt x="90" y="0" on="1"/>
        <pt x="57" y="0" on="0"/>
        <pt x="57" y="26" on="1"/>
        <pt x="57" y="32" on="0"/>
        <pt x="58" y="41" on="1"/>
        <pt x="153" y="826" on="1"/>
        <pt x="156" y="860" on="0"/>
      </contour>
      <contour>
        <pt x="357" y="992" on="1"/>
        <pt x="357" y="930" on="0"/>
        <pt x="300" y="930" on="1"/>
        <pt x="255" y="930" on="0"/>
        <pt x="255" y="968" on="1"/>
        <pt x="255" y="1029" on="0"/>
        <pt x="312" y="1029" on="1"/>
        <pt x="357" y="1029" on="0"/>
      </contour>
      <contour>
        <pt x="549" y="992" on="1"/>
        <pt x="549" y="930" on="0"/>
        <pt x="492" y="930" on="1"/>
        <pt x="447" y="930" on="0"/>
        <pt x="447" y="968" on="1"/>
        <pt x="447" y="1029" on="0"/>
        <pt x="504" y="1029" on="1"/>
        <pt x="549" y="1029" on="0"/>
      </contour>
    </TTGlyph>
    <TTGlyph name="Egrave" xMin="57" yMin="0" xMax="598" yMax="1074">
      <contour>
        <pt x="181" y="860" on="1"/>
        <pt x="567" y="860" on="1"/>
        <pt x="598" y="860" on="0"/>
        <pt x="598" y="833" on="1"/>
        <pt x="598" y="813" on="0"/>
        <pt x="582" y="797" on="0"/>
        <pt x="561" y="797" on="1"/>
        <pt x="225" y="797" on="1"/>
        <pt x="192" y="484" on="1"/>
        <pt x="469" y="484" on="1"/>
        <pt x="504" y="484" on="0"/>
        <pt x="504" y="458" on="1"/>
        <pt x="504" y="438" on="0"/>
        <pt x="487" y="421" on="0"/>
        <pt x="466" y="421" on="1"/>
        <pt x="183" y="421" on="1"/>
        <pt x="139" y="64" on="1"/>
        <pt x="496" y="64" on="1"/>
        <pt x="522" y="64" on="0"/>
        <pt x="522" y="34" on="1"/>
        <pt x="522" y="19" on="0"/>
        <pt x="506" y="0" on="0"/>
        <pt x="494" y="0" on="1"/>
        <pt x="90" y="0" on="1"/>
        <pt x="57" y="0" on="0"/>
        <pt x="57" y="26" on="1"/>
        <pt x="57" y="32" on="0"/>
        <pt x="58" y="41" on="1"/>
        <pt x="153" y="826" on="1"/>
        <pt x="156" y="860" on="0"/>
      </contour>
      <contour>
        <pt x="497" y="944" on="1"/>
        <pt x="505" y="939" on="0"/>
        <pt x="505" y="916" on="0"/>
        <pt x="491" y="900" on="0"/>
        <pt x="475" y="900" on="0"/>
        <pt x="471" y="902" on="1"/>
        <pt x="283" y="1001" on="1"/>
        <pt x="271" y="1008" on="0"/>
        <pt x="263" y="1019" on="0"/>
        <pt x="263" y="1046" on="0"/>
        <pt x="285" y="1074" on="0"/>
        <pt x="310" y="1074" on="0"/>
        <pt x="314" y="1071" on="1"/>
      </contour>
    </TTGlyph>
    <TTGlyph name="Eth" xMin="-2" yMin="-14" xMax="730" yMax="872">
      <contour>
        <pt x="27" y="462" on="1"/>
        <pt x="107" y="462" on="1"/>
        <pt x="152" y="837" on="1"/>
        <pt x="153" y="847" on="0"/>
        <pt x="171" y="860" on="0"/>
        <pt x="181" y="861" on="1"/>
        <pt x="295" y="872" on="0"/>
        <pt x="397" y="872" on="1"/>
        <pt x="563" y="872" on="0"/>
        <pt x="730" y="697" on="0"/>
        <pt x="730" y="536" on="1"/>
        <pt x="730" y="304" on="0"/>
        <pt x="634" y="151" on="1"/>
        <pt x="585" y="73" on="0"/>
        <pt x="414" y="-14" on="0"/>
        <pt x="166" y="-14" on="0"/>
        <pt x="94" y="-4" on="1"/>
        <pt x="56" y="1" on="0"/>
        <pt x="56" y="24" on="1"/>
        <pt x="56" y="38" on="0"/>
        <pt x="58" y="52" on="1"/>
        <pt x="99" y="398" on="1"/>
        <pt x="19" y="398" on="1"/>
        <pt x="10" y="398" on="0"/>
        <pt x="-2" y="414" on="0"/>
        <pt x="-2" y="440" on="0"/>
        <pt x="13" y="462" on="0"/>
      </contour>
      <contour>
        <pt x="650" y="547" on="1"/>
        <pt x="650" y="665" on="0"/>
        <pt x="514" y="809" on="0"/>
        <pt x="283" y="809" on="0"/>
        <pt x="226" y="799" on="1"/>
        <pt x="185" y="462" on="1"/>
        <pt x="413" y="462" on="1"/>
        <pt x="425" y="462" on="0"/>
        <pt x="439" y="444" on="0"/>
        <pt x="439" y="418" on="0"/>
        <pt x="423" y="398" on="0"/>
        <pt x="409" y="398" on="1"/>
        <pt x="178" y="398" on="1"/>
        <pt x="138" y="62" on="1"/>
        <pt x="202" y="53" on="0"/>
        <pt x="392" y="53" on="0"/>
        <pt x="533" y="138" on="0"/>
        <pt x="572" y="210" on="1"/>
        <pt x="650" y="353" on="0"/>
      </contour>
    </TTGlyph>
    <TTGlyph name="Euro" xMin="10" yMin="-14" xMax="642" yMax="860">
      <contour>
        <pt x="63" y="539" on="1"/>
        <pt x="124" y="539" on="1"/>
        <pt x="154" y="674" on="0"/>
        <pt x="226" y="763" on="1"/>
        <pt x="304" y="860" on="0"/>
        <pt x="433" y="860" on="1"/>
        <pt x="483" y="860" on="0"/>
        <pt x="569" y="826" on="0"/>
        <pt x="616" y="779" on="0"/>
        <pt x="642" y="739" on="0"/>
        <pt x="642" y="719" on="0"/>
        <pt x="609" y="696" on="0"/>
        <pt x="590" y="696" on="0"/>
        <pt x="575" y="717" on="0"/>
        <pt x="554" y="748" on="0"/>
        <pt x="538" y="763" on="1"/>
        <pt x="501" y="799" on="0"/>
        <pt x="433" y="799" on="1"/>
        <pt x="348" y="799" on="0"/>
        <pt x="236" y="653" on="0"/>
        <pt x="208" y="539" on="1"/>
        <pt x="502" y="539" on="1"/>
        <pt x="529" y="539" on="0"/>
        <pt x="529" y="508" on="1"/>
        <pt x="529" y="495" on="0"/>
        <pt x="512" y="473" on="0"/>
        <pt x="500" y="473" on="1"/>
        <pt x="194" y="473" on="1"/>
        <pt x="184" y="406" on="0"/>
        <pt x="182" y="346" on="1"/>
        <pt x="483" y="346" on="1"/>
        <pt x="492" y="346" on="0"/>
        <pt x="505" y="329" on="0"/>
        <pt x="505" y="303" on="0"/>
        <pt x="489" y="280" on="0"/>
        <pt x="474" y="280" on="1"/>
        <pt x="184" y="280" on="1"/>
        <pt x="192" y="180" on="0"/>
        <pt x="286" y="53" on="0"/>
        <pt x="374" y="53" on="1"/>
        <pt x="487" y="53" on="0"/>
        <pt x="562" y="155" on="1"/>
        <pt x="580" y="181" on="0"/>
        <pt x="606" y="181" on="0"/>
        <pt x="626" y="164" on="0"/>
        <pt x="626" y="144" on="0"/>
        <pt x="619" y="133" on="1"/>
        <pt x="525" y="-14" on="0"/>
        <pt x="364" y="-14" on="1"/>
        <pt x="239" y="-14" on="0"/>
        <pt x="113" y="144" on="0"/>
        <pt x="103" y="280" on="1"/>
        <pt x="31" y="280" on="1"/>
        <pt x="10" y="280" on="0"/>
        <pt x="10" y="308" on="1"/>
        <pt x="10" y="323" on="0"/>
        <pt x="26" y="346" on="0"/>
        <pt x="39" y="346" on="1"/>
        <pt x="102" y="346" on="1"/>
        <pt x="102" y="401" on="0"/>
        <pt x="112" y="473" on="1"/>
        <pt x="54" y="473" on="1"/>
        <pt x="44" y="473" on="0"/>
        <pt x="33" y="492" on="0"/>
        <pt x="33" y="518" on="0"/>
        <pt x="51" y="539" on="0"/>
      </contour>
    </TTGlyph>
    <TTGlyph name="F" xMin="57" yMin="-14" xMax="599" yMax="860">
      <contour>
        <pt x="182" y="860" on="1"/>
        <pt x="568" y="860" on="1"/>
        <pt x="599" y="860" on="0"/>
        <pt x="599" y="833" on="1"/>
        <pt x="599" y="813" on="0"/>
        <pt x="584" y="797" on="0"/>
        <pt x="563" y="797" on="1"/>
        <pt x="227" y="797" on="1"/>
        <pt x="193" y="484" on="1"/>
        <pt x="504" y="484" on="1"/>
        <pt x="539" y="484" on="0"/>
        <pt x="539" y="458" on="1"/>
        <pt x="539" y="438" on="0"/>
        <pt x="522" y="421" on="0"/>
        <pt x="501" y="421" on="1"/>
        <pt x="185" y="421" on="1"/>
        <pt x="134" y="18" on="1"/>
        <pt x="130" y="-14" on="0"/>
        <pt x="57" y="-14" on="0"/>
        <pt x="57" y="14" on="1"/>
        <pt x="154" y="826" on="1"/>
        <pt x="159" y="860" on="0"/>
      </contour>
    </TTGlyph>
    <TTGlyph name="G" xMin="42" yMin="-14" xMax="662" yMax="872">
      <contour>
        <pt x="216" y="808" on="0"/>
        <pt x="347" y="872" on="0"/>
        <pt x="486" y="872" on="0"/>
        <pt x="591" y="831" on="0"/>
        <pt x="641" y="786" on="0"/>
        <pt x="641" y="760" on="0"/>
        <pt x="611" y="732" on="0"/>
        <pt x="596" y="732" on="1"/>
        <pt x="593" y="732" on="0"/>
        <pt x="569" y="757" on="0"/>
        <pt x="535" y="786" on="0"/>
        <pt x="466" y="811" on="0"/>
        <pt x="424" y="811" on="1"/>
        <pt x="348" y="811" on="0"/>
        <pt x="227" y="717" on="0"/>
        <pt x="192" y="642" on="1"/>
        <pt x="122" y="489" on="0"/>
        <pt x="122" y="325" on="1"/>
        <pt x="122" y="169" on="0"/>
        <pt x="218" y="93" on="1"/>
        <pt x="268" y="53" on="0"/>
        <pt x="418" y="53" on="0"/>
        <pt x="547" y="152" on="0"/>
        <pt x="557" y="225" on="1"/>
        <pt x="578" y="389" on="1"/>
        <pt x="326" y="389" on="1"/>
        <pt x="300" y="389" on="0"/>
        <pt x="300" y="420" on="1"/>
        <pt x="300" y="434" on="0"/>
        <pt x="316" y="452" on="0"/>
        <pt x="328" y="452" on="1"/>
        <pt x="631" y="452" on="1"/>
        <pt x="662" y="452" on="0"/>
        <pt x="662" y="425" on="1"/>
        <pt x="662" y="417" on="0"/>
        <pt x="612" y="14" on="1"/>
        <pt x="610" y="-3" on="0"/>
        <pt x="592" y="-14" on="0"/>
        <pt x="573" y="-14" on="1"/>
        <pt x="530" y="-14" on="0"/>
        <pt x="530" y="11" on="1"/>
        <pt x="530" y="15" on="0"/>
        <pt x="539" y="70" on="1"/>
        <pt x="458" y="-14" on="0"/>
        <pt x="329" y="-14" on="1"/>
        <pt x="182" y="-14" on="0"/>
        <pt x="42" y="174" on="0"/>
        <pt x="42" y="330" on="1"/>
        <pt x="42" y="499" on="0"/>
        <pt x="98" y="632" on="1"/>
        <pt x="128" y="703" on="0"/>
      </contour>
    </TTGlyph>
    <TTGlyph name="H" xMin="57" yMin="-14" xMax="708" yMax="872">
      <contour>
        <pt x="236" y="848" on="1"/>
        <pt x="236" y="846" on="0"/>
        <pt x="192" y="491" on="1"/>
        <pt x="587" y="491" on="1"/>
        <pt x="593" y="558" on="0"/>
        <pt x="630" y="840" on="1"/>
        <pt x="634" y="872" on="0"/>
        <pt x="708" y="872" on="0"/>
        <pt x="708" y="848" on="1"/>
        <pt x="708" y="845" on="0"/>
        <pt x="606" y="18" on="1"/>
        <pt x="602" y="-14" on="0"/>
        <pt x="529" y="-14" on="0"/>
        <pt x="529" y="14" on="1"/>
        <pt x="529" y="17" on="0"/>
        <pt x="579" y="428" on="1"/>
        <pt x="185" y="428" on="1"/>
        <pt x="134" y="18" on="1"/>
        <pt x="130" y="-14" on="0"/>
        <pt x="57" y="-14" on="0"/>
        <pt x="57" y="14" on="1"/>
        <pt x="57" y="17" on="0"/>
        <pt x="158" y="840" on="1"/>
        <pt x="162" y="872" on="0"/>
        <pt x="236" y="872" on="0"/>
      </contour>
    </TTGlyph>
    <TTGlyph name="I" xMin="57" yMin="-14" xMax="236" yMax="872">
      <contour>
        <pt x="134" y="18" on="1"/>
        <pt x="130" y="-14" on="0"/>
        <pt x="57" y="-14" on="0"/>
        <pt x="57" y="14" on="1"/>
        <pt x="57" y="17" on="0"/>
        <pt x="158" y="840" on="1"/>
        <pt x="162" y="872" on="0"/>
        <pt x="236" y="872" on="0"/>
        <pt x="236" y="848" on="1"/>
        <pt x="236" y="845" on="0"/>
      </contour>
    </TTGlyph>
    <TTGlyph name="Iacute" xMin="57" yMin="-14" xMax="334" yMax="1074">
      <contour>
        <pt x="134" y="18" on="1"/>
        <pt x="130" y="-14" on="0"/>
        <pt x="57" y="-14" on="0"/>
        <pt x="57" y="14" on="1"/>
        <pt x="57" y="17" on="0"/>
        <pt x="158" y="840" on="1"/>
        <pt x="162" y="872" on="0"/>
        <pt x="236" y="872" on="0"/>
        <pt x="236" y="848" on="1"/>
        <pt x="236" y="845" on="0"/>
      </contour>
      <contour>
        <pt x="283" y="1071" on="1"/>
        <pt x="289" y="1074" on="0"/>
        <pt x="311" y="1074" on="0"/>
        <pt x="334" y="1046" on="0"/>
        <pt x="334" y="1019" on="0"/>
        <pt x="326" y="1008" on="0"/>
        <pt x="314" y="1001" on="1"/>
        <pt x="126" y="902" on="1"/>
        <pt x="122" y="900" on="0"/>
        <pt x="106" y="900" on="0"/>
        <pt x="92" y="916" on="0"/>
        <pt x="92" y="939" on="0"/>
        <pt x="100" y="944" on="1"/>
      </contour>
    </TTGlyph>
    <TTGlyph name="Icircumflex" xMin="57" yMin="-14" xMax="342" yMax="1086">
      <contour>
        <pt x="134" y="18" on="1"/>
        <pt x="130" y="-14" on="0"/>
        <pt x="57" y="-14" on="0"/>
        <pt x="57" y="14" on="1"/>
        <pt x="57" y="17" on="0"/>
        <pt x="158" y="840" on="1"/>
        <pt x="162" y="872" on="0"/>
        <pt x="236" y="872" on="0"/>
        <pt x="236" y="848" on="1"/>
        <pt x="236" y="845" on="0"/>
      </contour>
      <contour>
        <pt x="101" y="905" on="1"/>
        <pt x="96" y="900" on="0"/>
        <pt x="77" y="900" on="0"/>
        <pt x="62" y="915" on="0"/>
        <pt x="62" y="933" on="0"/>
        <pt x="66" y="939" on="1"/>
        <pt x="175" y="1055" on="1"/>
        <pt x="203" y="1086" on="0"/>
        <pt x="254" y="1086" on="0"/>
        <pt x="267" y="1063" on="1"/>
        <pt x="336" y="944" on="1"/>
        <pt x="342" y="934" on="0"/>
        <pt x="342" y="917" on="0"/>
        <pt x="322" y="899" on="0"/>
        <pt x="302" y="899" on="0"/>
        <pt x="292" y="912" on="1"/>
        <pt x="223" y="1002" on="1"/>
      </contour>
    </TTGlyph>
    <TTGlyph name="Idieresis" xMin="57" yMin="-14" xMax="362" yMax="1029">
      <contour>
        <pt x="134" y="18" on="1"/>
        <pt x="130" y="-14" on="0"/>
        <pt x="57" y="-14" on="0"/>
        <pt x="57" y="14" on="1"/>
        <pt x="57" y="17" on="0"/>
        <pt x="158" y="840" on="1"/>
        <pt x="162" y="872" on="0"/>
        <pt x="236" y="872" on="0"/>
        <pt x="236" y="848" on="1"/>
        <pt x="236" y="845" on="0"/>
      </contour>
      <contour>
        <pt x="170" y="992" on="1"/>
        <pt x="170" y="930" on="0"/>
        <pt x="113" y="930" on="1"/>
        <pt x="68" y="930" on="0"/>
        <pt x="68" y="968" on="1"/>
        <pt x="68" y="1029" on="0"/>
        <pt x="125" y="1029" on="1"/>
        <pt x="170" y="1029" on="0"/>
      </contour>
      <contour>
        <pt x="362" y="992" on="1"/>
        <pt x="362" y="930" on="0"/>
        <pt x="305" y="930" on="1"/>
        <pt x="260" y="930" on="0"/>
        <pt x="260" y="968" on="1"/>
        <pt x="260" y="1029" on="0"/>
        <pt x="317" y="1029" on="1"/>
        <pt x="362" y="1029" on="0"/>
      </contour>
    </TTGlyph>
    <TTGlyph name="Igrave" xMin="57" yMin="-14" xMax="328" yMax="1074">
      <contour>
        <pt x="134" y="18" on="1"/>
        <pt x="130" y="-14" on="0"/>
        <pt x="57" y="-14" on="0"/>
        <pt x="57" y="14" on="1"/>
        <pt x="57" y="17" on="0"/>
        <pt x="158" y="840" on="1"/>
        <pt x="162" y="872" on="0"/>
        <pt x="236" y="872" on="0"/>
        <pt x="236" y="848" on="1"/>
        <pt x="236" y="845" on="0"/>
      </contour>
      <contour>
        <pt x="320" y="944" on="1"/>
        <pt x="328" y="939" on="0"/>
        <pt x="328" y="916" on="0"/>
        <pt x="314" y="900" on="0"/>
        <pt x="298" y="900" on="0"/>
        <pt x="294" y="902" on="1"/>
        <pt x="106" y="1001" on="1"/>
        <pt x="94" y="1008" on="0"/>
        <pt x="86" y="1019" on="0"/>
        <pt x="86" y="1046" on="0"/>
        <pt x="108" y="1074" on="0"/>
        <pt x="133" y="1074" on="0"/>
        <pt x="137" y="1071" on="1"/>
      </contour>
    </TTGlyph>
    <TTGlyph name="J" xMin="-113" yMin="-141" xMax="375" yMax="860">
      <contour>
        <pt x="188" y="-97" on="0"/>
        <pt x="76" y="-141" on="0"/>
        <pt x="15" y="-141" on="1"/>
        <pt x="-113" y="-141" on="0"/>
        <pt x="-113" y="-90" on="1"/>
        <pt x="-113" y="-78" on="0"/>
        <pt x="-96" y="-59" on="0"/>
        <pt x="-72" y="-59" on="0"/>
        <pt x="-35" y="-69" on="0"/>
        <pt x="-11" y="-69" on="1"/>
        <pt x="119" y="-69" on="0"/>
        <pt x="168" y="9" on="1"/>
        <pt x="194" y="49" on="0"/>
        <pt x="219" y="140" on="0"/>
        <pt x="227" y="209" on="1"/>
        <pt x="294" y="795" on="1"/>
        <pt x="41" y="795" on="1"/>
        <pt x="14" y="795" on="0"/>
        <pt x="14" y="826" on="1"/>
        <pt x="14" y="841" on="0"/>
        <pt x="30" y="860" on="0"/>
        <pt x="42" y="860" on="1"/>
        <pt x="343" y="860" on="1"/>
        <pt x="375" y="860" on="0"/>
        <pt x="375" y="834" on="1"/>
        <pt x="375" y="829" on="1"/>
        <pt x="302" y="189" on="1"/>
        <pt x="293" y="108" on="0"/>
        <pt x="257" y="-6" on="0"/>
      </contour>
    </TTGlyph>
    <TTGlyph name="K" xMin="57" yMin="-14" xMax="605" yMax="872">
      <contour>
        <pt x="236" y="848" on="1"/>
        <pt x="192" y="486" on="1"/>
        <pt x="239" y="486" on="1"/>
        <pt x="282" y="486" on="0"/>
        <pt x="371" y="534" on="0"/>
        <pt x="442" y="611" on="0"/>
        <pt x="470" y="658" on="1"/>
        <pt x="529" y="755" on="0"/>
        <pt x="529" y="841" on="1"/>
        <pt x="529" y="872" on="0"/>
        <pt x="605" y="872" on="0"/>
        <pt x="605" y="841" on="1"/>
        <pt x="605" y="734" on="0"/>
        <pt x="464" y="515" on="0"/>
        <pt x="365" y="465" on="1"/>
        <pt x="364" y="458" on="1"/>
        <pt x="429" y="431" on="0"/>
        <pt x="465" y="351" on="1"/>
        <pt x="485" y="306" on="0"/>
        <pt x="513" y="216" on="0"/>
        <pt x="518" y="202" on="1"/>
        <pt x="580" y="21" on="1"/>
        <pt x="581" y="18" on="0"/>
        <pt x="581" y="1" on="0"/>
        <pt x="558" y="-14" on="0"/>
        <pt x="510" y="-14" on="0"/>
        <pt x="503" y="8" on="1"/>
        <pt x="433" y="214" on="1"/>
        <pt x="428" y="228" on="0"/>
        <pt x="409" y="286" on="0"/>
        <pt x="401" y="308" on="0"/>
        <pt x="384" y="351" on="0"/>
        <pt x="371" y="368" on="0"/>
        <pt x="350" y="397" on="0"/>
        <pt x="327" y="408" on="0"/>
        <pt x="311" y="416" on="1"/>
        <pt x="286" y="427" on="0"/>
        <pt x="232" y="427" on="1"/>
        <pt x="184" y="427" on="1"/>
        <pt x="182" y="408" on="0"/>
        <pt x="146" y="117" on="0"/>
        <pt x="134" y="18" on="1"/>
        <pt x="130" y="-14" on="0"/>
        <pt x="57" y="-14" on="0"/>
        <pt x="57" y="14" on="1"/>
        <pt x="57" y="17" on="0"/>
        <pt x="158" y="840" on="1"/>
        <pt x="162" y="872" on="0"/>
        <pt x="236" y="872" on="0"/>
      </contour>
    </TTGlyph>
    <TTGlyph name="L" xMin="56" yMin="0" xMax="517" yMax="872">
      <contour>
        <pt x="490" y="64" on="1"/>
        <pt x="517" y="64" on="0"/>
        <pt x="517" y="34" on="1"/>
        <pt x="517" y="19" on="0"/>
        <pt x="501" y="0" on="0"/>
        <pt x="489" y="0" on="1"/>
        <pt x="88" y="0" on="1"/>
        <pt x="56" y="0" on="0"/>
        <pt x="56" y="25" on="1"/>
        <pt x="56" y="31" on="1"/>
        <pt x="153" y="840" on="1"/>
        <pt x="157" y="872" on="0"/>
        <pt x="230" y="872" on="0"/>
        <pt x="230" y="847" on="1"/>
        <pt x="230" y="840" on="1"/>
        <pt x="137" y="64" on="1"/>
      </contour>
    </TTGlyph>
    <TTGlyph name="Lslash" xMin="-1" yMin="0" xMax="517" yMax="872">
      <contour>
        <pt x="153" y="840" on="1"/>
        <pt x="157" y="872" on="0"/>
        <pt x="230" y="872" on="0"/>
        <pt x="230" y="847" on="1"/>
        <pt x="230" y="840" on="1"/>
        <pt x="185" y="468" on="1"/>
        <pt x="246" y="499" on="1"/>
        <pt x="262" y="507" on="0"/>
        <pt x="276" y="507" on="0"/>
        <pt x="291" y="485" on="0"/>
        <pt x="291" y="457" on="0"/>
        <pt x="277" y="450" on="1"/>
        <pt x="177" y="399" on="1"/>
        <pt x="137" y="64" on="1"/>
        <pt x="490" y="64" on="1"/>
        <pt x="517" y="64" on="0"/>
        <pt x="517" y="34" on="1"/>
        <pt x="517" y="19" on="0"/>
        <pt x="501" y="0" on="0"/>
        <pt x="489" y="0" on="1"/>
        <pt x="88" y="0" on="1"/>
        <pt x="56" y="0" on="0"/>
        <pt x="56" y="25" on="1"/>
        <pt x="56" y="31" on="1"/>
        <pt x="95" y="358" on="1"/>
        <pt x="44" y="332" on="1"/>
        <pt x="28" y="324" on="0"/>
        <pt x="14" y="324" on="0"/>
        <pt x="-1" y="346" on="0"/>
        <pt x="-1" y="374" on="0"/>
        <pt x="13" y="381" on="1"/>
        <pt x="103" y="426" on="1"/>
      </contour>
    </TTGlyph>
    <TTGlyph name="M" xMin="36" yMin="-14" xMax="806" yMax="874">
      <contour>
        <pt x="67" y="-14" on="1"/>
        <pt x="50" y="-14" on="0"/>
        <pt x="36" y="-5" on="0"/>
        <pt x="36" y="8" on="1"/>
        <pt x="36" y="15" on="1"/>
        <pt x="172" y="841" on="1"/>
        <pt x="178" y="874" on="0"/>
        <pt x="223" y="874" on="1"/>
        <pt x="234" y="874" on="1"/>
        <pt x="250" y="874" on="0"/>
        <pt x="276" y="856" on="0"/>
        <pt x="279" y="841" on="1"/>
        <pt x="409" y="144" on="1"/>
        <pt x="699" y="841" on="1"/>
        <pt x="711" y="872" on="0"/>
        <pt x="748" y="872" on="1"/>
        <pt x="766" y="872" on="1"/>
        <pt x="806" y="872" on="0"/>
        <pt x="806" y="841" on="1"/>
        <pt x="743" y="15" on="1"/>
        <pt x="740" y="-14" on="0"/>
        <pt x="701" y="-14" on="1"/>
        <pt x="683" y="-14" on="0"/>
        <pt x="668" y="-2" on="0"/>
        <pt x="668" y="15" on="1"/>
        <pt x="724" y="721" on="1"/>
        <pt x="445" y="28" on="1"/>
        <pt x="434" y="0" on="0"/>
        <pt x="399" y="0" on="1"/>
        <pt x="385" y="0" on="0"/>
        <pt x="357" y="13" on="0"/>
        <pt x="354" y="28" on="1"/>
        <pt x="225" y="724" on="1"/>
        <pt x="112" y="15" on="1"/>
        <pt x="107" y="-14" on="0"/>
      </contour>
    </TTGlyph>
    <TTGlyph name="N" xMin="57" yMin="-14" xMax="703" yMax="872">
      <contour>
        <pt x="132" y="6" on="0"/>
        <pt x="116" y="-14" on="0"/>
        <pt x="73" y="-14" on="0"/>
        <pt x="57" y="-3" on="0"/>
        <pt x="57" y="19" on="0"/>
        <pt x="59" y="39" on="1"/>
        <pt x="155" y="841" on="1"/>
        <pt x="159" y="872" on="0"/>
        <pt x="199" y="872" on="1"/>
        <pt x="221" y="872" on="1"/>
        <pt x="253" y="872" on="0"/>
        <pt x="262" y="847" on="1"/>
        <pt x="543" y="139" on="1"/>
        <pt x="624" y="819" on="1"/>
        <pt x="627" y="848" on="0"/>
        <pt x="636" y="867" on="0"/>
        <pt x="652" y="872" on="0"/>
        <pt x="687" y="872" on="0"/>
        <pt x="703" y="860" on="0"/>
        <pt x="703" y="839" on="0"/>
        <pt x="701" y="819" on="1"/>
        <pt x="603" y="17" on="1"/>
        <pt x="600" y="-14" on="0"/>
        <pt x="564" y="-14" on="1"/>
        <pt x="545" y="-14" on="1"/>
        <pt x="512" y="-14" on="0"/>
        <pt x="501" y="13" on="1"/>
        <pt x="218" y="727" on="1"/>
        <pt x="136" y="39" on="1"/>
      </contour>
    </TTGlyph>
    <TTGlyph name="Ntilde" xMin="57" yMin="-14" xMax="703" yMax="1031">
      <contour>
        <pt x="132" y="6" on="0"/>
        <pt x="116" y="-14" on="0"/>
        <pt x="73" y="-14" on="0"/>
        <pt x="57" y="-3" on="0"/>
        <pt x="57" y="19" on="0"/>
        <pt x="59" y="39" on="1"/>
        <pt x="155" y="841" on="1"/>
        <pt x="159" y="872" on="0"/>
        <pt x="199" y="872" on="1"/>
        <pt x="221" y="872" on="1"/>
        <pt x="253" y="872" on="0"/>
        <pt x="262" y="847" on="1"/>
        <pt x="543" y="139" on="1"/>
        <pt x="624" y="819" on="1"/>
        <pt x="627" y="848" on="0"/>
        <pt x="636" y="867" on="0"/>
        <pt x="652" y="872" on="0"/>
        <pt x="687" y="872" on="0"/>
        <pt x="703" y="860" on="0"/>
        <pt x="703" y="839" on="0"/>
        <pt x="701" y="819" on="1"/>
        <pt x="603" y="17" on="1"/>
        <pt x="600" y="-14" on="0"/>
        <pt x="564" y="-14" on="1"/>
        <pt x="545" y="-14" on="1"/>
        <pt x="512" y="-14" on="0"/>
        <pt x="501" y="13" on="1"/>
        <pt x="218" y="727" on="1"/>
        <pt x="136" y="39" on="1"/>
      </contour>
      <contour>
        <pt x="422" y="1031" on="0"/>
        <pt x="498" y="991" on="0"/>
        <pt x="541" y="991" on="0"/>
        <pt x="592" y="1031" on="0"/>
        <pt x="594" y="1031" on="1"/>
        <pt x="623" y="1031" on="0"/>
        <pt x="623" y="1000" on="1"/>
        <pt x="623" y="986" on="0"/>
        <pt x="551" y="922" on="0"/>
        <pt x="516" y="922" on="1"/>
        <pt x="497" y="922" on="0"/>
        <pt x="421" y="962" on="0"/>
        <pt x="378" y="962" on="0"/>
        <pt x="327" y="922" on="0"/>
        <pt x="325" y="922" on="1"/>
        <pt x="296" y="922" on="0"/>
        <pt x="296" y="953" on="1"/>
        <pt x="296" y="967" on="0"/>
        <pt x="368" y="1031" on="0"/>
        <pt x="403" y="1031" on="1"/>
      </contour>
    </TTGlyph>
    <TTGlyph name="O" xMin="42" yMin="-14" xMax="692" yMax="872">
      <contour>
        <pt x="663" y="727" on="0"/>
        <pt x="692" y="611" on="0"/>
        <pt x="692" y="480" on="0"/>
        <pt x="675" y="358" on="0"/>
        <pt x="639" y="232" on="0"/>
        <pt x="579" y="122" on="0"/>
        <pt x="499" y="36" on="0"/>
        <pt x="385" y="-14" on="0"/>
        <pt x="243" y="-14" on="0"/>
        <pt x="134" y="38" on="0"/>
        <pt x="102" y="85" on="1"/>
        <pt x="42" y="175" on="0"/>
        <pt x="42" y="321" on="1"/>
        <pt x="42" y="476" on="0"/>
        <pt x="94" y="612" on="1"/>
        <pt x="123" y="686" on="0"/>
        <pt x="206" y="800" on="0"/>
        <pt x="336" y="872" on="0"/>
        <pt x="491" y="872" on="0"/>
        <pt x="601" y="820" on="0"/>
      </contour>
      <contour>
        <pt x="330" y="50" on="1"/>
        <pt x="389" y="50" on="0"/>
        <pt x="491" y="122" on="0"/>
        <pt x="554" y="230" on="0"/>
        <pt x="575" y="299" on="1"/>
        <pt x="612" y="421" on="0"/>
        <pt x="612" y="546" on="1"/>
        <pt x="612" y="653" on="0"/>
        <pt x="568" y="728" on="1"/>
        <pt x="546" y="767" on="0"/>
        <pt x="464" y="811" on="0"/>
        <pt x="346" y="811" on="0"/>
        <pt x="244" y="739" on="0"/>
        <pt x="181" y="631" on="0"/>
        <pt x="160" y="562" on="1"/>
        <pt x="123" y="440" on="0"/>
        <pt x="123" y="315" on="1"/>
        <pt x="123" y="208" on="0"/>
        <pt x="166" y="133" on="1"/>
        <pt x="214" y="50" on="0"/>
      </contour>
    </TTGlyph>
    <TTGlyph name="OE" xMin="42" yMin="-14" xMax="995" yMax="872">
      <contour>
        <pt x="692" y="539" on="1"/>
        <pt x="692" y="516" on="0"/>
        <pt x="690" y="484" on="1"/>
        <pt x="886" y="484" on="1"/>
        <pt x="921" y="484" on="0"/>
        <pt x="921" y="458" on="1"/>
        <pt x="921" y="438" on="0"/>
        <pt x="904" y="421" on="0"/>
        <pt x="883" y="421" on="1"/>
        <pt x="683" y="421" on="1"/>
        <pt x="650" y="179" on="0"/>
        <pt x="523" y="64" on="1"/>
        <pt x="893" y="64" on="1"/>
        <pt x="919" y="64" on="0"/>
        <pt x="919" y="34" on="1"/>
        <pt x="919" y="19" on="0"/>
        <pt x="903" y="0" on="0"/>
        <pt x="891" y="0" on="1"/>
        <pt x="412" y="0" on="1"/>
        <pt x="367" y="-14" on="0"/>
        <pt x="243" y="-14" on="0"/>
        <pt x="134" y="38" on="0"/>
        <pt x="102" y="85" on="1"/>
        <pt x="42" y="175" on="0"/>
        <pt x="42" y="321" on="1"/>
        <pt x="42" y="476" on="0"/>
        <pt x="94" y="612" on="1"/>
        <pt x="123" y="686" on="0"/>
        <pt x="206" y="800" on="0"/>
        <pt x="336" y="872" on="0"/>
        <pt x="416" y="872" on="1"/>
        <pt x="467" y="872" on="0"/>
        <pt x="509" y="860" on="1"/>
        <pt x="964" y="860" on="1"/>
        <pt x="995" y="860" on="0"/>
        <pt x="995" y="833" on="1"/>
        <pt x="995" y="813" on="0"/>
        <pt x="979" y="797" on="0"/>
        <pt x="958" y="797" on="1"/>
        <pt x="613" y="797" on="1"/>
        <pt x="692" y="712" on="0"/>
      </contour>
      <contour>
        <pt x="330" y="50" on="1"/>
        <pt x="389" y="50" on="0"/>
        <pt x="491" y="122" on="0"/>
        <pt x="554" y="230" on="0"/>
        <pt x="575" y="299" on="1"/>
        <pt x="612" y="421" on="0"/>
        <pt x="612" y="546" on="1"/>
        <pt x="612" y="653" on="0"/>
        <pt x="568" y="728" on="1"/>
        <pt x="546" y="767" on="0"/>
        <pt x="464" y="811" on="0"/>
        <pt x="346" y="811" on="0"/>
        <pt x="244" y="739" on="0"/>
        <pt x="181" y="631" on="0"/>
        <pt x="160" y="562" on="1"/>
        <pt x="123" y="440" on="0"/>
        <pt x="123" y="315" on="1"/>
        <pt x="123" y="208" on="0"/>
        <pt x="166" y="133" on="1"/>
        <pt x="214" y="50" on="0"/>
      </contour>
    </TTGlyph>
    <TTGlyph name="Oacute" xMin="42" yMin="-14" xMax="692" yMax="1074">
      <contour>
        <pt x="663" y="727" on="0"/>
        <pt x="692" y="611" on="0"/>
        <pt x="692" y="480" on="0"/>
        <pt x="675" y="358" on="0"/>
        <pt x="639" y="232" on="0"/>
        <pt x="579" y="122" on="0"/>
        <pt x="499" y="36" on="0"/>
        <pt x="385" y="-14" on="0"/>
        <pt x="243" y="-14" on="0"/>
        <pt x="134" y="38" on="0"/>
        <pt x="102" y="85" on="1"/>
        <pt x="42" y="175" on="0"/>
        <pt x="42" y="321" on="1"/>
        <pt x="42" y="476" on="0"/>
        <pt x="94" y="612" on="1"/>
        <pt x="123" y="686" on="0"/>
        <pt x="206" y="800" on="0"/>
        <pt x="336" y="872" on="0"/>
        <pt x="491" y="872" on="0"/>
        <pt x="601" y="820" on="0"/>
      </contour>
      <contour>
        <pt x="330" y="50" on="1"/>
        <pt x="389" y="50" on="0"/>
        <pt x="491" y="122" on="0"/>
        <pt x="554" y="230" on="0"/>
        <pt x="575" y="299" on="1"/>
        <pt x="612" y="421" on="0"/>
        <pt x="612" y="546" on="1"/>
        <pt x="612" y="653" on="0"/>
        <pt x="568" y="728" on="1"/>
        <pt x="546" y="767" on="0"/>
        <pt x="464" y="811" on="0"/>
        <pt x="346" y="811" on="0"/>
        <pt x="244" y="739" on="0"/>
        <pt x="181" y="631" on="0"/>
        <pt x="160" y="562" on="1"/>
        <pt x="123" y="440" on="0"/>
        <pt x="123" y="315" on="1"/>
        <pt x="123" y="208" on="0"/>
        <pt x="166" y="133" on="1"/>
        <pt x="214" y="50" on="0"/>
      </contour>
      <contour>
        <pt x="516" y="1071" on="1"/>
        <pt x="522" y="1074" on="0"/>
        <pt x="544" y="1074" on="0"/>
        <pt x="567" y="1046" on="0"/>
        <pt x="567" y="1019" on="0"/>
        <pt x="559" y="1008" on="0"/>
        <pt x="547" y="1001" on="1"/>
        <pt x="359" y="902" on="1"/>
        <pt x="355" y="900" on="0"/>
        <pt x="339" y="900" on="0"/>
        <pt x="325" y="916" on="0"/>
        <pt x="325" y="939" on="0"/>
        <pt x="333" y="944" on="1"/>
      </contour>
    </TTGlyph>
    <TTGlyph name="Ocircumflex" xMin="42" yMin="-14" xMax="692" yMax="1086">
      <contour>
        <pt x="663" y="727" on="0"/>
        <pt x="692" y="611" on="0"/>
        <pt x="692" y="480" on="0"/>
        <pt x="675" y="358" on="0"/>
        <pt x="639" y="232" on="0"/>
        <pt x="579" y="122" on="0"/>
        <pt x="499" y="36" on="0"/>
        <pt x="385" y="-14" on="0"/>
        <pt x="243" y="-14" on="0"/>
        <pt x="134" y="38" on="0"/>
        <pt x="102" y="85" on="1"/>
        <pt x="42" y="175" on="0"/>
        <pt x="42" y="321" on="1"/>
        <pt x="42" y="476" on="0"/>
        <pt x="94" y="612" on="1"/>
        <pt x="123" y="686" on="0"/>
        <pt x="206" y="800" on="0"/>
        <pt x="336" y="872" on="0"/>
        <pt x="491" y="872" on="0"/>
        <pt x="601" y="820" on="0"/>
      </contour>
      <contour>
        <pt x="330" y="50" on="1"/>
        <pt x="389" y="50" on="0"/>
        <pt x="491" y="122" on="0"/>
        <pt x="554" y="230" on="0"/>
        <pt x="575" y="299" on="1"/>
        <pt x="612" y="421" on="0"/>
        <pt x="612" y="546" on="1"/>
        <pt x="612" y="653" on="0"/>
        <pt x="568" y="728" on="1"/>
        <pt x="546" y="767" on="0"/>
        <pt x="464" y="811" on="0"/>
        <pt x="346" y="811" on="0"/>
        <pt x="244" y="739" on="0"/>
        <pt x="181" y="631" on="0"/>
        <pt x="160" y="562" on="1"/>
        <pt x="123" y="440" on="0"/>
        <pt x="123" y="315" on="1"/>
        <pt x="123" y="208" on="0"/>
        <pt x="166" y="133" on="1"/>
        <pt x="214" y="50" on="0"/>
      </contour>
      <contour>
        <pt x="326" y="905" on="1"/>
        <pt x="321" y="900" on="0"/>
        <pt x="302" y="900" on="0"/>
        <pt x="287" y="915" on="0"/>
        <pt x="287" y="933" on="0"/>
        <pt x="291" y="939" on="1"/>
        <pt x="400" y="1055" on="1"/>
        <pt x="428" y="1086" on="0"/>
        <pt x="479" y="1086" on="0"/>
        <pt x="492" y="1063" on="1"/>
        <pt x="561" y="944" on="1"/>
        <pt x="567" y="934" on="0"/>
        <pt x="567" y="917" on="0"/>
        <pt x="547" y="899" on="0"/>
        <pt x="527" y="899" on="0"/>
        <pt x="517" y="912" on="1"/>
        <pt x="448" y="1002" on="1"/>
      </contour>
    </TTGlyph>
    <TTGlyph name="Odieresis" xMin="42" yMin="-14" xMax="692" yMax="1029">
      <contour>
        <pt x="663" y="727" on="0"/>
        <pt x="692" y="611" on="0"/>
        <pt x="692" y="480" on="0"/>
        <pt x="675" y="358" on="0"/>
        <pt x="639" y="232" on="0"/>
        <pt x="579" y="122" on="0"/>
        <pt x="499" y="36" on="0"/>
        <pt x="385" y="-14" on="0"/>
        <pt x="243" y="-14" on="0"/>
        <pt x="134" y="38" on="0"/>
        <pt x="102" y="85" on="1"/>
        <pt x="42" y="175" on="0"/>
        <pt x="42" y="321" on="1"/>
        <pt x="42" y="476" on="0"/>
        <pt x="94" y="612" on="1"/>
        <pt x="123" y="686" on="0"/>
        <pt x="206" y="800" on="0"/>
        <pt x="336" y="872" on="0"/>
        <pt x="491" y="872" on="0"/>
        <pt x="601" y="820" on="0"/>
      </contour>
      <contour>
        <pt x="330" y="50" on="1"/>
        <pt x="389" y="50" on="0"/>
        <pt x="491" y="122" on="0"/>
        <pt x="554" y="230" on="0"/>
        <pt x="575" y="299" on="1"/>
        <pt x="612" y="421" on="0"/>
        <pt x="612" y="546" on="1"/>
        <pt x="612" y="653" on="0"/>
        <pt x="568" y="728" on="1"/>
        <pt x="546" y="767" on="0"/>
        <pt x="464" y="811" on="0"/>
        <pt x="346" y="811" on="0"/>
        <pt x="244" y="739" on="0"/>
        <pt x="181" y="631" on="0"/>
        <pt x="160" y="562" on="1"/>
        <pt x="123" y="440" on="0"/>
        <pt x="123" y="315" on="1"/>
        <pt x="123" y="208" on="0"/>
        <pt x="166" y="133" on="1"/>
        <pt x="214" y="50" on="0"/>
      </contour>
      <contour>
        <pt x="391" y="992" on="1"/>
        <pt x="391" y="930" on="0"/>
        <pt x="334" y="930" on="1"/>
        <pt x="289" y="930" on="0"/>
        <pt x="289" y="968" on="1"/>
        <pt x="289" y="1029" on="0"/>
        <pt x="346" y="1029" on="1"/>
        <pt x="391" y="1029" on="0"/>
      </contour>
      <contour>
        <pt x="583" y="992" on="1"/>
        <pt x="583" y="930" on="0"/>
        <pt x="526" y="930" on="1"/>
        <pt x="481" y="930" on="0"/>
        <pt x="481" y="968" on="1"/>
        <pt x="481" y="1029" on="0"/>
        <pt x="538" y="1029" on="1"/>
        <pt x="583" y="1029" on="0"/>
      </contour>
    </TTGlyph>
    <TTGlyph name="Ograve" xMin="42" yMin="-14" xMax="692" yMax="1074">
      <contour>
        <pt x="663" y="727" on="0"/>
        <pt x="692" y="611" on="0"/>
        <pt x="692" y="480" on="0"/>
        <pt x="675" y="358" on="0"/>
        <pt x="639" y="232" on="0"/>
        <pt x="579" y="122" on="0"/>
        <pt x="499" y="36" on="0"/>
        <pt x="385" y="-14" on="0"/>
        <pt x="243" y="-14" on="0"/>
        <pt x="134" y="38" on="0"/>
        <pt x="102" y="85" on="1"/>
        <pt x="42" y="175" on="0"/>
        <pt x="42" y="321" on="1"/>
        <pt x="42" y="476" on="0"/>
        <pt x="94" y="612" on="1"/>
        <pt x="123" y="686" on="0"/>
        <pt x="206" y="800" on="0"/>
        <pt x="336" y="872" on="0"/>
        <pt x="491" y="872" on="0"/>
        <pt x="601" y="820" on="0"/>
      </contour>
      <contour>
        <pt x="330" y="50" on="1"/>
        <pt x="389" y="50" on="0"/>
        <pt x="491" y="122" on="0"/>
        <pt x="554" y="230" on="0"/>
        <pt x="575" y="299" on="1"/>
        <pt x="612" y="421" on="0"/>
        <pt x="612" y="546" on="1"/>
        <pt x="612" y="653" on="0"/>
        <pt x="568" y="728" on="1"/>
        <pt x="546" y="767" on="0"/>
        <pt x="464" y="811" on="0"/>
        <pt x="346" y="811" on="0"/>
        <pt x="244" y="739" on="0"/>
        <pt x="181" y="631" on="0"/>
        <pt x="160" y="562" on="1"/>
        <pt x="123" y="440" on="0"/>
        <pt x="123" y="315" on="1"/>
        <pt x="123" y="208" on="0"/>
        <pt x="166" y="133" on="1"/>
        <pt x="214" y="50" on="0"/>
      </contour>
      <contour>
        <pt x="530" y="944" on="1"/>
        <pt x="538" y="939" on="0"/>
        <pt x="538" y="916" on="0"/>
        <pt x="524" y="900" on="0"/>
        <pt x="508" y="900" on="0"/>
        <pt x="504" y="902" on="1"/>
        <pt x="316" y="1001" on="1"/>
        <pt x="304" y="1008" on="0"/>
        <pt x="296" y="1019" on="0"/>
        <pt x="296" y="1046" on="0"/>
        <pt x="318" y="1074" on="0"/>
        <pt x="343" y="1074" on="0"/>
        <pt x="347" y="1071" on="1"/>
      </contour>
    </TTGlyph>
    <TTGlyph name="Omega" xMin="40" yMin="0" xMax="743" yMax="872">
      <contour>
        <pt x="630" y="381" on="0"/>
        <pt x="660" y="516" on="0"/>
        <pt x="660" y="615" on="0"/>
        <pt x="646" y="674" on="0"/>
        <pt x="612" y="733" on="0"/>
        <pt x="586" y="755" on="1"/>
        <pt x="529" y="805" on="0"/>
        <pt x="435" y="805" on="1"/>
        <pt x="366" y="805" on="0"/>
        <pt x="262" y="731" on="0"/>
        <pt x="235" y="673" on="1"/>
        <pt x="182" y="559" on="0"/>
        <pt x="182" y="439" on="1"/>
        <pt x="182" y="254" on="0"/>
        <pt x="293" y="212" on="1"/>
        <pt x="267" y="35" on="1"/>
        <pt x="262" y="0" on="0"/>
        <pt x="228" y="0" on="1"/>
        <pt x="75" y="0" on="1"/>
        <pt x="40" y="0" on="0"/>
        <pt x="40" y="31" on="1"/>
        <pt x="40" y="47" on="0"/>
        <pt x="61" y="66" on="0"/>
        <pt x="79" y="66" on="1"/>
        <pt x="195" y="66" on="1"/>
        <pt x="211" y="177" on="1"/>
        <pt x="98" y="243" on="0"/>
        <pt x="98" y="456" on="1"/>
        <pt x="98" y="576" on="0"/>
        <pt x="146" y="678" on="1"/>
        <pt x="172" y="734" on="0"/>
        <pt x="247" y="819" on="0"/>
        <pt x="363" y="872" on="0"/>
        <pt x="514" y="872" on="0"/>
        <pt x="637" y="820" on="0"/>
        <pt x="672" y="776" on="1"/>
        <pt x="743" y="687" on="0"/>
        <pt x="743" y="459" on="0"/>
        <pt x="648" y="241" on="0"/>
        <pt x="559" y="183" on="1"/>
        <pt x="549" y="66" on="1"/>
        <pt x="670" y="66" on="1"/>
        <pt x="705" y="66" on="0"/>
        <pt x="705" y="35" on="1"/>
        <pt x="705" y="19" on="0"/>
        <pt x="684" y="0" on="0"/>
        <pt x="666" y="0" on="1"/>
        <pt x="501" y="0" on="1"/>
        <pt x="466" y="0" on="0"/>
        <pt x="466" y="25" on="1"/>
        <pt x="466" y="37" on="0"/>
        <pt x="468" y="55" on="1"/>
        <pt x="482" y="212" on="1"/>
        <pt x="546" y="245" on="0"/>
      </contour>
    </TTGlyph>
    <TTGlyph name="Oslash" xMin="42" yMin="-108" xMax="692" yMax="966">
      <contour>
        <pt x="416" y="872" on="1"/>
        <pt x="444" y="871" on="1"/>
        <pt x="461" y="936" on="1"/>
        <pt x="469" y="966" on="0"/>
        <pt x="510" y="966" on="1"/>
        <pt x="537" y="966" on="0"/>
        <pt x="537" y="947" on="1"/>
        <pt x="537" y="941" on="0"/>
        <pt x="532" y="923" on="1"/>
        <pt x="515" y="858" on="1"/>
        <pt x="692" y="801" on="0"/>
        <pt x="692" y="539" on="1"/>
        <pt x="692" y="418" on="0"/>
        <pt x="657" y="295" on="1"/>
        <pt x="620" y="166" on="0"/>
        <pt x="539" y="79" on="1"/>
        <pt x="499" y="36" on="0"/>
        <pt x="385" y="-14" on="0"/>
        <pt x="318" y="-14" on="1"/>
        <pt x="290" y="-13" on="1"/>
        <pt x="273" y="-79" on="1"/>
        <pt x="265" y="-108" on="0"/>
        <pt x="221" y="-108" on="1"/>
        <pt x="197" y="-108" on="0"/>
        <pt x="197" y="-92" on="1"/>
        <pt x="197" y="-88" on="0"/>
        <pt x="202" y="-70" on="1"/>
        <pt x="220" y="0" on="1"/>
        <pt x="42" y="56" on="0"/>
        <pt x="42" y="321" on="1"/>
        <pt x="42" y="476" on="0"/>
        <pt x="94" y="612" on="1"/>
        <pt x="123" y="686" on="0"/>
        <pt x="206" y="800" on="0"/>
        <pt x="336" y="872" on="0"/>
      </contour>
      <contour>
        <pt x="123" y="315" on="1"/>
        <pt x="123" y="123" on="0"/>
        <pt x="237" y="68" on="1"/>
        <pt x="428" y="810" on="1"/>
        <pt x="422" y="811" on="0"/>
        <pt x="409" y="811" on="1"/>
        <pt x="346" y="811" on="0"/>
        <pt x="244" y="739" on="0"/>
        <pt x="181" y="631" on="0"/>
        <pt x="160" y="562" on="1"/>
        <pt x="123" y="440" on="0"/>
      </contour>
      <contour>
        <pt x="326" y="50" on="1"/>
        <pt x="389" y="50" on="0"/>
        <pt x="491" y="122" on="0"/>
        <pt x="554" y="230" on="0"/>
        <pt x="575" y="299" on="1"/>
        <pt x="612" y="421" on="0"/>
        <pt x="612" y="526" on="1"/>
        <pt x="612" y="736" on="0"/>
        <pt x="498" y="792" on="1"/>
        <pt x="306" y="50" on="1"/>
      </contour>
    </TTGlyph>
    <TTGlyph name="Otilde" xMin="42" yMin="-14" xMax="692" yMax="1031">
      <contour>
        <pt x="663" y="727" on="0"/>
        <pt x="692" y="611" on="0"/>
        <pt x="692" y="480" on="0"/>
        <pt x="675" y="358" on="0"/>
        <pt x="639" y="232" on="0"/>
        <pt x="579" y="122" on="0"/>
        <pt x="499" y="36" on="0"/>
        <pt x="385" y="-14" on="0"/>
        <pt x="243" y="-14" on="0"/>
        <pt x="134" y="38" on="0"/>
        <pt x="102" y="85" on="1"/>
        <pt x="42" y="175" on="0"/>
        <pt x="42" y="321" on="1"/>
        <pt x="42" y="476" on="0"/>
        <pt x="94" y="612" on="1"/>
        <pt x="123" y="686" on="0"/>
        <pt x="206" y="800" on="0"/>
        <pt x="336" y="872" on="0"/>
        <pt x="491" y="872" on="0"/>
        <pt x="601" y="820" on="0"/>
      </contour>
      <contour>
        <pt x="330" y="50" on="1"/>
        <pt x="389" y="50" on="0"/>
        <pt x="491" y="122" on="0"/>
        <pt x="554" y="230" on="0"/>
        <pt x="575" y="299" on="1"/>
        <pt x="612" y="421" on="0"/>
        <pt x="612" y="546" on="1"/>
        <pt x="612" y="653" on="0"/>
        <pt x="568" y="728" on="1"/>
        <pt x="546" y="767" on="0"/>
        <pt x="464" y="811" on="0"/>
        <pt x="346" y="811" on="0"/>
        <pt x="244" y="739" on="0"/>
        <pt x="181" y="631" on="0"/>
        <pt x="160" y="562" on="1"/>
        <pt x="123" y="440" on="0"/>
        <pt x="123" y="315" on="1"/>
        <pt x="123" y="208" on="0"/>
        <pt x="166" y="133" on="1"/>
        <pt x="214" y="50" on="0"/>
      </contour>
      <contour>
        <pt x="396" y="1031" on="0"/>
        <pt x="472" y="991" on="0"/>
        <pt x="515" y="991" on="0"/>
        <pt x="566" y="1031" on="0"/>
        <pt x="568" y="1031" on="1"/>
        <pt x="597" y="1031" on="0"/>
        <pt x="597" y="1000" on="1"/>
        <pt x="597" y="986" on="0"/>
        <pt x="525" y="922" on="0"/>
        <pt x="490" y="922" on="1"/>
        <pt x="471" y="922" on="0"/>
        <pt x="395" y="962" on="0"/>
        <pt x="352" y="962" on="0"/>
        <pt x="301" y="922" on="0"/>
        <pt x="299" y="922" on="1"/>
        <pt x="270" y="922" on="0"/>
        <pt x="270" y="953" on="1"/>
        <pt x="270" y="967" on="0"/>
        <pt x="342" y="1031" on="0"/>
        <pt x="377" y="1031" on="1"/>
      </contour>
    </TTGlyph>
    <TTGlyph name="P" xMin="57" yMin="-14" xMax="640" yMax="872">
      <contour>
        <pt x="134" y="18" on="1"/>
        <pt x="130" y="-14" on="0"/>
        <pt x="57" y="-14" on="0"/>
        <pt x="57" y="11" on="1"/>
        <pt x="57" y="13" on="0"/>
        <pt x="158" y="833" on="1"/>
        <pt x="161" y="853" on="0"/>
        <pt x="188" y="857" on="1"/>
        <pt x="323" y="872" on="0"/>
        <pt x="377" y="872" on="1"/>
        <pt x="498" y="872" on="0"/>
        <pt x="640" y="760" on="0"/>
        <pt x="640" y="654" on="1"/>
        <pt x="640" y="579" on="0"/>
        <pt x="569" y="465" on="0"/>
        <pt x="508" y="432" on="1"/>
        <pt x="388" y="367" on="0"/>
        <pt x="215" y="367" on="1"/>
        <pt x="189" y="367" on="0"/>
        <pt x="176" y="368" on="1"/>
      </contour>
      <contour>
        <pt x="559" y="654" on="1"/>
        <pt x="559" y="730" on="0"/>
        <pt x="462" y="809" on="0"/>
        <pt x="306" y="809" on="0"/>
        <pt x="230" y="799" on="1"/>
        <pt x="186" y="437" on="1"/>
        <pt x="559" y="437" on="0"/>
      </contour>
    </TTGlyph>
    <TTGlyph name="Q" xMin="39" yMin="-127" xMax="689" yMax="872">
      <contour>
        <pt x="689" y="398" on="0"/>
        <pt x="596" y="122" on="0"/>
        <pt x="501" y="48" on="1"/>
        <pt x="591" y="-39" on="1"/>
        <pt x="615" y="-62" on="0"/>
        <pt x="627" y="-78" on="0"/>
        <pt x="627" y="-106" on="0"/>
        <pt x="601" y="-127" on="0"/>
        <pt x="573" y="-127" on="0"/>
        <pt x="539" y="-94" on="1"/>
        <pt x="433" y="8" on="1"/>
        <pt x="378" y="-14" on="0"/>
        <pt x="240" y="-14" on="0"/>
        <pt x="131" y="38" on="0"/>
        <pt x="100" y="85" on="1"/>
        <pt x="39" y="175" on="0"/>
        <pt x="39" y="321" on="1"/>
        <pt x="39" y="476" on="0"/>
        <pt x="92" y="612" on="1"/>
        <pt x="120" y="686" on="0"/>
        <pt x="203" y="800" on="0"/>
        <pt x="333" y="872" on="0"/>
        <pt x="488" y="872" on="0"/>
        <pt x="598" y="820" on="0"/>
        <pt x="629" y="774" on="1"/>
        <pt x="689" y="684" on="0"/>
      </contour>
      <contour>
        <pt x="186" y="94" on="0"/>
        <pt x="268" y="50" on="0"/>
        <pt x="354" y="50" on="0"/>
        <pt x="381" y="59" on="1"/>
        <pt x="332" y="106" on="1"/>
        <pt x="294" y="144" on="0"/>
        <pt x="294" y="177" on="0"/>
        <pt x="319" y="199" on="0"/>
        <pt x="343" y="199" on="0"/>
        <pt x="364" y="183" on="0"/>
        <pt x="389" y="158" on="1"/>
        <pt x="452" y="97" on="1"/>
        <pt x="507" y="141" on="0"/>
        <pt x="544" y="227" on="1"/>
        <pt x="609" y="375" on="0"/>
        <pt x="609" y="546" on="1"/>
        <pt x="609" y="653" on="0"/>
        <pt x="566" y="728" on="1"/>
        <pt x="543" y="767" on="0"/>
        <pt x="461" y="811" on="0"/>
        <pt x="343" y="811" on="0"/>
        <pt x="241" y="739" on="0"/>
        <pt x="178" y="631" on="0"/>
        <pt x="157" y="562" on="1"/>
        <pt x="120" y="440" on="0"/>
        <pt x="120" y="315" on="1"/>
        <pt x="120" y="208" on="0"/>
        <pt x="164" y="133" on="1"/>
      </contour>
    </TTGlyph>
    <TTGlyph name="R" xMin="57" yMin="-14" xMax="645" yMax="872">
      <contour>
        <pt x="94" y="-14" on="1"/>
        <pt x="57" y="-14" on="0"/>
        <pt x="57" y="11" on="1"/>
        <pt x="57" y="15" on="1"/>
        <pt x="158" y="834" on="1"/>
        <pt x="161" y="854" on="0"/>
        <pt x="185" y="857" on="1"/>
        <pt x="259" y="872" on="0"/>
        <pt x="501" y="872" on="0"/>
        <pt x="641" y="774" on="0"/>
        <pt x="641" y="678" on="1"/>
        <pt x="641" y="597" on="0"/>
        <pt x="527" y="477" on="0"/>
        <pt x="428" y="458" on="1"/>
        <pt x="494" y="430" on="0"/>
        <pt x="530" y="350" on="1"/>
        <pt x="547" y="310" on="0"/>
        <pt x="578" y="213" on="0"/>
        <pt x="582" y="202" on="1"/>
        <pt x="644" y="21" on="1"/>
        <pt x="645" y="18" on="0"/>
        <pt x="645" y="1" on="0"/>
        <pt x="622" y="-14" on="0"/>
        <pt x="605" y="-14" on="1"/>
        <pt x="574" y="-14" on="0"/>
        <pt x="567" y="8" on="1"/>
        <pt x="497" y="214" on="1"/>
        <pt x="470" y="294" on="0"/>
        <pt x="427" y="385" on="0"/>
        <pt x="368" y="423" on="0"/>
        <pt x="297" y="423" on="1"/>
        <pt x="183" y="423" on="1"/>
        <pt x="133" y="13" on="1"/>
        <pt x="131" y="-2" on="0"/>
        <pt x="113" y="-14" on="0"/>
      </contour>
      <contour>
        <pt x="309" y="489" on="1"/>
        <pt x="389" y="489" on="0"/>
        <pt x="469" y="531" on="1"/>
        <pt x="509" y="552" on="0"/>
        <pt x="560" y="628" on="0"/>
        <pt x="560" y="676" on="1"/>
        <pt x="560" y="739" on="0"/>
        <pt x="455" y="811" on="0"/>
        <pt x="297" y="811" on="0"/>
        <pt x="230" y="799" on="1"/>
        <pt x="192" y="489" on="1"/>
      </contour>
    </TTGlyph>
    <TTGlyph name="S" xMin="17" yMin="-14" xMax="568" yMax="872">
      <contour>
        <pt x="368" y="872" on="1"/>
        <pt x="442" y="872" on="0"/>
        <pt x="568" y="800" on="0"/>
        <pt x="568" y="731" on="0"/>
        <pt x="540" y="731" on="1"/>
        <pt x="522" y="731" on="0"/>
        <pt x="478" y="770" on="1"/>
        <pt x="461" y="785" on="0"/>
        <pt x="397" y="809" on="0"/>
        <pt x="358" y="809" on="1"/>
        <pt x="284" y="809" on="0"/>
        <pt x="193" y="728" on="0"/>
        <pt x="193" y="659" on="1"/>
        <pt x="193" y="584" on="0"/>
        <pt x="309" y="499" on="1"/>
        <pt x="357" y="464" on="0"/>
        <pt x="453" y="388" on="0"/>
        <pt x="521" y="284" on="0"/>
        <pt x="521" y="225" on="1"/>
        <pt x="521" y="114" on="0"/>
        <pt x="376" y="-14" on="0"/>
        <pt x="148" y="-14" on="0"/>
        <pt x="76" y="48" on="1"/>
        <pt x="52" y="68" on="0"/>
        <pt x="17" y="127" on="0"/>
        <pt x="17" y="148" on="1"/>
        <pt x="17" y="189" on="0"/>
        <pt x="49" y="189" on="1"/>
        <pt x="60" y="189" on="0"/>
        <pt x="75" y="174" on="0"/>
        <pt x="94" y="134" on="0"/>
        <pt x="99" y="126" on="1"/>
        <pt x="152" y="50" on="0"/>
        <pt x="255" y="50" on="1"/>
        <pt x="337" y="50" on="0"/>
        <pt x="441" y="145" on="0"/>
        <pt x="441" y="221" on="1"/>
        <pt x="441" y="300" on="0"/>
        <pt x="325" y="387" on="1"/>
        <pt x="277" y="423" on="0"/>
        <pt x="180" y="499" on="0"/>
        <pt x="112" y="600" on="0"/>
        <pt x="112" y="657" on="1"/>
        <pt x="112" y="759" on="0"/>
        <pt x="257" y="872" on="0"/>
      </contour>
    </TTGlyph>
    <TTGlyph name="Scaron" xMin="17" yMin="-14" xMax="568" yMax="1086">
      <contour>
        <pt x="368" y="872" on="1"/>
        <pt x="442" y="872" on="0"/>
        <pt x="568" y="800" on="0"/>
        <pt x="568" y="731" on="0"/>
        <pt x="540" y="731" on="1"/>
        <pt x="522" y="731" on="0"/>
        <pt x="478" y="770" on="1"/>
        <pt x="461" y="785" on="0"/>
        <pt x="397" y="809" on="0"/>
        <pt x="358" y="809" on="1"/>
        <pt x="284" y="809" on="0"/>
        <pt x="193" y="728" on="0"/>
        <pt x="193" y="659" on="1"/>
        <pt x="193" y="584" on="0"/>
        <pt x="309" y="499" on="1"/>
        <pt x="357" y="464" on="0"/>
        <pt x="453" y="388" on="0"/>
        <pt x="521" y="284" on="0"/>
        <pt x="521" y="225" on="1"/>
        <pt x="521" y="114" on="0"/>
        <pt x="376" y="-14" on="0"/>
        <pt x="148" y="-14" on="0"/>
        <pt x="76" y="48" on="1"/>
        <pt x="52" y="68" on="0"/>
        <pt x="17" y="127" on="0"/>
        <pt x="17" y="148" on="1"/>
        <pt x="17" y="189" on="0"/>
        <pt x="49" y="189" on="1"/>
        <pt x="60" y="189" on="0"/>
        <pt x="75" y="174" on="0"/>
        <pt x="94" y="134" on="0"/>
        <pt x="99" y="126" on="1"/>
        <pt x="152" y="50" on="0"/>
        <pt x="255" y="50" on="1"/>
        <pt x="337" y="50" on="0"/>
        <pt x="441" y="145" on="0"/>
        <pt x="441" y="221" on="1"/>
        <pt x="441" y="300" on="0"/>
        <pt x="325" y="387" on="1"/>
        <pt x="277" y="423" on="0"/>
        <pt x="180" y="499" on="0"/>
        <pt x="112" y="600" on="0"/>
        <pt x="112" y="657" on="1"/>
        <pt x="112" y="759" on="0"/>
        <pt x="257" y="872" on="0"/>
      </contour>
      <contour>
        <pt x="477" y="1080" on="1"/>
        <pt x="482" y="1085" on="0"/>
        <pt x="501" y="1085" on="0"/>
        <pt x="516" y="1070" on="0"/>
        <pt x="516" y="1052" on="0"/>
        <pt x="512" y="1046" on="1"/>
        <pt x="403" y="930" on="1"/>
        <pt x="375" y="899" on="0"/>
        <pt x="324" y="899" on="0"/>
        <pt x="311" y="922" on="1"/>
        <pt x="242" y="1041" on="1"/>
        <pt x="236" y="1051" on="0"/>
        <pt x="236" y="1068" on="0"/>
        <pt x="256" y="1086" on="0"/>
        <pt x="276" y="1086" on="0"/>
        <pt x="286" y="1073" on="1"/>
        <pt x="355" y="983" on="1"/>
      </contour>
    </TTGlyph>
    <TTGlyph name="T" xMin="36" yMin="-14" xMax="564" yMax="860">
      <contour>
        <pt x="528" y="797" on="1"/>
        <pt x="335" y="797" on="1"/>
        <pt x="239" y="18" on="1"/>
        <pt x="235" y="-14" on="0"/>
        <pt x="162" y="-14" on="0"/>
        <pt x="162" y="14" on="1"/>
        <pt x="162" y="18" on="0"/>
        <pt x="258" y="797" on="1"/>
        <pt x="69" y="797" on="1"/>
        <pt x="36" y="797" on="0"/>
        <pt x="36" y="823" on="1"/>
        <pt x="36" y="860" on="0"/>
        <pt x="73" y="860" on="1"/>
        <pt x="532" y="860" on="1"/>
        <pt x="564" y="860" on="0"/>
        <pt x="564" y="833" on="1"/>
        <pt x="564" y="797" on="0"/>
      </contour>
    </TTGlyph>
    <TTGlyph name="Thorn" xMin="57" yMin="-14" xMax="619" yMax="872">
      <contour>
        <pt x="134" y="18" on="1"/>
        <pt x="130" y="-14" on="0"/>
        <pt x="57" y="-14" on="0"/>
        <pt x="57" y="14" on="1"/>
        <pt x="57" y="17" on="0"/>
        <pt x="158" y="840" on="1"/>
        <pt x="162" y="872" on="0"/>
        <pt x="236" y="872" on="0"/>
        <pt x="236" y="848" on="1"/>
        <pt x="236" y="843" on="0"/>
        <pt x="217" y="694" on="1"/>
        <pt x="300" y="703" on="0"/>
        <pt x="356" y="703" on="1"/>
        <pt x="477" y="703" on="0"/>
        <pt x="619" y="591" on="0"/>
        <pt x="619" y="485" on="1"/>
        <pt x="619" y="410" on="0"/>
        <pt x="548" y="296" on="0"/>
        <pt x="487" y="263" on="1"/>
        <pt x="367" y="198" on="0"/>
        <pt x="194" y="198" on="1"/>
        <pt x="169" y="198" on="0"/>
        <pt x="156" y="199" on="1"/>
      </contour>
      <contour>
        <pt x="538" y="485" on="1"/>
        <pt x="538" y="561" on="0"/>
        <pt x="441" y="640" on="0"/>
        <pt x="285" y="640" on="0"/>
        <pt x="209" y="630" on="1"/>
        <pt x="165" y="268" on="1"/>
        <pt x="538" y="268" on="0"/>
      </contour>
    </TTGlyph>
    <TTGlyph name="U" xMin="56" yMin="-14" xMax="675" yMax="872">
      <contour>
        <pt x="134" y="872" on="0"/>
        <pt x="204" y="872" on="0"/>
        <pt x="204" y="846" on="1"/>
        <pt x="141" y="322" on="1"/>
        <pt x="134" y="262" on="0"/>
        <pt x="134" y="228" on="1"/>
        <pt x="134" y="141" on="0"/>
        <pt x="213" y="52" on="0"/>
        <pt x="311" y="52" on="1"/>
        <pt x="375" y="52" on="0"/>
        <pt x="458" y="88" on="0"/>
        <pt x="505" y="168" on="0"/>
        <pt x="526" y="252" on="0"/>
        <pt x="535" y="322" on="1"/>
        <pt x="599" y="846" on="1"/>
        <pt x="604" y="872" on="0"/>
        <pt x="675" y="872" on="0"/>
        <pt x="675" y="846" on="1"/>
        <pt x="612" y="322" on="1"/>
        <pt x="601" y="235" on="0"/>
        <pt x="567" y="121" on="0"/>
        <pt x="534" y="75" on="1"/>
        <pt x="469" y="-14" on="0"/>
        <pt x="302" y="-14" on="1"/>
        <pt x="168" y="-14" on="0"/>
        <pt x="56" y="107" on="0"/>
        <pt x="56" y="225" on="1"/>
        <pt x="56" y="261" on="0"/>
        <pt x="63" y="322" on="1"/>
        <pt x="129" y="846" on="1"/>
      </contour>
    </TTGlyph>
    <TTGlyph name="Uacute" xMin="56" yMin="-14" xMax="675" yMax="1074">
      <contour>
        <pt x="134" y="872" on="0"/>
        <pt x="204" y="872" on="0"/>
        <pt x="204" y="846" on="1"/>
        <pt x="141" y="322" on="1"/>
        <pt x="134" y="262" on="0"/>
        <pt x="134" y="228" on="1"/>
        <pt x="134" y="141" on="0"/>
        <pt x="213" y="52" on="0"/>
        <pt x="311" y="52" on="1"/>
        <pt x="375" y="52" on="0"/>
        <pt x="458" y="88" on="0"/>
        <pt x="505" y="168" on="0"/>
        <pt x="526" y="252" on="0"/>
        <pt x="535" y="322" on="1"/>
        <pt x="599" y="846" on="1"/>
        <pt x="604" y="872" on="0"/>
        <pt x="675" y="872" on="0"/>
        <pt x="675" y="846" on="1"/>
        <pt x="612" y="322" on="1"/>
        <pt x="601" y="235" on="0"/>
        <pt x="567" y="121" on="0"/>
        <pt x="534" y="75" on="1"/>
        <pt x="469" y="-14" on="0"/>
        <pt x="302" y="-14" on="1"/>
        <pt x="168" y="-14" on="0"/>
        <pt x="56" y="107" on="0"/>
        <pt x="56" y="225" on="1"/>
        <pt x="56" y="261" on="0"/>
        <pt x="63" y="322" on="1"/>
        <pt x="129" y="846" on="1"/>
      </contour>
      <contour>
        <pt x="502" y="1071" on="1"/>
        <pt x="508" y="1074" on="0"/>
        <pt x="530" y="1074" on="0"/>
        <pt x="553" y="1046" on="0"/>
        <pt x="553" y="1019" on="0"/>
        <pt x="545" y="1008" on="0"/>
        <pt x="533" y="1001" on="1"/>
        <pt x="345" y="902" on="1"/>
        <pt x="341" y="900" on="0"/>
        <pt x="325" y="900" on="0"/>
        <pt x="311" y="916" on="0"/>
        <pt x="311" y="939" on="0"/>
        <pt x="319" y="944" on="1"/>
      </contour>
    </TTGlyph>
    <TTGlyph name="Ucircumflex" xMin="56" yMin="-14" xMax="675" yMax="1086">
      <contour>
        <pt x="134" y="872" on="0"/>
        <pt x="204" y="872" on="0"/>
        <pt x="204" y="846" on="1"/>
        <pt x="141" y="322" on="1"/>
        <pt x="134" y="262" on="0"/>
        <pt x="134" y="228" on="1"/>
        <pt x="134" y="141" on="0"/>
        <pt x="213" y="52" on="0"/>
        <pt x="311" y="52" on="1"/>
        <pt x="375" y="52" on="0"/>
        <pt x="458" y="88" on="0"/>
        <pt x="505" y="168" on="0"/>
        <pt x="526" y="252" on="0"/>
        <pt x="535" y="322" on="1"/>
        <pt x="599" y="846" on="1"/>
        <pt x="604" y="872" on="0"/>
        <pt x="675" y="872" on="0"/>
        <pt x="675" y="846" on="1"/>
        <pt x="612" y="322" on="1"/>
        <pt x="601" y="235" on="0"/>
        <pt x="567" y="121" on="0"/>
        <pt x="534" y="75" on="1"/>
        <pt x="469" y="-14" on="0"/>
        <pt x="302" y="-14" on="1"/>
        <pt x="168" y="-14" on="0"/>
        <pt x="56" y="107" on="0"/>
        <pt x="56" y="225" on="1"/>
        <pt x="56" y="261" on="0"/>
        <pt x="63" y="322" on="1"/>
        <pt x="129" y="846" on="1"/>
      </contour>
      <contour>
        <pt x="315" y="905" on="1"/>
        <pt x="310" y="900" on="0"/>
        <pt x="291" y="900" on="0"/>
        <pt x="276" y="915" on="0"/>
        <pt x="276" y="933" on="0"/>
        <pt x="280" y="939" on="1"/>
        <pt x="389" y="1055" on="1"/>
        <pt x="417" y="1086" on="0"/>
        <pt x="468" y="1086" on="0"/>
        <pt x="481" y="1063" on="1"/>
        <pt x="550" y="944" on="1"/>
        <pt x="556" y="934" on="0"/>
        <pt x="556" y="917" on="0"/>
        <pt x="536" y="899" on="0"/>
        <pt x="516" y="899" on="0"/>
        <pt x="506" y="912" on="1"/>
        <pt x="437" y="1002" on="1"/>
      </contour>
    </TTGlyph>
    <TTGlyph name="Udieresis" xMin="56" yMin="-14" xMax="675" yMax="1029">
      <contour>
        <pt x="134" y="872" on="0"/>
        <pt x="204" y="872" on="0"/>
        <pt x="204" y="846" on="1"/>
        <pt x="141" y="322" on="1"/>
        <pt x="134" y="262" on="0"/>
        <pt x="134" y="228" on="1"/>
        <pt x="134" y="141" on="0"/>
        <pt x="213" y="52" on="0"/>
        <pt x="311" y="52" on="1"/>
        <pt x="375" y="52" on="0"/>
        <pt x="458" y="88" on="0"/>
        <pt x="505" y="168" on="0"/>
        <pt x="526" y="252" on="0"/>
        <pt x="535" y="322" on="1"/>
        <pt x="599" y="846" on="1"/>
        <pt x="604" y="872" on="0"/>
        <pt x="675" y="872" on="0"/>
        <pt x="675" y="846" on="1"/>
        <pt x="612" y="322" on="1"/>
        <pt x="601" y="235" on="0"/>
        <pt x="567" y="121" on="0"/>
        <pt x="534" y="75" on="1"/>
        <pt x="469" y="-14" on="0"/>
        <pt x="302" y="-14" on="1"/>
        <pt x="168" y="-14" on="0"/>
        <pt x="56" y="107" on="0"/>
        <pt x="56" y="225" on="1"/>
        <pt x="56" y="261" on="0"/>
        <pt x="63" y="322" on="1"/>
        <pt x="129" y="846" on="1"/>
      </contour>
      <contour>
        <pt x="377" y="992" on="1"/>
        <pt x="377" y="930" on="0"/>
        <pt x="320" y="930" on="1"/>
        <pt x="275" y="930" on="0"/>
        <pt x="275" y="968" on="1"/>
        <pt x="275" y="1029" on="0"/>
        <pt x="332" y="1029" on="1"/>
        <pt x="377" y="1029" on="0"/>
      </contour>
      <contour>
        <pt x="569" y="992" on="1"/>
        <pt x="569" y="930" on="0"/>
        <pt x="512" y="930" on="1"/>
        <pt x="467" y="930" on="0"/>
        <pt x="467" y="968" on="1"/>
        <pt x="467" y="1029" on="0"/>
        <pt x="524" y="1029" on="1"/>
        <pt x="569" y="1029" on="0"/>
      </contour>
    </TTGlyph>
    <TTGlyph name="Ugrave" xMin="56" yMin="-14" xMax="675" yMax="1074">
      <contour>
        <pt x="134" y="872" on="0"/>
        <pt x="204" y="872" on="0"/>
        <pt x="204" y="846" on="1"/>
        <pt x="141" y="322" on="1"/>
        <pt x="134" y="262" on="0"/>
        <pt x="134" y="228" on="1"/>
        <pt x="134" y="141" on="0"/>
        <pt x="213" y="52" on="0"/>
        <pt x="311" y="52" on="1"/>
        <pt x="375" y="52" on="0"/>
        <pt x="458" y="88" on="0"/>
        <pt x="505" y="168" on="0"/>
        <pt x="526" y="252" on="0"/>
        <pt x="535" y="322" on="1"/>
        <pt x="599" y="846" on="1"/>
        <pt x="604" y="872" on="0"/>
        <pt x="675" y="872" on="0"/>
        <pt x="675" y="846" on="1"/>
        <pt x="612" y="322" on="1"/>
        <pt x="601" y="235" on="0"/>
        <pt x="567" y="121" on="0"/>
        <pt x="534" y="75" on="1"/>
        <pt x="469" y="-14" on="0"/>
        <pt x="302" y="-14" on="1"/>
        <pt x="168" y="-14" on="0"/>
        <pt x="56" y="107" on="0"/>
        <pt x="56" y="225" on="1"/>
        <pt x="56" y="261" on="0"/>
        <pt x="63" y="322" on="1"/>
        <pt x="129" y="846" on="1"/>
      </contour>
      <contour>
        <pt x="513" y="944" on="1"/>
        <pt x="521" y="939" on="0"/>
        <pt x="521" y="916" on="0"/>
        <pt x="507" y="900" on="0"/>
        <pt x="491" y="900" on="0"/>
        <pt x="487" y="902" on="1"/>
        <pt x="299" y="1001" on="1"/>
        <pt x="287" y="1008" on="0"/>
        <pt x="279" y="1019" on="0"/>
        <pt x="279" y="1046" on="0"/>
        <pt x="301" y="1074" on="0"/>
        <pt x="326" y="1074" on="0"/>
        <pt x="330" y="1071" on="1"/>
      </contour>
    </TTGlyph>
    <TTGlyph name="V" xMin="66" yMin="-14" xMax="645" yMax="872">
      <contour>
        <pt x="67" y="839" on="1"/>
        <pt x="66" y="847" on="1"/>
        <pt x="66" y="872" on="0"/>
        <pt x="104" y="872" on="1"/>
        <pt x="124" y="872" on="0"/>
        <pt x="144" y="860" on="0"/>
        <pt x="147" y="843" on="1"/>
        <pt x="260" y="99" on="1"/>
        <pt x="542" y="778" on="1"/>
        <pt x="545" y="786" on="0"/>
        <pt x="560" y="822" on="0"/>
        <pt x="568" y="842" on="0"/>
        <pt x="574" y="853" on="1"/>
        <pt x="586" y="872" on="0"/>
        <pt x="616" y="872" on="0"/>
        <pt x="645" y="856" on="0"/>
        <pt x="645" y="823" on="0"/>
        <pt x="601" y="720" on="1"/>
        <pt x="305" y="15" on="1"/>
        <pt x="293" y="-14" on="0"/>
        <pt x="205" y="-14" on="0"/>
        <pt x="199" y="15" on="1"/>
      </contour>
    </TTGlyph>
    <TTGlyph name="W" xMin="66" yMin="-14" xMax="986" yMax="872">
      <contour>
        <pt x="67" y="839" on="1"/>
        <pt x="66" y="847" on="1"/>
        <pt x="66" y="872" on="0"/>
        <pt x="104" y="872" on="1"/>
        <pt x="124" y="872" on="0"/>
        <pt x="144" y="860" on="0"/>
        <pt x="147" y="843" on="1"/>
        <pt x="260" y="99" on="1"/>
        <pt x="487" y="841" on="1"/>
        <pt x="496" y="872" on="0"/>
        <pt x="521" y="872" on="1"/>
        <pt x="525" y="872" on="1"/>
        <pt x="545" y="872" on="0"/>
        <pt x="565" y="860" on="0"/>
        <pt x="568" y="843" on="1"/>
        <pt x="682" y="99" on="1"/>
        <pt x="910" y="844" on="1"/>
        <pt x="910" y="845" on="0"/>
        <pt x="913" y="853" on="0"/>
        <pt x="914" y="856" on="0"/>
        <pt x="918" y="863" on="0"/>
        <pt x="921" y="866" on="0"/>
        <pt x="924" y="868" on="1"/>
        <pt x="928" y="872" on="0"/>
        <pt x="955" y="872" on="0"/>
        <pt x="986" y="856" on="0"/>
        <pt x="986" y="839" on="1"/>
        <pt x="986" y="835" on="0"/>
        <pt x="949" y="717" on="1"/>
        <pt x="727" y="15" on="1"/>
        <pt x="714" y="-14" on="0"/>
        <pt x="628" y="-14" on="0"/>
        <pt x="620" y="15" on="1"/>
        <pt x="512" y="692" on="1"/>
        <pt x="305" y="15" on="1"/>
        <pt x="292" y="-14" on="0"/>
        <pt x="205" y="-14" on="0"/>
        <pt x="199" y="15" on="1"/>
      </contour>
    </TTGlyph>
    <TTGlyph name="X" xMin="-41" yMin="-14" xMax="650" yMax="872">
      <contour>
        <pt x="108" y="847" on="1"/>
        <pt x="108" y="872" on="0"/>
        <pt x="148" y="872" on="1"/>
        <pt x="167" y="872" on="0"/>
        <pt x="187" y="860" on="0"/>
        <pt x="195" y="843" on="1"/>
        <pt x="332" y="521" on="1"/>
        <pt x="571" y="846" on="1"/>
        <pt x="591" y="872" on="0"/>
        <pt x="615" y="872" on="1"/>
        <pt x="650" y="872" on="0"/>
        <pt x="650" y="839" on="1"/>
        <pt x="650" y="827" on="0"/>
        <pt x="641" y="816" on="1"/>
        <pt x="364" y="454" on="1"/>
        <pt x="518" y="99" on="1"/>
        <pt x="547" y="33" on="0"/>
        <pt x="547" y="3" on="0"/>
        <pt x="527" y="-14" on="0"/>
        <pt x="489" y="-14" on="0"/>
        <pt x="469" y="12" on="0"/>
        <pt x="448" y="62" on="1"/>
        <pt x="312" y="385" on="1"/>
        <pt x="41" y="15" on="1"/>
        <pt x="20" y="-14" on="0"/>
        <pt x="-6" y="-14" on="1"/>
        <pt x="-20" y="-14" on="0"/>
        <pt x="-41" y="5" on="0"/>
        <pt x="-41" y="33" on="0"/>
        <pt x="-31" y="45" on="1"/>
        <pt x="280" y="455" on="1"/>
        <pt x="108" y="843" on="0"/>
      </contour>
    </TTGlyph>
    <TTGlyph name="Y" xMin="59" yMin="-14" xMax="634" yMax="872">
      <contour>
        <pt x="60" y="839" on="1"/>
        <pt x="59" y="847" on="1"/>
        <pt x="59" y="872" on="0"/>
        <pt x="99" y="872" on="1"/>
        <pt x="118" y="872" on="0"/>
        <pt x="136" y="860" on="0"/>
        <pt x="143" y="843" on="1"/>
        <pt x="284" y="473" on="1"/>
        <pt x="556" y="854" on="1"/>
        <pt x="569" y="872" on="0"/>
        <pt x="595" y="872" on="1"/>
        <pt x="634" y="872" on="0"/>
        <pt x="634" y="844" on="1"/>
        <pt x="634" y="826" on="0"/>
        <pt x="623" y="812" on="1"/>
        <pt x="312" y="393" on="1"/>
        <pt x="265" y="18" on="1"/>
        <pt x="261" y="-14" on="0"/>
        <pt x="188" y="-14" on="0"/>
        <pt x="188" y="9" on="1"/>
        <pt x="188" y="16" on="0"/>
        <pt x="189" y="24" on="1"/>
        <pt x="234" y="396" on="1"/>
      </contour>
    </TTGlyph>
    <TTGlyph name="Yacute" xMin="59" yMin="-14" xMax="634" yMax="1074">
      <contour>
        <pt x="60" y="839" on="1"/>
        <pt x="59" y="847" on="1"/>
        <pt x="59" y="872" on="0"/>
        <pt x="99" y="872" on="1"/>
        <pt x="118" y="872" on="0"/>
        <pt x="136" y="860" on="0"/>
        <pt x="143" y="843" on="1"/>
        <pt x="284" y="473" on="1"/>
        <pt x="556" y="854" on="1"/>
        <pt x="569" y="872" on="0"/>
        <pt x="595" y="872" on="1"/>
        <pt x="634" y="872" on="0"/>
        <pt x="634" y="844" on="1"/>
        <pt x="634" y="826" on="0"/>
        <pt x="623" y="812" on="1"/>
        <pt x="312" y="393" on="1"/>
        <pt x="265" y="18" on="1"/>
        <pt x="261" y="-14" on="0"/>
        <pt x="188" y="-14" on="0"/>
        <pt x="188" y="9" on="1"/>
        <pt x="188" y="16" on="0"/>
        <pt x="189" y="24" on="1"/>
        <pt x="234" y="396" on="1"/>
      </contour>
      <contour>
        <pt x="450" y="1071" on="1"/>
        <pt x="456" y="1074" on="0"/>
        <pt x="478" y="1074" on="0"/>
        <pt x="501" y="1046" on="0"/>
        <pt x="501" y="1019" on="0"/>
        <pt x="493" y="1008" on="0"/>
        <pt x="481" y="1001" on="1"/>
        <pt x="293" y="902" on="1"/>
        <pt x="289" y="900" on="0"/>
        <pt x="273" y="900" on="0"/>
        <pt x="259" y="916" on="0"/>
        <pt x="259" y="939" on="0"/>
        <pt x="267" y="944" on="1"/>
      </contour>
    </TTGlyph>
    <TTGlyph name="Ydieresis" xMin="59" yMin="-14" xMax="634" yMax="1029">
      <contour>
        <pt x="60" y="839" on="1"/>
        <pt x="59" y="847" on="1"/>
        <pt x="59" y="872" on="0"/>
        <pt x="99" y="872" on="1"/>
        <pt x="118" y="872" on="0"/>
        <pt x="136" y="860" on="0"/>
        <pt x="143" y="843" on="1"/>
        <pt x="284" y="473" on="1"/>
        <pt x="556" y="854" on="1"/>
        <pt x="569" y="872" on="0"/>
        <pt x="595" y="872" on="1"/>
        <pt x="634" y="872" on="0"/>
        <pt x="634" y="844" on="1"/>
        <pt x="634" y="826" on="0"/>
        <pt x="623" y="812" on="1"/>
        <pt x="312" y="393" on="1"/>
        <pt x="265" y="18" on="1"/>
        <pt x="261" y="-14" on="0"/>
        <pt x="188" y="-14" on="0"/>
        <pt x="188" y="9" on="1"/>
        <pt x="188" y="16" on="0"/>
        <pt x="189" y="24" on="1"/>
        <pt x="234" y="396" on="1"/>
      </contour>
      <contour>
        <pt x="332" y="992" on="1"/>
        <pt x="332" y="930" on="0"/>
        <pt x="275" y="930" on="1"/>
        <pt x="230" y="930" on="0"/>
        <pt x="230" y="968" on="1"/>
        <pt x="230" y="1029" on="0"/>
        <pt x="287" y="1029" on="1"/>
        <pt x="332" y="1029" on="0"/>
      </contour>
      <contour>
        <pt x="524" y="992" on="1"/>
        <pt x="524" y="930" on="0"/>
        <pt x="467" y="930" on="1"/>
        <pt x="422" y="930" on="0"/>
        <pt x="422" y="968" on="1"/>
        <pt x="422" y="1029" on="0"/>
        <pt x="479" y="1029" on="1"/>
        <pt x="524" y="1029" on="0"/>
      </contour>
    </TTGlyph>
    <TTGlyph name="Z" xMin="17" yMin="0" xMax="589" yMax="860">
      <contour>
        <pt x="119" y="797" on="1"/>
        <pt x="87" y="797" on="0"/>
        <pt x="87" y="823" on="1"/>
        <pt x="87" y="860" on="0"/>
        <pt x="123" y="860" on="1"/>
        <pt x="557" y="860" on="1"/>
        <pt x="589" y="860" on="0"/>
        <pt x="589" y="833" on="1"/>
        <pt x="589" y="819" on="0"/>
        <pt x="584" y="811" on="1"/>
        <pt x="119" y="63" on="1"/>
        <pt x="539" y="63" on="1"/>
        <pt x="571" y="63" on="0"/>
        <pt x="571" y="36" on="1"/>
        <pt x="571" y="0" on="0"/>
        <pt x="535" y="0" on="1"/>
        <pt x="49" y="0" on="1"/>
        <pt x="17" y="0" on="0"/>
        <pt x="17" y="27" on="1"/>
        <pt x="17" y="34" on="0"/>
        <pt x="22" y="49" on="1"/>
        <pt x="388" y="639" on="0"/>
        <pt x="489" y="795" on="0"/>
        <pt x="490" y="797" on="1"/>
      </contour>
    </TTGlyph>
    <TTGlyph name="Zcaron" xMin="17" yMin="0" xMax="589" yMax="1086">
      <contour>
        <pt x="119" y="797" on="1"/>
        <pt x="87" y="797" on="0"/>
        <pt x="87" y="823" on="1"/>
        <pt x="87" y="860" on="0"/>
        <pt x="123" y="860" on="1"/>
        <pt x="557" y="860" on="1"/>
        <pt x="589" y="860" on="0"/>
        <pt x="589" y="833" on="1"/>
        <pt x="589" y="819" on="0"/>
        <pt x="584" y="811" on="1"/>
        <pt x="119" y="63" on="1"/>
        <pt x="539" y="63" on="1"/>
        <pt x="571" y="63" on="0"/>
        <pt x="571" y="36" on="1"/>
        <pt x="571" y="0" on="0"/>
        <pt x="535" y="0" on="1"/>
        <pt x="49" y="0" on="1"/>
        <pt x="17" y="0" on="0"/>
        <pt x="17" y="27" on="1"/>
        <pt x="17" y="34" on="0"/>
        <pt x="22" y="49" on="1"/>
        <pt x="388" y="639" on="0"/>
        <pt x="489" y="795" on="0"/>
        <pt x="490" y="797" on="1"/>
      </contour>
      <contour>
        <pt x="470" y="1080" on="1"/>
        <pt x="475" y="1085" on="0"/>
        <pt x="494" y="1085" on="0"/>
        <pt x="509" y="1070" on="0"/>
        <pt x="509" y="1052" on="0"/>
        <pt x="505" y="1046" on="1"/>
        <pt x="396" y="930" on="1"/>
        <pt x="368" y="899" on="0"/>
        <pt x="317" y="899" on="0"/>
        <pt x="304" y="922" on="1"/>
        <pt x="235" y="1041" on="1"/>
        <pt x="229" y="1051" on="0"/>
        <pt x="229" y="1068" on="0"/>
        <pt x="249" y="1086" on="0"/>
        <pt x="269" y="1086" on="0"/>
        <pt x="279" y="1073" on="1"/>
        <pt x="348" y="983" on="1"/>
      </contour>
    </TTGlyph>
    <TTGlyph name="a" xMin="38" yMin="-14" xMax="448" yMax="507">
      <contour>
        <pt x="117" y="123" on="1"/>
        <pt x="117" y="93" on="0"/>
        <pt x="158" y="52" on="0"/>
        <pt x="192" y="52" on="1"/>
        <pt x="254" y="52" on="0"/>
        <pt x="340" y="177" on="0"/>
        <pt x="353" y="256" on="1"/>
        <pt x="225" y="246" on="0"/>
        <pt x="117" y="178" on="0"/>
      </contour>
      <contour>
        <pt x="448" y="392" on="1"/>
        <pt x="448" y="365" on="0"/>
        <pt x="411" y="152" on="0"/>
        <pt x="411" y="72" on="0"/>
        <pt x="422" y="20" on="0"/>
        <pt x="422" y="14" on="1"/>
        <pt x="422" y="2" on="0"/>
        <pt x="382" y="-14" on="0"/>
        <pt x="364" y="-14" on="1"/>
        <pt x="342" y="-14" on="0"/>
        <pt x="342" y="76" on="1"/>
        <pt x="342" y="102" on="1"/>
        <pt x="313" y="45" on="0"/>
        <pt x="217" y="-14" on="0"/>
        <pt x="111" y="-14" on="0"/>
        <pt x="38" y="50" on="0"/>
        <pt x="38" y="108" on="1"/>
        <pt x="38" y="191" on="0"/>
        <pt x="191" y="305" on="0"/>
        <pt x="366" y="316" on="1"/>
        <pt x="371" y="346" on="0"/>
        <pt x="371" y="378" on="1"/>
        <pt x="371" y="440" on="0"/>
        <pt x="279" y="440" on="1"/>
        <pt x="233" y="440" on="0"/>
        <pt x="138" y="402" on="0"/>
        <pt x="136" y="402" on="1"/>
        <pt x="123" y="402" on="0"/>
        <pt x="107" y="433" on="0"/>
        <pt x="107" y="467" on="0"/>
        <pt x="231" y="507" on="0"/>
        <pt x="353" y="507" on="0"/>
        <pt x="448" y="452" on="0"/>
      </contour>
    </TTGlyph>
    <TTGlyph name="aacute" xMin="53" yMin="-14" xMax="463" yMax="806">
      <contour>
        <pt x="132" y="123" on="1"/>
        <pt x="132" y="93" on="0"/>
        <pt x="173" y="52" on="0"/>
        <pt x="207" y="52" on="1"/>
        <pt x="269" y="52" on="0"/>
        <pt x="355" y="177" on="0"/>
        <pt x="368" y="256" on="1"/>
        <pt x="240" y="246" on="0"/>
        <pt x="132" y="178" on="0"/>
      </contour>
      <contour>
        <pt x="463" y="392" on="1"/>
        <pt x="463" y="365" on="0"/>
        <pt x="426" y="152" on="0"/>
        <pt x="426" y="72" on="0"/>
        <pt x="437" y="20" on="0"/>
        <pt x="437" y="14" on="1"/>
        <pt x="437" y="2" on="0"/>
        <pt x="397" y="-14" on="0"/>
        <pt x="379" y="-14" on="1"/>
        <pt x="357" y="-14" on="0"/>
        <pt x="357" y="76" on="1"/>
        <pt x="357" y="102" on="1"/>
        <pt x="328" y="45" on="0"/>
        <pt x="232" y="-14" on="0"/>
        <pt x="126" y="-14" on="0"/>
        <pt x="53" y="50" on="0"/>
        <pt x="53" y="108" on="1"/>
        <pt x="53" y="191" on="0"/>
        <pt x="206" y="305" on="0"/>
        <pt x="381" y="316" on="1"/>
        <pt x="386" y="346" on="0"/>
        <pt x="386" y="378" on="1"/>
        <pt x="386" y="440" on="0"/>
        <pt x="294" y="440" on="1"/>
        <pt x="248" y="440" on="0"/>
        <pt x="153" y="402" on="0"/>
        <pt x="151" y="402" on="1"/>
        <pt x="138" y="402" on="0"/>
        <pt x="122" y="433" on="0"/>
        <pt x="122" y="467" on="0"/>
        <pt x="246" y="507" on="0"/>
        <pt x="368" y="507" on="0"/>
        <pt x="463" y="452" on="0"/>
      </contour>
      <contour>
        <pt x="358" y="799" on="1"/>
        <pt x="364" y="806" on="0"/>
        <pt x="393" y="806" on="0"/>
        <pt x="419" y="781" on="0"/>
        <pt x="419" y="752" on="0"/>
        <pt x="406" y="740" on="1"/>
        <pt x="256" y="603" on="1"/>
        <pt x="251" y="598" on="0"/>
        <pt x="232" y="598" on="0"/>
        <pt x="217" y="613" on="0"/>
        <pt x="217" y="631" on="0"/>
        <pt x="221" y="637" on="1"/>
      </contour>
    </TTGlyph>
    <TTGlyph name="acircumflex" xMin="38" yMin="-14" xMax="449" yMax="806">
      <contour>
        <pt x="117" y="123" on="1"/>
        <pt x="117" y="93" on="0"/>
        <pt x="158" y="52" on="0"/>
        <pt x="192" y="52" on="1"/>
        <pt x="254" y="52" on="0"/>
        <pt x="340" y="177" on="0"/>
        <pt x="353" y="256" on="1"/>
        <pt x="225" y="246" on="0"/>
        <pt x="117" y="178" on="0"/>
      </contour>
      <contour>
        <pt x="448" y="392" on="1"/>
        <pt x="448" y="365" on="0"/>
        <pt x="411" y="152" on="0"/>
        <pt x="411" y="72" on="0"/>
        <pt x="422" y="20" on="0"/>
        <pt x="422" y="14" on="1"/>
        <pt x="422" y="2" on="0"/>
        <pt x="382" y="-14" on="0"/>
        <pt x="364" y="-14" on="1"/>
        <pt x="342" y="-14" on="0"/>
        <pt x="342" y="76" on="1"/>
        <pt x="342" y="102" on="1"/>
        <pt x="313" y="45" on="0"/>
        <pt x="217" y="-14" on="0"/>
        <pt x="111" y="-14" on="0"/>
        <pt x="38" y="50" on="0"/>
        <pt x="38" y="108" on="1"/>
        <pt x="38" y="191" on="0"/>
        <pt x="191" y="305" on="0"/>
        <pt x="366" y="316" on="1"/>
        <pt x="371" y="346" on="0"/>
        <pt x="371" y="378" on="1"/>
        <pt x="371" y="440" on="0"/>
        <pt x="279" y="440" on="1"/>
        <pt x="233" y="440" on="0"/>
        <pt x="138" y="402" on="0"/>
        <pt x="136" y="402" on="1"/>
        <pt x="123" y="402" on="0"/>
        <pt x="107" y="433" on="0"/>
        <pt x="107" y="467" on="0"/>
        <pt x="231" y="507" on="0"/>
        <pt x="353" y="507" on="0"/>
        <pt x="448" y="452" on="0"/>
      </contour>
      <contour>
        <pt x="184" y="603" on="1"/>
        <pt x="179" y="598" on="0"/>
        <pt x="160" y="598" on="0"/>
        <pt x="145" y="613" on="0"/>
        <pt x="145" y="631" on="0"/>
        <pt x="149" y="637" on="1"/>
        <pt x="266" y="775" on="1"/>
        <pt x="267" y="776" on="0"/>
        <pt x="274" y="785" on="0"/>
        <pt x="279" y="790" on="0"/>
        <pt x="288" y="798" on="0"/>
        <pt x="292" y="800" on="1"/>
        <pt x="306" y="806" on="0"/>
        <pt x="317" y="806" on="1"/>
        <pt x="345" y="806" on="0"/>
        <pt x="358" y="783" on="1"/>
        <pt x="443" y="643" on="1"/>
        <pt x="449" y="633" on="0"/>
        <pt x="449" y="616" on="0"/>
        <pt x="429" y="598" on="0"/>
        <pt x="409" y="598" on="0"/>
        <pt x="399" y="611" on="1"/>
        <pt x="314" y="722" on="1"/>
      </contour>
    </TTGlyph>
    <TTGlyph name="acute" xMin="50" yMin="598" xMax="252" yMax="806">
      <contour>
        <pt x="191" y="799" on="1"/>
        <pt x="197" y="806" on="0"/>
        <pt x="226" y="806" on="0"/>
        <pt x="252" y="781" on="0"/>
        <pt x="252" y="752" on="0"/>
        <pt x="239" y="740" on="1"/>
        <pt x="89" y="603" on="1"/>
        <pt x="84" y="598" on="0"/>
        <pt x="65" y="598" on="0"/>
        <pt x="50" y="613" on="0"/>
        <pt x="50" y="631" on="0"/>
        <pt x="54" y="637" on="1"/>
      </contour>
    </TTGlyph>
    <TTGlyph name="acute.case" xMin="32" yMin="900" xMax="274" yMax="1074">
      <contour>
        <pt x="223" y="1071" on="1"/>
        <pt x="229" y="1074" on="0"/>
        <pt x="251" y="1074" on="0"/>
        <pt x="274" y="1046" on="0"/>
        <pt x="274" y="1019" on="0"/>
        <pt x="266" y="1008" on="0"/>
        <pt x="254" y="1001" on="1"/>
        <pt x="66" y="902" on="1"/>
        <pt x="62" y="900" on="0"/>
        <pt x="46" y="900" on="0"/>
        <pt x="32" y="916" on="0"/>
        <pt x="32" y="939" on="0"/>
        <pt x="40" y="944" on="1"/>
      </contour>
    </TTGlyph>
    <TTGlyph name="adieresis" xMin="53" yMin="-14" xMax="478" yMax="729">
      <contour>
        <pt x="132" y="123" on="1"/>
        <pt x="132" y="93" on="0"/>
        <pt x="173" y="52" on="0"/>
        <pt x="207" y="52" on="1"/>
        <pt x="269" y="52" on="0"/>
        <pt x="355" y="177" on="0"/>
        <pt x="368" y="256" on="1"/>
        <pt x="240" y="246" on="0"/>
        <pt x="132" y="178" on="0"/>
      </contour>
      <contour>
        <pt x="463" y="392" on="1"/>
        <pt x="463" y="365" on="0"/>
        <pt x="426" y="152" on="0"/>
        <pt x="426" y="72" on="0"/>
        <pt x="437" y="20" on="0"/>
        <pt x="437" y="14" on="1"/>
        <pt x="437" y="2" on="0"/>
        <pt x="397" y="-14" on="0"/>
        <pt x="379" y="-14" on="1"/>
        <pt x="357" y="-14" on="0"/>
        <pt x="357" y="76" on="1"/>
        <pt x="357" y="102" on="1"/>
        <pt x="328" y="45" on="0"/>
        <pt x="232" y="-14" on="0"/>
        <pt x="126" y="-14" on="0"/>
        <pt x="53" y="50" on="0"/>
        <pt x="53" y="108" on="1"/>
        <pt x="53" y="191" on="0"/>
        <pt x="206" y="305" on="0"/>
        <pt x="381" y="316" on="1"/>
        <pt x="386" y="346" on="0"/>
        <pt x="386" y="378" on="1"/>
        <pt x="386" y="440" on="0"/>
        <pt x="294" y="440" on="1"/>
        <pt x="248" y="440" on="0"/>
        <pt x="153" y="402" on="0"/>
        <pt x="151" y="402" on="1"/>
        <pt x="138" y="402" on="0"/>
        <pt x="122" y="433" on="0"/>
        <pt x="122" y="467" on="0"/>
        <pt x="246" y="507" on="0"/>
        <pt x="368" y="507" on="0"/>
        <pt x="463" y="452" on="0"/>
      </contour>
      <contour>
        <pt x="286" y="692" on="1"/>
        <pt x="286" y="630" on="0"/>
        <pt x="229" y="630" on="1"/>
        <pt x="184" y="630" on="0"/>
        <pt x="184" y="668" on="1"/>
        <pt x="184" y="729" on="0"/>
        <pt x="241" y="729" on="1"/>
        <pt x="286" y="729" on="0"/>
      </contour>
      <contour>
        <pt x="478" y="692" on="1"/>
        <pt x="478" y="630" on="0"/>
        <pt x="421" y="630" on="1"/>
        <pt x="376" y="630" on="0"/>
        <pt x="376" y="668" on="1"/>
        <pt x="376" y="729" on="0"/>
        <pt x="433" y="729" on="1"/>
        <pt x="478" y="729" on="0"/>
      </contour>
    </TTGlyph>
    <TTGlyph name="ae" xMin="38" yMin="-14" xMax="749" yMax="507">
      <contour>
        <pt x="564" y="-14" on="1"/>
        <pt x="402" y="-14" on="0"/>
        <pt x="369" y="128" on="1"/>
        <pt x="330" y="62" on="0"/>
        <pt x="225" y="-14" on="0"/>
        <pt x="111" y="-14" on="0"/>
        <pt x="38" y="50" on="0"/>
        <pt x="38" y="177" on="0"/>
        <pt x="147" y="290" on="0"/>
        <pt x="248" y="290" on="1"/>
        <pt x="301" y="290" on="0"/>
        <pt x="357" y="276" on="1"/>
        <pt x="371" y="360" on="0"/>
        <pt x="371" y="378" on="1"/>
        <pt x="371" y="440" on="0"/>
        <pt x="279" y="440" on="1"/>
        <pt x="233" y="440" on="0"/>
        <pt x="138" y="402" on="0"/>
        <pt x="136" y="402" on="1"/>
        <pt x="123" y="402" on="0"/>
        <pt x="107" y="433" on="0"/>
        <pt x="107" y="467" on="0"/>
        <pt x="231" y="507" on="0"/>
        <pt x="282" y="507" on="1"/>
        <pt x="418" y="507" on="0"/>
        <pt x="435" y="418" on="1"/>
        <pt x="474" y="461" on="0"/>
        <pt x="575" y="507" on="0"/>
        <pt x="679" y="507" on="0"/>
        <pt x="749" y="454" on="0"/>
        <pt x="749" y="405" on="1"/>
        <pt x="749" y="317" on="0"/>
        <pt x="571" y="213" on="0"/>
        <pt x="432" y="213" on="1"/>
        <pt x="432" y="137" on="0"/>
        <pt x="502" y="48" on="0"/>
        <pt x="568" y="48" on="1"/>
        <pt x="599" y="48" on="0"/>
        <pt x="657" y="74" on="0"/>
        <pt x="674" y="88" on="1"/>
        <pt x="691" y="101" on="1"/>
        <pt x="702" y="101" on="0"/>
        <pt x="718" y="71" on="0"/>
        <pt x="718" y="56" on="1"/>
        <pt x="718" y="38" on="0"/>
        <pt x="613" y="-14" on="0"/>
      </contour>
      <contour>
        <pt x="351" y="223" on="1"/>
        <pt x="303" y="235" on="0"/>
        <pt x="198" y="235" on="0"/>
        <pt x="117" y="182" on="0"/>
        <pt x="117" y="123" on="1"/>
        <pt x="117" y="93" on="0"/>
        <pt x="158" y="52" on="0"/>
        <pt x="192" y="52" on="1"/>
        <pt x="253" y="52" on="0"/>
        <pt x="337" y="161" on="0"/>
      </contour>
      <contour>
        <pt x="676" y="395" on="1"/>
        <pt x="676" y="420" on="0"/>
        <pt x="645" y="447" on="0"/>
        <pt x="620" y="447" on="1"/>
        <pt x="566" y="447" on="0"/>
        <pt x="450" y="348" on="0"/>
        <pt x="436" y="265" on="1"/>
        <pt x="529" y="265" on="0"/>
        <pt x="676" y="339" on="0"/>
      </contour>
    </TTGlyph>
    <TTGlyph name="agrave" xMin="53" yMin="-14" xMax="463" yMax="806">
      <contour>
        <pt x="132" y="123" on="1"/>
        <pt x="132" y="93" on="0"/>
        <pt x="173" y="52" on="0"/>
        <pt x="207" y="52" on="1"/>
        <pt x="269" y="52" on="0"/>
        <pt x="355" y="177" on="0"/>
        <pt x="368" y="256" on="1"/>
        <pt x="240" y="246" on="0"/>
        <pt x="132" y="178" on="0"/>
      </contour>
      <contour>
        <pt x="463" y="392" on="1"/>
        <pt x="463" y="365" on="0"/>
        <pt x="426" y="152" on="0"/>
        <pt x="426" y="72" on="0"/>
        <pt x="437" y="20" on="0"/>
        <pt x="437" y="14" on="1"/>
        <pt x="437" y="2" on="0"/>
        <pt x="397" y="-14" on="0"/>
        <pt x="379" y="-14" on="1"/>
        <pt x="357" y="-14" on="0"/>
        <pt x="357" y="76" on="1"/>
        <pt x="357" y="102" on="1"/>
        <pt x="328" y="45" on="0"/>
        <pt x="232" y="-14" on="0"/>
        <pt x="126" y="-14" on="0"/>
        <pt x="53" y="50" on="0"/>
        <pt x="53" y="108" on="1"/>
        <pt x="53" y="191" on="0"/>
        <pt x="206" y="305" on="0"/>
        <pt x="381" y="316" on="1"/>
        <pt x="386" y="346" on="0"/>
        <pt x="386" y="378" on="1"/>
        <pt x="386" y="440" on="0"/>
        <pt x="294" y="440" on="1"/>
        <pt x="248" y="440" on="0"/>
        <pt x="153" y="402" on="0"/>
        <pt x="151" y="402" on="1"/>
        <pt x="138" y="402" on="0"/>
        <pt x="122" y="433" on="0"/>
        <pt x="122" y="467" on="0"/>
        <pt x="246" y="507" on="0"/>
        <pt x="368" y="507" on="0"/>
        <pt x="463" y="452" on="0"/>
      </contour>
      <contour>
        <pt x="438" y="637" on="1"/>
        <pt x="442" y="631" on="0"/>
        <pt x="442" y="613" on="0"/>
        <pt x="427" y="598" on="0"/>
        <pt x="408" y="598" on="0"/>
        <pt x="403" y="603" on="1"/>
        <pt x="253" y="740" on="1"/>
        <pt x="240" y="752" on="0"/>
        <pt x="240" y="781" on="0"/>
        <pt x="266" y="806" on="0"/>
        <pt x="295" y="806" on="0"/>
        <pt x="301" y="799" on="1"/>
      </contour>
    </TTGlyph>
    <TTGlyph name="ampersand" xMin="59" yMin="-14" xMax="742" yMax="872">
      <contour>
        <pt x="315" y="-14" on="1"/>
        <pt x="202" y="-14" on="0"/>
        <pt x="59" y="112" on="0"/>
        <pt x="59" y="220" on="1"/>
        <pt x="59" y="367" on="0"/>
        <pt x="213" y="459" on="1"/>
        <pt x="263" y="489" on="1"/>
        <pt x="234" y="530" on="0"/>
        <pt x="220" y="552" on="1"/>
        <pt x="182" y="614" on="0"/>
        <pt x="182" y="678" on="1"/>
        <pt x="182" y="770" on="0"/>
        <pt x="302" y="872" on="0"/>
        <pt x="474" y="872" on="0"/>
        <pt x="582" y="783" on="0"/>
        <pt x="582" y="639" on="0"/>
        <pt x="497" y="544" on="0"/>
        <pt x="416" y="495" on="1"/>
        <pt x="373" y="469" on="1"/>
        <pt x="568" y="217" on="1"/>
        <pt x="604" y="283" on="0"/>
        <pt x="614" y="332" on="1"/>
        <pt x="621" y="363" on="0"/>
        <pt x="649" y="363" on="1"/>
        <pt x="688" y="363" on="0"/>
        <pt x="688" y="329" on="1"/>
        <pt x="688" y="260" on="0"/>
        <pt x="617" y="154" on="1"/>
        <pt x="654" y="107" on="1"/>
        <pt x="672" y="83" on="0"/>
        <pt x="709" y="53" on="0"/>
        <pt x="719" y="49" on="1"/>
        <pt x="742" y="40" on="0"/>
        <pt x="742" y="5" on="0"/>
        <pt x="718" y="-14" on="0"/>
        <pt x="703" y="-14" on="1"/>
        <pt x="657" y="-14" on="0"/>
        <pt x="595" y="65" on="1"/>
        <pt x="572" y="94" on="1"/>
        <pt x="478" y="-14" on="0"/>
      </contour>
      <contour>
        <pt x="139" y="145" on="0"/>
        <pt x="243" y="52" on="0"/>
        <pt x="386" y="52" on="0"/>
        <pt x="495" y="106" on="0"/>
        <pt x="527" y="151" on="1"/>
        <pt x="306" y="432" on="1"/>
        <pt x="256" y="402" on="1"/>
        <pt x="139" y="332" on="0"/>
        <pt x="139" y="222" on="1"/>
      </contour>
      <contour>
        <pt x="503" y="705" on="1"/>
        <pt x="503" y="750" on="0"/>
        <pt x="441" y="807" on="0"/>
        <pt x="332" y="807" on="0"/>
        <pt x="260" y="738" on="0"/>
        <pt x="260" y="678" on="1"/>
        <pt x="260" y="649" on="0"/>
        <pt x="284" y="591" on="0"/>
        <pt x="309" y="556" on="0"/>
        <pt x="333" y="526" on="1"/>
        <pt x="366" y="545" on="1"/>
        <pt x="469" y="604" on="0"/>
        <pt x="492" y="654" on="1"/>
        <pt x="503" y="677" on="0"/>
      </contour>
    </TTGlyph>
    <TTGlyph name="apple" xMin="120" yMin="-114" xMax="843" yMax="608">
      <contour>
        <pt x="609" y="-89" on="1"/>
        <pt x="586" y="-88" on="1"/>
        <pt x="572" y="-88" on="0"/>
        <pt x="537" y="-112" on="0"/>
        <pt x="528" y="-112" on="1"/>
        <pt x="482" y="-102" on="1"/>
        <pt x="474" y="-102" on="0"/>
        <pt x="443" y="-114" on="0"/>
        <pt x="426" y="-114" on="0"/>
        <pt x="394" y="-89" on="0"/>
        <pt x="381" y="-89" on="1"/>
        <pt x="357" y="-91" on="1"/>
        <pt x="342" y="-91" on="0"/>
        <pt x="324" y="-74" on="1"/>
        <pt x="306" y="-55" on="1"/>
        <pt x="294" y="-49" on="0"/>
        <pt x="268" y="-47" on="0"/>
        <pt x="250" y="-36" on="0"/>
        <pt x="236" y="-1" on="0"/>
        <pt x="225" y="8" on="0"/>
        <pt x="197" y="19" on="0"/>
        <pt x="191" y="28" on="1"/>
        <pt x="186" y="37" on="0"/>
        <pt x="182" y="66" on="0"/>
        <pt x="174" y="79" on="0"/>
        <pt x="164" y="86" on="1"/>
        <pt x="142" y="104" on="0"/>
        <pt x="142" y="124" on="1"/>
        <pt x="145" y="149" on="1"/>
        <pt x="145" y="158" on="0"/>
        <pt x="120" y="193" on="0"/>
        <pt x="120" y="211" on="0"/>
        <pt x="132" y="240" on="0"/>
        <pt x="132" y="257" on="0"/>
        <pt x="120" y="283" on="0"/>
        <pt x="120" y="301" on="0"/>
        <pt x="145" y="342" on="0"/>
        <pt x="145" y="351" on="1"/>
        <pt x="144" y="376" on="1"/>
        <pt x="144" y="391" on="0"/>
        <pt x="177" y="420" on="0"/>
        <pt x="182" y="430" on="0"/>
        <pt x="186" y="462" on="0"/>
        <pt x="194" y="474" on="0"/>
        <pt x="225" y="486" on="0"/>
        <pt x="235" y="496" on="0"/>
        <pt x="249" y="527" on="0"/>
        <pt x="262" y="538" on="0"/>
        <pt x="300" y="546" on="0"/>
        <pt x="311" y="552" on="0"/>
        <pt x="341" y="586" on="0"/>
        <pt x="355" y="587" on="1"/>
        <pt x="381" y="585" on="1"/>
        <pt x="394" y="585" on="0"/>
        <pt x="425" y="608" on="0"/>
        <pt x="436" y="608" on="1"/>
        <pt x="480" y="596" on="1"/>
        <pt x="525" y="608" on="1"/>
        <pt x="538" y="608" on="0"/>
        <pt x="570" y="583" on="0"/>
        <pt x="582" y="583" on="1"/>
        <pt x="610" y="586" on="1"/>
        <pt x="626" y="586" on="0"/>
        <pt x="652" y="553" on="0"/>
        <pt x="665" y="546" on="0"/>
        <pt x="695" y="540" on="0"/>
        <pt x="710" y="530" on="0"/>
        <pt x="720" y="502" on="0"/>
        <pt x="731" y="492" on="0"/>
        <pt x="771" y="471" on="0"/>
        <pt x="780" y="455" on="0"/>
        <pt x="781" y="423" on="0"/>
        <pt x="786" y="414" on="0"/>
        <pt x="820" y="385" on="0"/>
        <pt x="820" y="369" on="1"/>
        <pt x="819" y="344" on="1"/>
        <pt x="819" y="331" on="0"/>
        <pt x="843" y="294" on="0"/>
        <pt x="843" y="276" on="0"/>
        <pt x="832" y="250" on="0"/>
        <pt x="832" y="236" on="0"/>
        <pt x="843" y="207" on="0"/>
        <pt x="842" y="191" on="0"/>
        <pt x="818" y="166" on="0"/>
        <pt x="818" y="152" on="1"/>
        <pt x="820" y="120" on="1"/>
        <pt x="820" y="104" on="0"/>
        <pt x="788" y="78" on="0"/>
        <pt x="783" y="68" on="0"/>
        <pt x="774" y="30" on="0"/>
        <pt x="763" y="17" on="0"/>
        <pt x="738" y="6" on="0"/>
        <pt x="728" y="-4" on="0"/>
        <pt x="710" y="-37" on="0"/>
        <pt x="696" y="-47" on="0"/>
        <pt x="661" y="-56" on="0"/>
        <pt x="651" y="-62" on="0"/>
        <pt x="624" y="-89" on="0"/>
      </contour>
      <contour>
        <pt x="482" y="-6" on="1"/>
        <pt x="515" y="-13" on="1"/>
        <pt x="521" y="-13" on="0"/>
        <pt x="532" y="-6" on="1"/>
        <pt x="547" y="4" on="0"/>
        <pt x="559" y="4" on="1"/>
        <pt x="574" y="3" on="1"/>
        <pt x="586" y="3" on="0"/>
        <pt x="604" y="23" on="0"/>
        <pt x="611" y="27" on="0"/>
        <pt x="637" y="34" on="0"/>
        <pt x="648" y="42" on="0"/>
        <pt x="661" y="65" on="0"/>
        <pt x="668" y="72" on="0"/>
        <pt x="686" y="80" on="0"/>
        <pt x="694" y="89" on="0"/>
        <pt x="700" y="117" on="0"/>
        <pt x="705" y="125" on="0"/>
        <pt x="727" y="143" on="0"/>
        <pt x="727" y="157" on="1"/>
        <pt x="726" y="177" on="1"/>
        <pt x="726" y="188" on="0"/>
        <pt x="743" y="207" on="0"/>
        <pt x="744" y="213" on="1"/>
        <pt x="736" y="245" on="1"/>
        <pt x="744" y="273" on="1"/>
        <pt x="744" y="281" on="0"/>
        <pt x="726" y="309" on="0"/>
        <pt x="726" y="318" on="1"/>
        <pt x="727" y="335" on="1"/>
        <pt x="727" y="347" on="0"/>
        <pt x="703" y="367" on="0"/>
        <pt x="699" y="375" on="0"/>
        <pt x="698" y="398" on="0"/>
        <pt x="692" y="409" on="0"/>
        <pt x="663" y="424" on="0"/>
        <pt x="655" y="432" on="0"/>
        <pt x="647" y="452" on="0"/>
        <pt x="637" y="460" on="0"/>
        <pt x="615" y="464" on="0"/>
        <pt x="605" y="469" on="0"/>
        <pt x="587" y="493" on="0"/>
        <pt x="575" y="493" on="1"/>
        <pt x="555" y="491" on="1"/>
        <pt x="546" y="491" on="0"/>
        <pt x="524" y="509" on="0"/>
        <pt x="514" y="509" on="1"/>
        <pt x="481" y="500" on="1"/>
        <pt x="449" y="509" on="1"/>
        <pt x="441" y="509" on="0"/>
        <pt x="417" y="492" on="0"/>
        <pt x="407" y="492" on="1"/>
        <pt x="390" y="493" on="1"/>
        <pt x="379" y="493" on="0"/>
        <pt x="358" y="468" on="0"/>
        <pt x="349" y="463" on="0"/>
        <pt x="323" y="458" on="0"/>
        <pt x="313" y="450" on="0"/>
        <pt x="303" y="428" on="0"/>
        <pt x="295" y="420" on="0"/>
        <pt x="274" y="412" on="0"/>
        <pt x="270" y="407" on="1"/>
        <pt x="268" y="403" on="0"/>
        <pt x="264" y="380" on="0"/>
        <pt x="260" y="372" on="0"/>
        <pt x="236" y="351" on="0"/>
        <pt x="236" y="340" on="1"/>
        <pt x="237" y="324" on="1"/>
        <pt x="237" y="316" on="0"/>
        <pt x="220" y="286" on="0"/>
        <pt x="220" y="278" on="1"/>
        <pt x="228" y="248" on="1"/>
        <pt x="220" y="215" on="1"/>
        <pt x="220" y="207" on="0"/>
        <pt x="237" y="182" on="0"/>
        <pt x="237" y="174" on="1"/>
        <pt x="235" y="158" on="1"/>
        <pt x="235" y="147" on="0"/>
        <pt x="260" y="124" on="0"/>
        <pt x="264" y="116" on="0"/>
        <pt x="267" y="95" on="0"/>
        <pt x="275" y="82" on="0"/>
        <pt x="295" y="74" on="0"/>
        <pt x="303" y="67" on="0"/>
        <pt x="314" y="41" on="0"/>
        <pt x="326" y="33" on="0"/>
        <pt x="345" y="33" on="0"/>
        <pt x="357" y="27" on="0"/>
        <pt x="380" y="2" on="0"/>
        <pt x="391" y="2" on="1"/>
        <pt x="406" y="3" on="1"/>
        <pt x="416" y="3" on="0"/>
        <pt x="440" y="-14" on="0"/>
        <pt x="446" y="-15" on="1"/>
      </contour>
      <contour>
        <pt x="412" y="417" on="0"/>
        <pt x="552" y="417" on="0"/>
        <pt x="652" y="318" on="0"/>
        <pt x="652" y="176" on="0"/>
        <pt x="552" y="77" on="0"/>
        <pt x="412" y="77" on="0"/>
        <pt x="312" y="176" on="0"/>
        <pt x="312" y="318" on="0"/>
      </contour>
      <contour>
        <pt x="524" y="292" on="1"/>
        <pt x="577" y="292" on="1"/>
        <pt x="577" y="360" on="1"/>
        <pt x="386" y="360" on="1"/>
        <pt x="386" y="292" on="1"/>
        <pt x="439" y="292" on="1"/>
        <pt x="439" y="117" on="1"/>
        <pt x="524" y="117" on="1"/>
      </contour>
    </TTGlyph>
    <TTGlyph name="approxequal" xMin="76" yMin="253" xMax="595" yMax="570">
      <contour>
        <pt x="100" y="535" on="0"/>
        <pt x="191" y="570" on="0"/>
        <pt x="276" y="570" on="0"/>
        <pt x="430" y="510" on="0"/>
        <pt x="505" y="510" on="0"/>
        <pt x="571" y="543" on="0"/>
        <pt x="573" y="543" on="1"/>
        <pt x="595" y="543" on="0"/>
        <pt x="595" y="507" on="1"/>
        <pt x="595" y="481" on="0"/>
        <pt x="505" y="446" on="0"/>
        <pt x="420" y="446" on="0"/>
        <pt x="266" y="506" on="0"/>
        <pt x="191" y="506" on="0"/>
        <pt x="125" y="473" on="0"/>
        <pt x="123" y="473" on="1"/>
        <pt x="100" y="473" on="0"/>
        <pt x="100" y="509" on="1"/>
      </contour>
      <contour>
        <pt x="76" y="342" on="0"/>
        <pt x="167" y="377" on="0"/>
        <pt x="252" y="377" on="0"/>
        <pt x="405" y="317" on="0"/>
        <pt x="481" y="317" on="0"/>
        <pt x="547" y="350" on="0"/>
        <pt x="549" y="350" on="1"/>
        <pt x="571" y="350" on="0"/>
        <pt x="571" y="314" on="1"/>
        <pt x="571" y="288" on="0"/>
        <pt x="481" y="253" on="0"/>
        <pt x="396" y="253" on="0"/>
        <pt x="242" y="313" on="0"/>
        <pt x="167" y="313" on="0"/>
        <pt x="101" y="280" on="0"/>
        <pt x="99" y="280" on="1"/>
        <pt x="76" y="280" on="0"/>
        <pt x="76" y="316" on="1"/>
      </contour>
    </TTGlyph>
    <TTGlyph name="aring" xMin="38" yMin="-14" xMax="448" yMax="809">
      <contour>
        <pt x="117" y="123" on="1"/>
        <pt x="117" y="93" on="0"/>
        <pt x="158" y="52" on="0"/>
        <pt x="192" y="52" on="1"/>
        <pt x="254" y="52" on="0"/>
        <pt x="340" y="177" on="0"/>
        <pt x="353" y="256" on="1"/>
        <pt x="225" y="246" on="0"/>
        <pt x="117" y="178" on="0"/>
      </contour>
      <contour>
        <pt x="448" y="392" on="1"/>
        <pt x="448" y="365" on="0"/>
        <pt x="411" y="152" on="0"/>
        <pt x="411" y="72" on="0"/>
        <pt x="422" y="20" on="0"/>
        <pt x="422" y="14" on="1"/>
        <pt x="422" y="2" on="0"/>
        <pt x="382" y="-14" on="0"/>
        <pt x="364" y="-14" on="1"/>
        <pt x="342" y="-14" on="0"/>
        <pt x="342" y="76" on="1"/>
        <pt x="342" y="102" on="1"/>
        <pt x="313" y="45" on="0"/>
        <pt x="217" y="-14" on="0"/>
        <pt x="111" y="-14" on="0"/>
        <pt x="38" y="50" on="0"/>
        <pt x="38" y="108" on="1"/>
        <pt x="38" y="191" on="0"/>
        <pt x="191" y="305" on="0"/>
        <pt x="366" y="316" on="1"/>
        <pt x="371" y="346" on="0"/>
        <pt x="371" y="378" on="1"/>
        <pt x="371" y="440" on="0"/>
        <pt x="279" y="440" on="1"/>
        <pt x="233" y="440" on="0"/>
        <pt x="138" y="402" on="0"/>
        <pt x="136" y="402" on="1"/>
        <pt x="123" y="402" on="0"/>
        <pt x="107" y="433" on="0"/>
        <pt x="107" y="467" on="0"/>
        <pt x="231" y="507" on="0"/>
        <pt x="353" y="507" on="0"/>
        <pt x="448" y="452" on="0"/>
      </contour>
      <contour>
        <pt x="261" y="583" on="0"/>
        <pt x="213" y="638" on="0"/>
        <pt x="213" y="729" on="0"/>
        <pt x="276" y="809" on="0"/>
        <pt x="382" y="809" on="0"/>
        <pt x="431" y="752" on="0"/>
        <pt x="431" y="658" on="0"/>
        <pt x="362" y="583" on="0"/>
      </contour>
      <contour>
        <pt x="268" y="685" on="1"/>
        <pt x="268" y="632" on="0"/>
        <pt x="313" y="632" on="1"/>
        <pt x="340" y="632" on="0"/>
        <pt x="377" y="675" on="0"/>
        <pt x="377" y="704" on="1"/>
        <pt x="377" y="758" on="0"/>
        <pt x="332" y="758" on="1"/>
        <pt x="302" y="758" on="0"/>
        <pt x="268" y="713" on="0"/>
      </contour>
    </TTGlyph>
    <TTGlyph name="asciicircum" xMin="110" yMin="434" xMax="483" yMax="849">
      <contour>
        <pt x="482" y="464" on="1"/>
        <pt x="483" y="457" on="1"/>
        <pt x="483" y="434" on="0"/>
        <pt x="451" y="434" on="1"/>
        <pt x="434" y="434" on="0"/>
        <pt x="419" y="444" on="0"/>
        <pt x="415" y="460" on="1"/>
        <pt x="334" y="763" on="1"/>
        <pt x="210" y="519" on="1"/>
        <pt x="183" y="465" on="0"/>
        <pt x="159" y="434" on="0"/>
        <pt x="145" y="434" on="1"/>
        <pt x="110" y="434" on="0"/>
        <pt x="110" y="459" on="1"/>
        <pt x="110" y="471" on="0"/>
        <pt x="162" y="571" on="1"/>
        <pt x="292" y="823" on="1"/>
        <pt x="305" y="849" on="0"/>
        <pt x="382" y="849" on="0"/>
        <pt x="388" y="823" on="1"/>
      </contour>
    </TTGlyph>
    <TTGlyph name="asciitilde" xMin="88" yMin="350" xMax="583" yMax="474">
      <contour>
        <pt x="88" y="439" on="0"/>
        <pt x="179" y="474" on="0"/>
        <pt x="264" y="474" on="0"/>
        <pt x="418" y="414" on="0"/>
        <pt x="493" y="414" on="0"/>
        <pt x="559" y="447" on="0"/>
        <pt x="561" y="447" on="1"/>
        <pt x="583" y="447" on="0"/>
        <pt x="583" y="411" on="1"/>
        <pt x="583" y="385" on="0"/>
        <pt x="493" y="350" on="0"/>
        <pt x="408" y="350" on="0"/>
        <pt x="254" y="410" on="0"/>
        <pt x="179" y="410" on="0"/>
        <pt x="113" y="377" on="0"/>
        <pt x="111" y="377" on="1"/>
        <pt x="88" y="377" on="0"/>
        <pt x="88" y="413" on="1"/>
      </contour>
    </TTGlyph>
    <TTGlyph name="asterisk" xMin="100" yMin="383" xMax="520" yMax="785">
      <contour>
        <pt x="467" y="660" on="1"/>
        <pt x="474" y="663" on="0"/>
        <pt x="500" y="663" on="0"/>
        <pt x="520" y="636" on="0"/>
        <pt x="520" y="593" on="0"/>
        <pt x="498" y="587" on="1"/>
        <pt x="360" y="553" on="1"/>
        <pt x="448" y="446" on="1"/>
        <pt x="456" y="436" on="0"/>
        <pt x="456" y="409" on="0"/>
        <pt x="427" y="383" on="0"/>
        <pt x="393" y="383" on="0"/>
        <pt x="386" y="396" on="1"/>
        <pt x="310" y="516" on="1"/>
        <pt x="237" y="403" on="1"/>
        <pt x="225" y="384" on="0"/>
        <pt x="190" y="384" on="0"/>
        <pt x="162" y="411" on="0"/>
        <pt x="162" y="437" on="0"/>
        <pt x="168" y="444" on="1"/>
        <pt x="260" y="554" on="1"/>
        <pt x="131" y="587" on="1"/>
        <pt x="100" y="595" on="0"/>
        <pt x="100" y="623" on="1"/>
        <pt x="100" y="636" on="0"/>
        <pt x="121" y="667" on="0"/>
        <pt x="144" y="667" on="0"/>
        <pt x="147" y="666" on="1"/>
        <pt x="279" y="612" on="1"/>
        <pt x="273" y="689" on="1"/>
        <pt x="269" y="733" on="0"/>
        <pt x="269" y="749" on="1"/>
        <pt x="269" y="785" on="0"/>
        <pt x="347" y="785" on="0"/>
        <pt x="347" y="751" on="1"/>
        <pt x="347" y="748" on="1"/>
        <pt x="347" y="746" on="0"/>
        <pt x="346" y="730" on="0"/>
        <pt x="345" y="702" on="0"/>
        <pt x="342" y="648" on="0"/>
        <pt x="341" y="613" on="1"/>
      </contour>
    </TTGlyph>
    <TTGlyph name="at" xMin="41" yMin="-276" xMax="846" yMax="735">
      <contour>
        <pt x="528" y="92" on="1"/>
        <pt x="477" y="-14" on="0"/>
        <pt x="361" y="-14" on="1"/>
        <pt x="289" y="-14" on="0"/>
        <pt x="210" y="84" on="0"/>
        <pt x="210" y="161" on="1"/>
        <pt x="210" y="300" on="0"/>
        <pt x="401" y="490" on="0"/>
        <pt x="543" y="490" on="1"/>
        <pt x="590" y="490" on="0"/>
        <pt x="633" y="477" on="0"/>
        <pt x="633" y="455" on="1"/>
        <pt x="633" y="450" on="0"/>
        <pt x="596" y="140" on="0"/>
        <pt x="596" y="115" on="1"/>
        <pt x="596" y="39" on="0"/>
        <pt x="651" y="39" on="1"/>
        <pt x="688" y="39" on="0"/>
        <pt x="745" y="107" on="0"/>
        <pt x="760" y="159" on="1"/>
        <pt x="791" y="261" on="0"/>
        <pt x="791" y="354" on="1"/>
        <pt x="791" y="508" on="0"/>
        <pt x="644" y="689" on="0"/>
        <pt x="500" y="689" on="1"/>
        <pt x="403" y="689" on="0"/>
        <pt x="245" y="596" on="0"/>
        <pt x="196" y="519" on="1"/>
        <pt x="95" y="360" on="0"/>
        <pt x="95" y="151" on="1"/>
        <pt x="95" y="-12" on="0"/>
        <pt x="260" y="-228" on="0"/>
        <pt x="409" y="-228" on="1"/>
        <pt x="521" y="-228" on="0"/>
        <pt x="615" y="-190" on="1"/>
        <pt x="631" y="-183" on="0"/>
        <pt x="648" y="-183" on="0"/>
        <pt x="660" y="-198" on="0"/>
        <pt x="660" y="-221" on="0"/>
        <pt x="641" y="-230" on="1"/>
        <pt x="545" y="-276" on="0"/>
        <pt x="400" y="-276" on="1"/>
        <pt x="228" y="-276" on="0"/>
        <pt x="41" y="-36" on="0"/>
        <pt x="41" y="151" on="1"/>
        <pt x="41" y="266" on="0"/>
        <pt x="103" y="475" on="0"/>
        <pt x="217" y="638" on="0"/>
        <pt x="398" y="735" on="0"/>
        <pt x="508" y="735" on="1"/>
        <pt x="671" y="735" on="0"/>
        <pt x="846" y="528" on="0"/>
        <pt x="846" y="357" on="1"/>
        <pt x="846" y="181" on="0"/>
        <pt x="780" y="72" on="1"/>
        <pt x="757" y="34" on="0"/>
        <pt x="684" y="-14" on="0"/>
        <pt x="590" y="-14" on="0"/>
        <pt x="528" y="44" on="0"/>
      </contour>
      <contour>
        <pt x="382" y="50" on="1"/>
        <pt x="511" y="50" on="0"/>
        <pt x="542" y="294" on="1"/>
        <pt x="560" y="438" on="1"/>
        <pt x="555" y="441" on="0"/>
        <pt x="535" y="441" on="1"/>
        <pt x="430" y="441" on="0"/>
        <pt x="288" y="279" on="0"/>
        <pt x="288" y="171" on="1"/>
        <pt x="288" y="119" on="0"/>
        <pt x="336" y="50" on="0"/>
      </contour>
    </TTGlyph>
    <TTGlyph name="atilde" xMin="53" yMin="-14" xMax="490" yMax="746">
      <contour>
        <pt x="132" y="123" on="1"/>
        <pt x="132" y="93" on="0"/>
        <pt x="173" y="52" on="0"/>
        <pt x="207" y="52" on="1"/>
        <pt x="269" y="52" on="0"/>
        <pt x="355" y="177" on="0"/>
        <pt x="368" y="256" on="1"/>
        <pt x="240" y="246" on="0"/>
        <pt x="132" y="178" on="0"/>
      </contour>
      <contour>
        <pt x="463" y="392" on="1"/>
        <pt x="463" y="365" on="0"/>
        <pt x="426" y="152" on="0"/>
        <pt x="426" y="72" on="0"/>
        <pt x="437" y="20" on="0"/>
        <pt x="437" y="14" on="1"/>
        <pt x="437" y="2" on="0"/>
        <pt x="397" y="-14" on="0"/>
        <pt x="379" y="-14" on="1"/>
        <pt x="357" y="-14" on="0"/>
        <pt x="357" y="76" on="1"/>
        <pt x="357" y="102" on="1"/>
        <pt x="328" y="45" on="0"/>
        <pt x="232" y="-14" on="0"/>
        <pt x="126" y="-14" on="0"/>
        <pt x="53" y="50" on="0"/>
        <pt x="53" y="108" on="1"/>
        <pt x="53" y="191" on="0"/>
        <pt x="206" y="305" on="0"/>
        <pt x="381" y="316" on="1"/>
        <pt x="386" y="346" on="0"/>
        <pt x="386" y="378" on="1"/>
        <pt x="386" y="440" on="0"/>
        <pt x="294" y="440" on="1"/>
        <pt x="248" y="440" on="0"/>
        <pt x="153" y="402" on="0"/>
        <pt x="151" y="402" on="1"/>
        <pt x="138" y="402" on="0"/>
        <pt x="122" y="433" on="0"/>
        <pt x="122" y="467" on="0"/>
        <pt x="246" y="507" on="0"/>
        <pt x="368" y="507" on="0"/>
        <pt x="463" y="452" on="0"/>
      </contour>
      <contour>
        <pt x="289" y="746" on="0"/>
        <pt x="365" y="706" on="0"/>
        <pt x="408" y="706" on="0"/>
        <pt x="459" y="746" on="0"/>
        <pt x="461" y="746" on="1"/>
        <pt x="490" y="746" on="0"/>
        <pt x="490" y="715" on="1"/>
        <pt x="490" y="701" on="0"/>
        <pt x="418" y="637" on="0"/>
        <pt x="383" y="637" on="1"/>
        <pt x="364" y="637" on="0"/>
        <pt x="288" y="677" on="0"/>
        <pt x="245" y="677" on="0"/>
        <pt x="194" y="637" on="0"/>
        <pt x="192" y="637" on="1"/>
        <pt x="163" y="637" on="0"/>
        <pt x="163" y="668" on="1"/>
        <pt x="163" y="682" on="0"/>
        <pt x="235" y="746" on="0"/>
        <pt x="270" y="746" on="1"/>
      </contour>
    </TTGlyph>
    <TTGlyph name="b" xMin="69" yMin="-14" xMax="511" yMax="887">
      <contour>
        <pt x="188" y="48" on="1"/>
        <pt x="267" y="48" on="0"/>
        <pt x="380" y="129" on="0"/>
        <pt x="429" y="241" on="0"/>
        <pt x="429" y="360" on="0"/>
        <pt x="374" y="441" on="0"/>
        <pt x="328" y="441" on="1"/>
        <pt x="194" y="441" on="0"/>
        <pt x="163" y="189" on="1"/>
        <pt x="146" y="50" on="1"/>
        <pt x="160" y="48" on="0"/>
      </contour>
      <contour>
        <pt x="171" y="861" on="1"/>
        <pt x="174" y="887" on="0"/>
        <pt x="246" y="887" on="0"/>
        <pt x="246" y="866" on="1"/>
        <pt x="191" y="424" on="1"/>
        <pt x="226" y="467" on="0"/>
        <pt x="300" y="507" on="0"/>
        <pt x="352" y="507" on="1"/>
        <pt x="426" y="507" on="0"/>
        <pt x="511" y="393" on="0"/>
        <pt x="511" y="309" on="1"/>
        <pt x="511" y="190" on="0"/>
        <pt x="429" y="92" on="1"/>
        <pt x="389" y="45" on="0"/>
        <pt x="253" y="-14" on="0"/>
        <pt x="69" y="-14" on="0"/>
        <pt x="69" y="29" on="1"/>
      </contour>
    </TTGlyph>
    <TTGlyph name="backslash" xMin="62" yMin="-38" xMax="402" yMax="896">
      <contour>
        <pt x="62" y="879" on="1"/>
        <pt x="62" y="896" on="0"/>
        <pt x="89" y="896" on="1"/>
        <pt x="130" y="896" on="0"/>
        <pt x="138" y="870" on="1"/>
        <pt x="397" y="-5" on="1"/>
        <pt x="402" y="-20" on="0"/>
        <pt x="402" y="-24" on="1"/>
        <pt x="402" y="-38" on="0"/>
        <pt x="378" y="-38" on="1"/>
        <pt x="334" y="-38" on="0"/>
        <pt x="326" y="-13" on="1"/>
        <pt x="67" y="858" on="1"/>
        <pt x="62" y="875" on="0"/>
      </contour>
    </TTGlyph>
    <TTGlyph name="bar" xMin="150" yMin="-38" xMax="332" yMax="896">
      <contour>
        <pt x="177" y="-38" on="1"/>
        <pt x="162" y="-38" on="0"/>
        <pt x="150" y="-30" on="0"/>
        <pt x="150" y="-18" on="1"/>
        <pt x="257" y="870" on="1"/>
        <pt x="261" y="896" on="0"/>
        <pt x="332" y="896" on="0"/>
        <pt x="332" y="875" on="1"/>
        <pt x="224" y="-13" on="1"/>
        <pt x="221" y="-38" on="0"/>
      </contour>
    </TTGlyph>
    <TTGlyph name="barra" xMin="50" yMin="398" xMax="491" yMax="462">
      <contour>
        <pt x="79" y="462" on="1"/>
        <pt x="465" y="462" on="1"/>
        <pt x="477" y="462" on="0"/>
        <pt x="491" y="444" on="0"/>
        <pt x="491" y="418" on="0"/>
        <pt x="475" y="398" on="0"/>
        <pt x="461" y="398" on="1"/>
        <pt x="71" y="398" on="1"/>
        <pt x="62" y="398" on="0"/>
        <pt x="50" y="414" on="0"/>
        <pt x="50" y="440" on="0"/>
        <pt x="65" y="462" on="0"/>
      </contour>
    </TTGlyph>
    <TTGlyph name="braceleft" xMin="5" yMin="-104" xMax="452" yMax="947">
      <contour>
        <pt x="32" y="391" on="1"/>
        <pt x="5" y="391" on="0"/>
        <pt x="5" y="422" on="1"/>
        <pt x="5" y="437" on="0"/>
        <pt x="21" y="456" on="0"/>
        <pt x="33" y="456" on="1"/>
        <pt x="119" y="456" on="1"/>
        <pt x="144" y="672" on="1"/>
        <pt x="160" y="817" on="0"/>
        <pt x="188" y="862" on="1"/>
        <pt x="223" y="921" on="0"/>
        <pt x="271" y="937" on="1"/>
        <pt x="301" y="947" on="0"/>
        <pt x="388" y="947" on="0"/>
        <pt x="452" y="922" on="0"/>
        <pt x="452" y="881" on="0"/>
        <pt x="433" y="860" on="0"/>
        <pt x="410" y="860" on="0"/>
        <pt x="362" y="878" on="0"/>
        <pt x="309" y="878" on="0"/>
        <pt x="270" y="854" on="0"/>
        <pt x="248" y="823" on="0"/>
        <pt x="240" y="793" on="1"/>
        <pt x="230" y="750" on="0"/>
        <pt x="223" y="688" on="1"/>
        <pt x="201" y="493" on="1"/>
        <pt x="195" y="434" on="0"/>
        <pt x="140" y="424" on="1"/>
        <pt x="139" y="420" on="1"/>
        <pt x="184" y="410" on="0"/>
        <pt x="184" y="352" on="1"/>
        <pt x="184" y="339" on="0"/>
        <pt x="155" y="104" on="0"/>
        <pt x="155" y="65" on="1"/>
        <pt x="155" y="-35" on="0"/>
        <pt x="231" y="-35" on="1"/>
        <pt x="258" y="-35" on="0"/>
        <pt x="309" y="-17" on="0"/>
        <pt x="316" y="-17" on="1"/>
        <pt x="344" y="-17" on="0"/>
        <pt x="344" y="-43" on="1"/>
        <pt x="344" y="-72" on="0"/>
        <pt x="274" y="-104" on="0"/>
        <pt x="219" y="-104" on="1"/>
        <pt x="139" y="-104" on="0"/>
        <pt x="78" y="-21" on="0"/>
        <pt x="78" y="55" on="1"/>
        <pt x="78" y="99" on="0"/>
        <pt x="87" y="171" on="1"/>
        <pt x="112" y="391" on="1"/>
      </contour>
    </TTGlyph>
    <TTGlyph name="braceright" xMin="-18" yMin="-105" xMax="429" yMax="946">
      <contour>
        <pt x="402" y="451" on="1"/>
        <pt x="429" y="451" on="0"/>
        <pt x="429" y="420" on="1"/>
        <pt x="429" y="405" on="0"/>
        <pt x="413" y="386" on="0"/>
        <pt x="401" y="386" on="1"/>
        <pt x="315" y="386" on="1"/>
        <pt x="290" y="170" on="1"/>
        <pt x="274" y="25" on="0"/>
        <pt x="246" y="-20" on="1"/>
        <pt x="211" y="-79" on="0"/>
        <pt x="163" y="-95" on="1"/>
        <pt x="133" y="-105" on="0"/>
        <pt x="46" y="-105" on="0"/>
        <pt x="-18" y="-80" on="0"/>
        <pt x="-18" y="-39" on="0"/>
        <pt x="1" y="-18" on="0"/>
        <pt x="24" y="-18" on="0"/>
        <pt x="72" y="-36" on="0"/>
        <pt x="125" y="-36" on="0"/>
        <pt x="164" y="-12" on="0"/>
        <pt x="186" y="19" on="0"/>
        <pt x="194" y="49" on="1"/>
        <pt x="204" y="92" on="0"/>
        <pt x="211" y="154" on="1"/>
        <pt x="233" y="349" on="1"/>
        <pt x="239" y="408" on="0"/>
        <pt x="294" y="418" on="1"/>
        <pt x="295" y="422" on="1"/>
        <pt x="250" y="432" on="0"/>
        <pt x="250" y="490" on="1"/>
        <pt x="250" y="503" on="0"/>
        <pt x="279" y="738" on="0"/>
        <pt x="279" y="777" on="1"/>
        <pt x="279" y="877" on="0"/>
        <pt x="203" y="877" on="1"/>
        <pt x="176" y="877" on="0"/>
        <pt x="125" y="859" on="0"/>
        <pt x="118" y="859" on="1"/>
        <pt x="90" y="859" on="0"/>
        <pt x="90" y="885" on="1"/>
        <pt x="90" y="914" on="0"/>
        <pt x="160" y="946" on="0"/>
        <pt x="215" y="946" on="1"/>
        <pt x="295" y="946" on="0"/>
        <pt x="356" y="863" on="0"/>
        <pt x="356" y="787" on="1"/>
        <pt x="356" y="743" on="0"/>
        <pt x="347" y="671" on="1"/>
        <pt x="322" y="451" on="1"/>
      </contour>
    </TTGlyph>
    <TTGlyph name="bracketleft" xMin="60" yMin="-94" xMax="434" yMax="937">
      <contour>
        <pt x="203" y="937" on="1"/>
        <pt x="407" y="937" on="1"/>
        <pt x="434" y="937" on="0"/>
        <pt x="434" y="906" on="1"/>
        <pt x="434" y="891" on="0"/>
        <pt x="418" y="872" on="0"/>
        <pt x="406" y="872" on="1"/>
        <pt x="245" y="872" on="1"/>
        <pt x="141" y="-29" on="1"/>
        <pt x="294" y="-29" on="1"/>
        <pt x="321" y="-29" on="0"/>
        <pt x="321" y="-60" on="1"/>
        <pt x="321" y="-75" on="0"/>
        <pt x="305" y="-94" on="0"/>
        <pt x="293" y="-94" on="1"/>
        <pt x="92" y="-94" on="1"/>
        <pt x="60" y="-94" on="0"/>
        <pt x="60" y="-68" on="1"/>
        <pt x="60" y="-63" on="1"/>
        <pt x="172" y="911" on="1"/>
        <pt x="175" y="937" on="0"/>
      </contour>
    </TTGlyph>
    <TTGlyph name="bracketright" xMin="0" yMin="-94" xMax="374" yMax="937">
      <contour>
        <pt x="231" y="-94" on="1"/>
        <pt x="27" y="-94" on="1"/>
        <pt x="0" y="-94" on="0"/>
        <pt x="0" y="-63" on="1"/>
        <pt x="0" y="-48" on="0"/>
        <pt x="16" y="-29" on="0"/>
        <pt x="28" y="-29" on="1"/>
        <pt x="189" y="-29" on="1"/>
        <pt x="293" y="872" on="1"/>
        <pt x="140" y="872" on="1"/>
        <pt x="113" y="872" on="0"/>
        <pt x="113" y="903" on="1"/>
        <pt x="113" y="918" on="0"/>
        <pt x="129" y="937" on="0"/>
        <pt x="141" y="937" on="1"/>
        <pt x="342" y="937" on="1"/>
        <pt x="374" y="937" on="0"/>
        <pt x="374" y="911" on="1"/>
        <pt x="374" y="906" on="1"/>
        <pt x="262" y="-68" on="1"/>
        <pt x="259" y="-94" on="0"/>
      </contour>
    </TTGlyph>
    <TTGlyph name="breve" xMin="50" yMin="598" xMax="325" yMax="776">
      <contour>
        <pt x="72" y="776" on="1"/>
        <pt x="97" y="776" on="0"/>
        <pt x="112" y="722" on="1"/>
        <pt x="117" y="702" on="0"/>
        <pt x="147" y="669" on="0"/>
        <pt x="191" y="669" on="0"/>
        <pt x="234" y="702" on="0"/>
        <pt x="248" y="722" on="1"/>
        <pt x="285" y="776" on="0"/>
        <pt x="325" y="776" on="0"/>
        <pt x="325" y="755" on="1"/>
        <pt x="325" y="723" on="0"/>
        <pt x="223" y="598" on="0"/>
        <pt x="154" y="598" on="1"/>
        <pt x="109" y="598" on="0"/>
        <pt x="50" y="693" on="0"/>
        <pt x="50" y="776" on="0"/>
      </contour>
    </TTGlyph>
    <TTGlyph name="breve.case" xMin="50" yMin="893" xMax="325" yMax="1071">
      <contour>
        <pt x="72" y="1071" on="1"/>
        <pt x="97" y="1071" on="0"/>
        <pt x="112" y="1018" on="1"/>
        <pt x="117" y="997" on="0"/>
        <pt x="147" y="964" on="0"/>
        <pt x="191" y="964" on="0"/>
        <pt x="234" y="997" on="0"/>
        <pt x="248" y="1018" on="1"/>
        <pt x="285" y="1071" on="0"/>
        <pt x="325" y="1071" on="0"/>
        <pt x="325" y="1050" on="1"/>
        <pt x="325" y="1018" on="0"/>
        <pt x="223" y="893" on="0"/>
        <pt x="154" y="893" on="1"/>
        <pt x="109" y="893" on="0"/>
        <pt x="50" y="988" on="0"/>
        <pt x="50" y="1071" on="0"/>
      </contour>
    </TTGlyph>
    <TTGlyph name="brokenbar" xMin="150" yMin="-38" xMax="332" yMax="896">
      <contour>
        <pt x="243" y="508" on="1"/>
        <pt x="228" y="508" on="0"/>
        <pt x="216" y="516" on="0"/>
        <pt x="216" y="528" on="1"/>
        <pt x="257" y="870" on="1"/>
        <pt x="261" y="896" on="0"/>
        <pt x="332" y="896" on="0"/>
        <pt x="332" y="875" on="1"/>
        <pt x="290" y="533" on="1"/>
        <pt x="287" y="508" on="0"/>
      </contour>
      <contour>
        <pt x="177" y="-38" on="1"/>
        <pt x="162" y="-38" on="0"/>
        <pt x="150" y="-30" on="0"/>
        <pt x="150" y="-18" on="1"/>
        <pt x="191" y="324" on="1"/>
        <pt x="195" y="350" on="0"/>
        <pt x="266" y="350" on="0"/>
        <pt x="266" y="329" on="1"/>
        <pt x="224" y="-13" on="1"/>
        <pt x="221" y="-38" on="0"/>
      </contour>
    </TTGlyph>
    <TTGlyph name="bullet" xMin="100" yMin="348" xMax="253" yMax="496">
      <contour>
        <pt x="253" y="441" on="1"/>
        <pt x="253" y="348" on="0"/>
        <pt x="167" y="348" on="1"/>
        <pt x="100" y="348" on="0"/>
        <pt x="100" y="405" on="1"/>
        <pt x="100" y="496" on="0"/>
        <pt x="185" y="496" on="1"/>
        <pt x="253" y="496" on="0"/>
      </contour>
    </TTGlyph>
    <TTGlyph name="c" xMin="53" yMin="-14" xMax="452" yMax="507">
      <contour>
        <pt x="319" y="507" on="1"/>
        <pt x="374" y="507" on="0"/>
        <pt x="452" y="465" on="0"/>
        <pt x="452" y="447" on="1"/>
        <pt x="452" y="432" on="0"/>
        <pt x="429" y="405" on="0"/>
        <pt x="411" y="405" on="0"/>
        <pt x="400" y="415" on="1"/>
        <pt x="367" y="445" on="0"/>
        <pt x="269" y="445" on="0"/>
        <pt x="196" y="403" on="0"/>
        <pt x="176" y="368" on="1"/>
        <pt x="135" y="297" on="0"/>
        <pt x="135" y="132" on="0"/>
        <pt x="204" y="48" on="0"/>
        <pt x="270" y="48" on="1"/>
        <pt x="300" y="48" on="0"/>
        <pt x="359" y="74" on="0"/>
        <pt x="393" y="101" on="0"/>
        <pt x="394" y="101" on="1"/>
        <pt x="405" y="101" on="0"/>
        <pt x="420" y="71" on="0"/>
        <pt x="420" y="56" on="1"/>
        <pt x="420" y="38" on="0"/>
        <pt x="315" y="-14" on="0"/>
        <pt x="266" y="-14" on="1"/>
        <pt x="162" y="-14" on="0"/>
        <pt x="53" y="103" on="0"/>
        <pt x="53" y="328" on="0"/>
        <pt x="199" y="507" on="0"/>
      </contour>
    </TTGlyph>
    <TTGlyph name="caron" xMin="50" yMin="598" xMax="354" yMax="806">
      <contour>
        <pt x="315" y="801" on="1"/>
        <pt x="320" y="806" on="0"/>
        <pt x="339" y="806" on="0"/>
        <pt x="354" y="791" on="0"/>
        <pt x="354" y="773" on="0"/>
        <pt x="350" y="767" on="1"/>
        <pt x="233" y="629" on="1"/>
        <pt x="232" y="628" on="0"/>
        <pt x="225" y="619" on="0"/>
        <pt x="220" y="614" on="0"/>
        <pt x="211" y="606" on="0"/>
        <pt x="206" y="604" on="1"/>
        <pt x="193" y="598" on="0"/>
        <pt x="182" y="598" on="1"/>
        <pt x="155" y="598" on="0"/>
        <pt x="141" y="621" on="1"/>
        <pt x="56" y="761" on="1"/>
        <pt x="50" y="771" on="0"/>
        <pt x="50" y="788" on="0"/>
        <pt x="70" y="806" on="0"/>
        <pt x="90" y="806" on="0"/>
        <pt x="100" y="793" on="1"/>
        <pt x="185" y="682" on="1"/>
      </contour>
    </TTGlyph>
    <TTGlyph name="caron.case" xMin="68" yMin="899" xMax="348" yMax="1086">
      <contour>
        <pt x="309" y="1080" on="1"/>
        <pt x="314" y="1085" on="0"/>
        <pt x="333" y="1085" on="0"/>
        <pt x="348" y="1070" on="0"/>
        <pt x="348" y="1052" on="0"/>
        <pt x="344" y="1046" on="1"/>
        <pt x="235" y="930" on="1"/>
        <pt x="207" y="899" on="0"/>
        <pt x="156" y="899" on="0"/>
        <pt x="143" y="922" on="1"/>
        <pt x="74" y="1041" on="1"/>
        <pt x="68" y="1051" on="0"/>
        <pt x="68" y="1068" on="0"/>
        <pt x="88" y="1086" on="0"/>
        <pt x="108" y="1086" on="0"/>
        <pt x="118" y="1073" on="1"/>
        <pt x="187" y="983" on="1"/>
      </contour>
    </TTGlyph>
    <TTGlyph name="ccedilla" xMin="53" yMin="-320" xMax="452" yMax="507">
      <contour>
        <pt x="319" y="507" on="1"/>
        <pt x="374" y="507" on="0"/>
        <pt x="452" y="465" on="0"/>
        <pt x="452" y="447" on="1"/>
        <pt x="452" y="432" on="0"/>
        <pt x="429" y="405" on="0"/>
        <pt x="411" y="405" on="0"/>
        <pt x="400" y="415" on="1"/>
        <pt x="367" y="445" on="0"/>
        <pt x="269" y="445" on="0"/>
        <pt x="196" y="403" on="0"/>
        <pt x="176" y="368" on="1"/>
        <pt x="135" y="297" on="0"/>
        <pt x="135" y="132" on="0"/>
        <pt x="204" y="48" on="0"/>
        <pt x="270" y="48" on="1"/>
        <pt x="300" y="48" on="0"/>
        <pt x="359" y="74" on="0"/>
        <pt x="393" y="101" on="0"/>
        <pt x="394" y="101" on="1"/>
        <pt x="405" y="101" on="0"/>
        <pt x="420" y="71" on="0"/>
        <pt x="420" y="56" on="1"/>
        <pt x="420" y="38" on="0"/>
        <pt x="315" y="-14" on="0"/>
        <pt x="266" y="-14" on="1"/>
        <pt x="251" y="-14" on="0"/>
        <pt x="244" y="-13" on="1"/>
        <pt x="227" y="-71" on="1"/>
        <pt x="282" y="-71" on="0"/>
        <pt x="359" y="-128" on="0"/>
        <pt x="359" y="-252" on="0"/>
        <pt x="278" y="-320" on="0"/>
        <pt x="165" y="-320" on="0"/>
        <pt x="98" y="-267" on="0"/>
        <pt x="98" y="-235" on="1"/>
        <pt x="98" y="-222" on="0"/>
        <pt x="112" y="-203" on="0"/>
        <pt x="144" y="-203" on="0"/>
        <pt x="162" y="-241" on="0"/>
        <pt x="192" y="-265" on="0"/>
        <pt x="256" y="-265" on="0"/>
        <pt x="297" y="-224" on="0"/>
        <pt x="297" y="-193" on="1"/>
        <pt x="297" y="-124" on="0"/>
        <pt x="206" y="-124" on="1"/>
        <pt x="174" y="-124" on="0"/>
        <pt x="174" y="-101" on="1"/>
        <pt x="174" y="-90" on="0"/>
        <pt x="179" y="-72" on="1"/>
        <pt x="198" y="-6" on="1"/>
        <pt x="53" y="29" on="0"/>
        <pt x="53" y="209" on="1"/>
        <pt x="53" y="328" on="0"/>
        <pt x="199" y="507" on="0"/>
      </contour>
    </TTGlyph>
    <TTGlyph name="cedilla" xMin="91" yMin="-320" xMax="352" yMax="0">
      <contour>
        <pt x="275" y="-71" on="0"/>
        <pt x="352" y="-128" on="0"/>
        <pt x="352" y="-252" on="0"/>
        <pt x="271" y="-320" on="0"/>
        <pt x="158" y="-320" on="0"/>
        <pt x="91" y="-267" on="0"/>
        <pt x="91" y="-235" on="1"/>
        <pt x="91" y="-222" on="0"/>
        <pt x="105" y="-203" on="0"/>
        <pt x="136" y="-203" on="0"/>
        <pt x="145" y="-220" on="1"/>
        <pt x="155" y="-241" on="0"/>
        <pt x="185" y="-265" on="0"/>
        <pt x="249" y="-265" on="0"/>
        <pt x="290" y="-224" on="0"/>
        <pt x="290" y="-193" on="1"/>
        <pt x="290" y="-124" on="0"/>
        <pt x="199" y="-124" on="1"/>
        <pt x="167" y="-124" on="0"/>
        <pt x="167" y="-101" on="1"/>
        <pt x="167" y="-90" on="0"/>
        <pt x="172" y="-72" on="1"/>
        <pt x="193" y="0" on="1"/>
        <pt x="241" y="0" on="1"/>
        <pt x="220" y="-71" on="1"/>
      </contour>
    </TTGlyph>
    <TTGlyph name="cent" xMin="153" yMin="-14" xMax="552" yMax="857">
      <contour>
        <pt x="488" y="675" on="0"/>
        <pt x="552" y="637" on="0"/>
        <pt x="552" y="606" on="0"/>
        <pt x="529" y="579" on="0"/>
        <pt x="511" y="579" on="0"/>
        <pt x="502" y="588" on="1"/>
        <pt x="471" y="615" on="0"/>
        <pt x="432" y="618" on="1"/>
        <pt x="374" y="222" on="1"/>
        <pt x="404" y="223" on="0"/>
        <pt x="460" y="249" on="0"/>
        <pt x="493" y="275" on="0"/>
        <pt x="494" y="275" on="1"/>
        <pt x="505" y="275" on="0"/>
        <pt x="520" y="245" on="0"/>
        <pt x="520" y="230" on="1"/>
        <pt x="520" y="212" on="0"/>
        <pt x="415" y="160" on="0"/>
        <pt x="365" y="160" on="1"/>
        <pt x="344" y="19" on="1"/>
        <pt x="340" y="-14" on="0"/>
        <pt x="309" y="-14" on="1"/>
        <pt x="284" y="-14" on="0"/>
        <pt x="284" y="6" on="1"/>
        <pt x="284" y="14" on="0"/>
        <pt x="287" y="33" on="1"/>
        <pt x="306" y="165" on="1"/>
        <pt x="231" y="181" on="0"/>
        <pt x="153" y="293" on="0"/>
        <pt x="153" y="487" on="0"/>
        <pt x="286" y="662" on="0"/>
        <pt x="382" y="678" on="1"/>
        <pt x="404" y="824" on="1"/>
        <pt x="409" y="857" on="0"/>
        <pt x="436" y="857" on="1"/>
        <pt x="452" y="857" on="0"/>
        <pt x="464" y="850" on="0"/>
        <pt x="464" y="826" on="0"/>
        <pt x="461" y="811" on="1"/>
        <pt x="441" y="680" on="1"/>
      </contour>
      <contour>
        <pt x="235" y="381" on="1"/>
        <pt x="235" y="261" on="0"/>
        <pt x="316" y="231" on="1"/>
        <pt x="373" y="612" on="1"/>
        <pt x="309" y="593" on="0"/>
        <pt x="235" y="459" on="0"/>
      </contour>
    </TTGlyph>
    <TTGlyph name="circumflex" xMin="50" yMin="598" xMax="354" yMax="806">
      <contour>
        <pt x="89" y="603" on="1"/>
        <pt x="84" y="598" on="0"/>
        <pt x="65" y="598" on="0"/>
        <pt x="50" y="613" on="0"/>
        <pt x="50" y="631" on="0"/>
        <pt x="54" y="637" on="1"/>
        <pt x="171" y="775" on="1"/>
        <pt x="172" y="776" on="0"/>
        <pt x="179" y="785" on="0"/>
        <pt x="184" y="790" on="0"/>
        <pt x="193" y="798" on="0"/>
        <pt x="198" y="800" on="1"/>
        <pt x="211" y="806" on="0"/>
        <pt x="222" y="806" on="1"/>
        <pt x="250" y="806" on="0"/>
        <pt x="263" y="783" on="1"/>
        <pt x="348" y="643" on="1"/>
        <pt x="354" y="633" on="0"/>
        <pt x="354" y="616" on="0"/>
        <pt x="334" y="598" on="0"/>
        <pt x="314" y="598" on="0"/>
        <pt x="304" y="611" on="1"/>
        <pt x="219" y="722" on="1"/>
      </contour>
    </TTGlyph>
    <TTGlyph name="circumflex.case" xMin="58" yMin="899" xMax="338" yMax="1086">
      <contour>
        <pt x="97" y="905" on="1"/>
        <pt x="92" y="900" on="0"/>
        <pt x="73" y="900" on="0"/>
        <pt x="58" y="915" on="0"/>
        <pt x="58" y="933" on="0"/>
        <pt x="62" y="939" on="1"/>
        <pt x="171" y="1055" on="1"/>
        <pt x="199" y="1086" on="0"/>
        <pt x="250" y="1086" on="0"/>
        <pt x="263" y="1063" on="1"/>
        <pt x="332" y="944" on="1"/>
        <pt x="338" y="934" on="0"/>
        <pt x="338" y="917" on="0"/>
        <pt x="318" y="899" on="0"/>
        <pt x="298" y="899" on="0"/>
        <pt x="288" y="912" on="1"/>
        <pt x="219" y="1002" on="1"/>
      </contour>
    </TTGlyph>
    <TTGlyph name="colon" xMin="50" yMin="-14" xMax="195" yMax="439">
      <contour>
        <pt x="152" y="48" on="1"/>
        <pt x="152" y="-14" on="0"/>
        <pt x="95" y="-14" on="1"/>
        <pt x="50" y="-14" on="0"/>
        <pt x="50" y="24" on="1"/>
        <pt x="50" y="85" on="0"/>
        <pt x="107" y="85" on="1"/>
        <pt x="152" y="85" on="0"/>
      </contour>
      <contour>
        <pt x="195" y="402" on="1"/>
        <pt x="195" y="340" on="0"/>
        <pt x="138" y="340" on="1"/>
        <pt x="93" y="340" on="0"/>
        <pt x="93" y="378" on="1"/>
        <pt x="93" y="439" on="0"/>
        <pt x="150" y="439" on="1"/>
        <pt x="195" y="439" on="0"/>
      </contour>
    </TTGlyph>
    <TTGlyph name="comma" xMin="50" yMin="-202" xMax="181" yMax="83">
      <contour>
        <pt x="112" y="-178" on="1"/>
        <pt x="104" y="-202" on="0"/>
        <pt x="50" y="-202" on="0"/>
        <pt x="50" y="-184" on="1"/>
        <pt x="50" y="-183" on="0"/>
        <pt x="51" y="-178" on="0"/>
        <pt x="53" y="-164" on="0"/>
        <pt x="57" y="-145" on="0"/>
        <pt x="64" y="-108" on="0"/>
        <pt x="72" y="-65" on="0"/>
        <pt x="85" y="5" on="0"/>
        <pt x="99" y="83" on="0"/>
        <pt x="181" y="83" on="0"/>
        <pt x="181" y="53" on="1"/>
        <pt x="181" y="28" on="0"/>
      </contour>
    </TTGlyph>
    <TTGlyph name="copyright" xMin="60" yMin="208" xMax="770" yMax="945">
      <contour>
        <pt x="444" y="945" on="1"/>
        <pt x="593" y="945" on="0"/>
        <pt x="770" y="786" on="0"/>
        <pt x="770" y="632" on="1"/>
        <pt x="770" y="508" on="0"/>
        <pt x="718" y="403" on="1"/>
        <pt x="689" y="346" on="0"/>
        <pt x="604" y="261" on="0"/>
        <pt x="469" y="208" on="0"/>
        <pt x="297" y="208" on="0"/>
        <pt x="167" y="258" on="0"/>
        <pt x="130" y="302" on="1"/>
        <pt x="60" y="388" on="0"/>
        <pt x="60" y="522" on="1"/>
        <pt x="60" y="646" on="0"/>
        <pt x="112" y="750" on="1"/>
        <pt x="141" y="807" on="0"/>
        <pt x="226" y="892" on="0"/>
        <pt x="361" y="945" on="0"/>
      </contour>
      <contour>
        <pt x="583" y="776" on="1"/>
        <pt x="605" y="753" on="0"/>
        <pt x="605" y="731" on="0"/>
        <pt x="579" y="711" on="0"/>
        <pt x="564" y="711" on="0"/>
        <pt x="546" y="730" on="0"/>
        <pt x="527" y="753" on="0"/>
        <pt x="484" y="772" on="0"/>
        <pt x="411" y="772" on="0"/>
        <pt x="342" y="720" on="0"/>
        <pt x="324" y="680" on="1"/>
        <pt x="287" y="601" on="0"/>
        <pt x="287" y="462" on="0"/>
        <pt x="347" y="384" on="0"/>
        <pt x="407" y="384" on="1"/>
        <pt x="441" y="384" on="0"/>
        <pt x="494" y="407" on="0"/>
        <pt x="506" y="422" on="1"/>
        <pt x="539" y="459" on="0"/>
        <pt x="560" y="459" on="0"/>
        <pt x="578" y="444" on="0"/>
        <pt x="578" y="433" on="1"/>
        <pt x="578" y="403" on="0"/>
        <pt x="470" y="327" on="0"/>
        <pt x="403" y="327" on="1"/>
        <pt x="309" y="327" on="0"/>
        <pt x="223" y="433" on="0"/>
        <pt x="223" y="522" on="1"/>
        <pt x="223" y="633" on="0"/>
        <pt x="274" y="723" on="1"/>
        <pt x="300" y="769" on="0"/>
        <pt x="394" y="825" on="0"/>
        <pt x="535" y="825" on="0"/>
      </contour>
      <contour>
        <pt x="444" y="900" on="1"/>
        <pt x="374" y="900" on="0"/>
        <pt x="260" y="853" on="0"/>
        <pt x="188" y="777" on="0"/>
        <pt x="164" y="726" on="1"/>
        <pt x="120" y="634" on="0"/>
        <pt x="120" y="402" on="0"/>
        <pt x="246" y="253" on="0"/>
        <pt x="386" y="253" on="1"/>
        <pt x="456" y="253" on="0"/>
        <pt x="570" y="301" on="0"/>
        <pt x="642" y="377" on="0"/>
        <pt x="666" y="428" on="1"/>
        <pt x="710" y="520" on="0"/>
        <pt x="710" y="632" on="1"/>
        <pt x="710" y="764" on="0"/>
        <pt x="566" y="900" on="0"/>
      </contour>
    </TTGlyph>
    <TTGlyph name="currency" xMin="23" yMin="113" xMax="638" yMax="730">
      <contour>
        <pt x="109" y="388" on="1"/>
        <pt x="109" y="480" on="0"/>
        <pt x="157" y="551" on="1"/>
        <pt x="58" y="672" on="1"/>
        <pt x="51" y="681" on="0"/>
        <pt x="51" y="706" on="0"/>
        <pt x="73" y="728" on="0"/>
        <pt x="101" y="728" on="0"/>
        <pt x="106" y="723" on="1"/>
        <pt x="204" y="602" on="1"/>
        <pt x="268" y="653" on="0"/>
        <pt x="362" y="653" on="1"/>
        <pt x="427" y="653" on="0"/>
        <pt x="476" y="619" on="1"/>
        <pt x="582" y="724" on="1"/>
        <pt x="588" y="730" on="0"/>
        <pt x="616" y="730" on="0"/>
        <pt x="638" y="707" on="0"/>
        <pt x="638" y="679" on="0"/>
        <pt x="629" y="674" on="1"/>
        <pt x="523" y="567" on="1"/>
        <pt x="552" y="517" on="0"/>
        <pt x="552" y="454" on="1"/>
        <pt x="552" y="362" on="0"/>
        <pt x="501" y="292" on="1"/>
        <pt x="603" y="169" on="1"/>
        <pt x="610" y="160" on="0"/>
        <pt x="610" y="136" on="0"/>
        <pt x="588" y="113" on="0"/>
        <pt x="560" y="113" on="0"/>
        <pt x="555" y="118" on="1"/>
        <pt x="453" y="242" on="1"/>
        <pt x="388" y="191" on="0"/>
        <pt x="298" y="191" on="1"/>
        <pt x="232" y="191" on="0"/>
        <pt x="183" y="225" on="1"/>
        <pt x="78" y="118" on="1"/>
        <pt x="73" y="113" on="0"/>
        <pt x="48" y="113" on="0"/>
        <pt x="23" y="138" on="0"/>
        <pt x="23" y="160" on="0"/>
        <pt x="30" y="169" on="1"/>
        <pt x="137" y="276" on="1"/>
        <pt x="109" y="323" on="0"/>
      </contour>
      <contour>
        <pt x="277" y="589" on="0"/>
        <pt x="188" y="470" on="0"/>
        <pt x="188" y="334" on="0"/>
        <pt x="246" y="256" on="0"/>
        <pt x="377" y="256" on="0"/>
        <pt x="475" y="369" on="0"/>
        <pt x="475" y="510" on="0"/>
        <pt x="414" y="589" on="0"/>
        <pt x="355" y="589" on="1"/>
      </contour>
    </TTGlyph>
    <TTGlyph name="d" xMin="42" yMin="-14" xMax="530" yMax="887">
      <contour>
        <pt x="450" y="207" on="1"/>
        <pt x="446" y="164" on="0"/>
        <pt x="446" y="91" on="0"/>
        <pt x="464" y="19" on="0"/>
        <pt x="464" y="14" on="1"/>
        <pt x="464" y="2" on="0"/>
        <pt x="426" y="-14" on="0"/>
        <pt x="402" y="-14" on="0"/>
        <pt x="391" y="4" on="0"/>
        <pt x="384" y="35" on="0"/>
        <pt x="381" y="64" on="0"/>
        <pt x="378" y="97" on="0"/>
        <pt x="377" y="102" on="1"/>
        <pt x="354" y="48" on="0"/>
        <pt x="253" y="-14" on="0"/>
        <pt x="133" y="-14" on="0"/>
        <pt x="42" y="78" on="0"/>
        <pt x="42" y="167" on="1"/>
        <pt x="42" y="263" on="0"/>
        <pt x="88" y="344" on="1"/>
        <pt x="115" y="391" on="0"/>
        <pt x="196" y="462" on="0"/>
        <pt x="328" y="507" on="0"/>
        <pt x="411" y="507" on="1"/>
        <pt x="456" y="864" on="1"/>
        <pt x="457" y="887" on="0"/>
        <pt x="502" y="887" on="1"/>
        <pt x="530" y="887" on="0"/>
        <pt x="530" y="864" on="1"/>
      </contour>
      <contour>
        <pt x="380" y="445" on="1"/>
        <pt x="270" y="445" on="0"/>
        <pt x="124" y="287" on="0"/>
        <pt x="124" y="176" on="1"/>
        <pt x="124" y="123" on="0"/>
        <pt x="174" y="52" on="0"/>
        <pt x="222" y="52" on="1"/>
        <pt x="356" y="52" on="0"/>
        <pt x="387" y="304" on="1"/>
        <pt x="404" y="442" on="1"/>
        <pt x="397" y="445" on="0"/>
      </contour>
    </TTGlyph>
    <TTGlyph name="dagger" xMin="45" yMin="-38" xMax="473" yMax="887">
      <contour>
        <pt x="441" y="704" on="1"/>
        <pt x="473" y="704" on="0"/>
        <pt x="473" y="677" on="1"/>
        <pt x="473" y="641" on="0"/>
        <pt x="437" y="641" on="1"/>
        <pt x="293" y="641" on="1"/>
        <pt x="212" y="-13" on="1"/>
        <pt x="209" y="-38" on="0"/>
        <pt x="165" y="-38" on="1"/>
        <pt x="150" y="-38" on="0"/>
        <pt x="138" y="-30" on="0"/>
        <pt x="138" y="-18" on="1"/>
        <pt x="219" y="641" on="1"/>
        <pt x="78" y="641" on="1"/>
        <pt x="45" y="641" on="0"/>
        <pt x="45" y="667" on="1"/>
        <pt x="45" y="704" on="0"/>
        <pt x="82" y="704" on="1"/>
        <pt x="226" y="704" on="1"/>
        <pt x="246" y="861" on="1"/>
        <pt x="250" y="887" on="0"/>
        <pt x="321" y="887" on="0"/>
        <pt x="321" y="866" on="1"/>
        <pt x="301" y="704" on="1"/>
      </contour>
    </TTGlyph>
    <TTGlyph name="daggerdbl" xMin="-14" yMin="-38" xMax="473" yMax="887">
      <contour>
        <pt x="441" y="704" on="1"/>
        <pt x="473" y="704" on="0"/>
        <pt x="473" y="677" on="1"/>
        <pt x="473" y="641" on="0"/>
        <pt x="437" y="641" on="1"/>
        <pt x="293" y="641" on="1"/>
        <pt x="239" y="208" on="1"/>
        <pt x="381" y="208" on="1"/>
        <pt x="414" y="208" on="0"/>
        <pt x="414" y="182" on="1"/>
        <pt x="414" y="145" on="0"/>
        <pt x="377" y="145" on="1"/>
        <pt x="231" y="145" on="1"/>
        <pt x="212" y="-13" on="1"/>
        <pt x="209" y="-38" on="0"/>
        <pt x="165" y="-38" on="1"/>
        <pt x="150" y="-38" on="0"/>
        <pt x="138" y="-30" on="0"/>
        <pt x="138" y="-18" on="1"/>
        <pt x="158" y="145" on="1"/>
        <pt x="18" y="145" on="1"/>
        <pt x="-14" y="145" on="0"/>
        <pt x="-14" y="172" on="1"/>
        <pt x="-14" y="208" on="0"/>
        <pt x="22" y="208" on="1"/>
        <pt x="165" y="208" on="1"/>
        <pt x="219" y="641" on="1"/>
        <pt x="78" y="641" on="1"/>
        <pt x="45" y="641" on="0"/>
        <pt x="45" y="667" on="1"/>
        <pt x="45" y="704" on="0"/>
        <pt x="82" y="704" on="1"/>
        <pt x="226" y="704" on="1"/>
        <pt x="246" y="861" on="1"/>
        <pt x="250" y="887" on="0"/>
        <pt x="321" y="887" on="0"/>
        <pt x="321" y="866" on="1"/>
        <pt x="301" y="704" on="1"/>
      </contour>
    </TTGlyph>
    <TTGlyph name="degree" xMin="70" yMin="479" xMax="447" yMax="871">
      <contour>
        <pt x="153" y="479" on="0"/>
        <pt x="70" y="575" on="0"/>
        <pt x="70" y="700" on="0"/>
        <pt x="112" y="799" on="0"/>
        <pt x="213" y="871" on="0"/>
        <pt x="362" y="871" on="0"/>
        <pt x="447" y="773" on="0"/>
        <pt x="447" y="702" on="1"/>
        <pt x="447" y="609" on="0"/>
        <pt x="327" y="479" on="0"/>
        <pt x="231" y="479" on="1"/>
      </contour>
      <contour>
        <pt x="213" y="817" on="0"/>
        <pt x="137" y="716" on="0"/>
        <pt x="137" y="600" on="0"/>
        <pt x="187" y="534" on="0"/>
        <pt x="298" y="534" on="0"/>
        <pt x="381" y="630" on="0"/>
        <pt x="381" y="750" on="0"/>
        <pt x="329" y="817" on="0"/>
        <pt x="279" y="817" on="1"/>
      </contour>
    </TTGlyph>
    <TTGlyph name="dieresis" xMin="50" yMin="630" xMax="344" yMax="729">
      <contour>
        <pt x="152" y="692" on="1"/>
        <pt x="152" y="630" on="0"/>
        <pt x="95" y="630" on="1"/>
        <pt x="50" y="630" on="0"/>
        <pt x="50" y="668" on="1"/>
        <pt x="50" y="729" on="0"/>
        <pt x="107" y="729" on="1"/>
        <pt x="152" y="729" on="0"/>
      </contour>
      <contour>
        <pt x="344" y="692" on="1"/>
        <pt x="344" y="630" on="0"/>
        <pt x="287" y="630" on="1"/>
        <pt x="242" y="630" on="0"/>
        <pt x="242" y="668" on="1"/>
        <pt x="242" y="729" on="0"/>
        <pt x="299" y="729" on="1"/>
        <pt x="344" y="729" on="0"/>
      </contour>
    </TTGlyph>
    <TTGlyph name="dieresis.case" xMin="50" yMin="930" xMax="344" yMax="1029">
      <contour>
        <pt x="152" y="992" on="1"/>
        <pt x="152" y="930" on="0"/>
        <pt x="95" y="930" on="1"/>
        <pt x="50" y="930" on="0"/>
        <pt x="50" y="968" on="1"/>
        <pt x="50" y="1029" on="0"/>
        <pt x="107" y="1029" on="1"/>
        <pt x="152" y="1029" on="0"/>
      </contour>
      <contour>
        <pt x="344" y="992" on="1"/>
        <pt x="344" y="930" on="0"/>
        <pt x="287" y="930" on="1"/>
        <pt x="242" y="930" on="0"/>
        <pt x="242" y="968" on="1"/>
        <pt x="242" y="1029" on="0"/>
        <pt x="299" y="1029" on="1"/>
        <pt x="344" y="1029" on="0"/>
      </contour>
    </TTGlyph>
    <TTGlyph name="divide" xMin="120" yMin="116" xMax="549" yMax="707">
      <contour>
        <pt x="458" y="696" on="1"/>
        <pt x="464" y="707" on="0"/>
        <pt x="495" y="707" on="0"/>
        <pt x="522" y="687" on="0"/>
        <pt x="522" y="662" on="0"/>
        <pt x="519" y="659" on="1"/>
        <pt x="213" y="127" on="1"/>
        <pt x="207" y="116" on="0"/>
        <pt x="176" y="116" on="0"/>
        <pt x="148" y="138" on="0"/>
        <pt x="148" y="153" on="1"/>
        <pt x="148" y="155" on="0"/>
        <pt x="151" y="164" on="1"/>
      </contour>
      <contour>
        <pt x="151" y="448" on="0"/>
        <pt x="120" y="480" on="0"/>
        <pt x="120" y="524" on="0"/>
        <pt x="152" y="556" on="0"/>
        <pt x="196" y="556" on="0"/>
        <pt x="228" y="524" on="0"/>
        <pt x="228" y="481" on="0"/>
        <pt x="196" y="448" on="0"/>
      </contour>
      <contour>
        <pt x="472" y="263" on="0"/>
        <pt x="441" y="295" on="0"/>
        <pt x="441" y="339" on="0"/>
        <pt x="472" y="371" on="0"/>
        <pt x="517" y="371" on="0"/>
        <pt x="549" y="339" on="0"/>
        <pt x="549" y="295" on="0"/>
        <pt x="517" y="263" on="0"/>
      </contour>
    </TTGlyph>
    <TTGlyph name="dollar" xMin="45" yMin="-120" xMax="596" yMax="963">
      <contour>
        <pt x="214" y="-98" on="1"/>
        <pt x="215" y="-87" on="1"/>
        <pt x="228" y="-9" on="1"/>
        <pt x="155" y="4" on="0"/>
        <pt x="104" y="48" on="1"/>
        <pt x="80" y="68" on="0"/>
        <pt x="45" y="127" on="0"/>
        <pt x="45" y="148" on="1"/>
        <pt x="45" y="189" on="0"/>
        <pt x="77" y="189" on="1"/>
        <pt x="88" y="189" on="0"/>
        <pt x="103" y="174" on="0"/>
        <pt x="122" y="134" on="0"/>
        <pt x="127" y="126" on="1"/>
        <pt x="170" y="64" on="0"/>
        <pt x="239" y="53" on="1"/>
        <pt x="304" y="418" on="1"/>
        <pt x="181" y="507" on="0"/>
        <pt x="153" y="576" on="1"/>
        <pt x="140" y="608" on="0"/>
        <pt x="140" y="645" on="1"/>
        <pt x="140" y="743" on="0"/>
        <pt x="276" y="856" on="0"/>
        <pt x="381" y="860" on="1"/>
        <pt x="394" y="930" on="1"/>
        <pt x="398" y="951" on="0"/>
        <pt x="410" y="963" on="0"/>
        <pt x="444" y="963" on="0"/>
        <pt x="453" y="952" on="0"/>
        <pt x="453" y="930" on="1"/>
        <pt x="440" y="856" on="1"/>
        <pt x="503" y="846" on="0"/>
        <pt x="596" y="782" on="0"/>
        <pt x="596" y="719" on="0"/>
        <pt x="568" y="719" on="1"/>
        <pt x="555" y="719" on="0"/>
        <pt x="473" y="784" on="0"/>
        <pt x="429" y="793" on="1"/>
        <pt x="372" y="467" on="1"/>
        <pt x="414" y="437" on="0"/>
        <pt x="461" y="398" on="0"/>
        <pt x="491" y="366" on="1"/>
        <pt x="549" y="306" on="0"/>
        <pt x="549" y="225" on="1"/>
        <pt x="549" y="114" on="0"/>
        <pt x="404" y="-13" on="0"/>
        <pt x="287" y="-14" on="1"/>
        <pt x="274" y="-87" on="1"/>
        <pt x="270" y="-108" on="0"/>
        <pt x="258" y="-120" on="0"/>
        <pt x="226" y="-120" on="0"/>
        <pt x="214" y="-112" on="0"/>
      </contour>
      <contour>
        <pt x="469" y="221" on="1"/>
        <pt x="469" y="265" on="0"/>
        <pt x="410" y="339" on="0"/>
        <pt x="356" y="379" on="1"/>
        <pt x="298" y="50" on="1"/>
        <pt x="374" y="55" on="0"/>
        <pt x="469" y="149" on="0"/>
      </contour>
      <contour>
        <pt x="221" y="647" on="1"/>
        <pt x="221" y="608" on="0"/>
        <pt x="272" y="541" on="0"/>
        <pt x="319" y="505" on="1"/>
        <pt x="370" y="796" on="1"/>
        <pt x="302" y="792" on="0"/>
        <pt x="221" y="712" on="0"/>
      </contour>
    </TTGlyph>
    <TTGlyph name="dotaccent" xMin="50" yMin="630" xMax="152" yMax="729">
      <contour>
        <pt x="152" y="692" on="1"/>
        <pt x="152" y="630" on="0"/>
        <pt x="95" y="630" on="1"/>
        <pt x="50" y="630" on="0"/>
        <pt x="50" y="668" on="1"/>
        <pt x="50" y="729" on="0"/>
        <pt x="107" y="729" on="1"/>
        <pt x="152" y="729" on="0"/>
      </contour>
    </TTGlyph>
    <TTGlyph name="dotaccent.case" xMin="50" yMin="930" xMax="152" yMax="1029">
      <contour>
        <pt x="152" y="992" on="1"/>
        <pt x="152" y="930" on="0"/>
        <pt x="95" y="930" on="1"/>
        <pt x="50" y="930" on="0"/>
        <pt x="50" y="968" on="1"/>
        <pt x="50" y="1029" on="0"/>
        <pt x="107" y="1029" on="1"/>
        <pt x="152" y="1029" on="0"/>
      </contour>
    </TTGlyph>
    <TTGlyph name="dotlessi" xMin="69" yMin="-14" xMax="201" yMax="507">
      <contour>
        <pt x="96" y="-14" on="1"/>
        <pt x="81" y="-14" on="0"/>
        <pt x="69" y="-6" on="0"/>
        <pt x="69" y="6" on="1"/>
        <pt x="126" y="482" on="1"/>
        <pt x="129" y="507" on="0"/>
        <pt x="201" y="507" on="0"/>
        <pt x="201" y="487" on="1"/>
        <pt x="143" y="11" on="1"/>
        <pt x="140" y="-14" on="0"/>
      </contour>
    </TTGlyph>
    <TTGlyph name="e" xMin="53" yMin="-14" xMax="451" yMax="507">
      <contour>
        <pt x="378" y="395" on="1"/>
        <pt x="378" y="420" on="0"/>
        <pt x="347" y="447" on="0"/>
        <pt x="322" y="447" on="1"/>
        <pt x="268" y="447" on="0"/>
        <pt x="152" y="348" on="0"/>
        <pt x="138" y="265" on="1"/>
        <pt x="231" y="265" on="0"/>
        <pt x="378" y="339" on="0"/>
      </contour>
      <contour>
        <pt x="53" y="207" on="1"/>
        <pt x="53" y="280" on="0"/>
        <pt x="107" y="400" on="0"/>
        <pt x="148" y="435" on="1"/>
        <pt x="234" y="507" on="0"/>
        <pt x="326" y="507" on="1"/>
        <pt x="381" y="507" on="0"/>
        <pt x="451" y="454" on="0"/>
        <pt x="451" y="405" on="1"/>
        <pt x="451" y="317" on="0"/>
        <pt x="268" y="206" on="0"/>
        <pt x="134" y="206" on="1"/>
        <pt x="134" y="131" on="0"/>
        <pt x="204" y="48" on="0"/>
        <pt x="270" y="48" on="1"/>
        <pt x="301" y="48" on="0"/>
        <pt x="359" y="74" on="0"/>
        <pt x="376" y="88" on="1"/>
        <pt x="393" y="101" on="1"/>
        <pt x="404" y="101" on="0"/>
        <pt x="420" y="71" on="0"/>
        <pt x="420" y="56" on="1"/>
        <pt x="420" y="38" on="0"/>
        <pt x="315" y="-14" on="0"/>
        <pt x="266" y="-14" on="1"/>
        <pt x="162" y="-14" on="0"/>
        <pt x="53" y="101" on="0"/>
      </contour>
    </TTGlyph>
    <TTGlyph name="eacute" xMin="53" yMin="-14" xMax="451" yMax="806">
      <contour>
        <pt x="378" y="395" on="1"/>
        <pt x="378" y="420" on="0"/>
        <pt x="347" y="447" on="0"/>
        <pt x="322" y="447" on="1"/>
        <pt x="268" y="447" on="0"/>
        <pt x="152" y="348" on="0"/>
        <pt x="138" y="265" on="1"/>
        <pt x="231" y="265" on="0"/>
        <pt x="378" y="339" on="0"/>
      </contour>
      <contour>
        <pt x="53" y="207" on="1"/>
        <pt x="53" y="280" on="0"/>
        <pt x="107" y="400" on="0"/>
        <pt x="148" y="435" on="1"/>
        <pt x="234" y="507" on="0"/>
        <pt x="326" y="507" on="1"/>
        <pt x="381" y="507" on="0"/>
        <pt x="451" y="454" on="0"/>
        <pt x="451" y="405" on="1"/>
        <pt x="451" y="317" on="0"/>
        <pt x="268" y="206" on="0"/>
        <pt x="134" y="206" on="1"/>
        <pt x="134" y="131" on="0"/>
        <pt x="204" y="48" on="0"/>
        <pt x="270" y="48" on="1"/>
        <pt x="301" y="48" on="0"/>
        <pt x="359" y="74" on="0"/>
        <pt x="376" y="88" on="1"/>
        <pt x="393" y="101" on="1"/>
        <pt x="404" y="101" on="0"/>
        <pt x="420" y="71" on="0"/>
        <pt x="420" y="56" on="1"/>
        <pt x="420" y="38" on="0"/>
        <pt x="315" y="-14" on="0"/>
        <pt x="266" y="-14" on="1"/>
        <pt x="162" y="-14" on="0"/>
        <pt x="53" y="101" on="0"/>
      </contour>
      <contour>
        <pt x="335" y="799" on="1"/>
        <pt x="341" y="806" on="0"/>
        <pt x="370" y="806" on="0"/>
        <pt x="396" y="781" on="0"/>
        <pt x="396" y="752" on="0"/>
        <pt x="383" y="740" on="1"/>
        <pt x="233" y="603" on="1"/>
        <pt x="228" y="598" on="0"/>
        <pt x="209" y="598" on="0"/>
        <pt x="194" y="613" on="0"/>
        <pt x="194" y="631" on="0"/>
        <pt x="198" y="637" on="1"/>
      </contour>
    </TTGlyph>
    <TTGlyph name="ecircumflex" xMin="53" yMin="-14" xMax="452" yMax="806">
      <contour>
        <pt x="378" y="395" on="1"/>
        <pt x="378" y="420" on="0"/>
        <pt x="347" y="447" on="0"/>
        <pt x="322" y="447" on="1"/>
        <pt x="268" y="447" on="0"/>
        <pt x="152" y="348" on="0"/>
        <pt x="138" y="265" on="1"/>
        <pt x="231" y="265" on="0"/>
        <pt x="378" y="339" on="0"/>
      </contour>
      <contour>
        <pt x="53" y="207" on="1"/>
        <pt x="53" y="280" on="0"/>
        <pt x="107" y="400" on="0"/>
        <pt x="148" y="435" on="1"/>
        <pt x="234" y="507" on="0"/>
        <pt x="326" y="507" on="1"/>
        <pt x="381" y="507" on="0"/>
        <pt x="451" y="454" on="0"/>
        <pt x="451" y="405" on="1"/>
        <pt x="451" y="317" on="0"/>
        <pt x="268" y="206" on="0"/>
        <pt x="134" y="206" on="1"/>
        <pt x="134" y="131" on="0"/>
        <pt x="204" y="48" on="0"/>
        <pt x="270" y="48" on="1"/>
        <pt x="301" y="48" on="0"/>
        <pt x="359" y="74" on="0"/>
        <pt x="376" y="88" on="1"/>
        <pt x="393" y="101" on="1"/>
        <pt x="404" y="101" on="0"/>
        <pt x="420" y="71" on="0"/>
        <pt x="420" y="56" on="1"/>
        <pt x="420" y="38" on="0"/>
        <pt x="315" y="-14" on="0"/>
        <pt x="266" y="-14" on="1"/>
        <pt x="162" y="-14" on="0"/>
        <pt x="53" y="101" on="0"/>
      </contour>
      <contour>
        <pt x="187" y="603" on="1"/>
        <pt x="182" y="598" on="0"/>
        <pt x="163" y="598" on="0"/>
        <pt x="148" y="613" on="0"/>
        <pt x="148" y="631" on="0"/>
        <pt x="152" y="637" on="1"/>
        <pt x="269" y="775" on="1"/>
        <pt x="270" y="776" on="0"/>
        <pt x="277" y="785" on="0"/>
        <pt x="282" y="790" on="0"/>
        <pt x="291" y="798" on="0"/>
        <pt x="296" y="800" on="1"/>
        <pt x="309" y="806" on="0"/>
        <pt x="320" y="806" on="1"/>
        <pt x="348" y="806" on="0"/>
        <pt x="361" y="783" on="1"/>
        <pt x="446" y="643" on="1"/>
        <pt x="452" y="633" on="0"/>
        <pt x="452" y="616" on="0"/>
        <pt x="432" y="598" on="0"/>
        <pt x="412" y="598" on="0"/>
        <pt x="402" y="611" on="1"/>
        <pt x="317" y="722" on="1"/>
      </contour>
    </TTGlyph>
    <TTGlyph name="edieresis" xMin="53" yMin="-14" xMax="457" yMax="729">
      <contour>
        <pt x="378" y="395" on="1"/>
        <pt x="378" y="420" on="0"/>
        <pt x="347" y="447" on="0"/>
        <pt x="322" y="447" on="1"/>
        <pt x="268" y="447" on="0"/>
        <pt x="152" y="348" on="0"/>
        <pt x="138" y="265" on="1"/>
        <pt x="231" y="265" on="0"/>
        <pt x="378" y="339" on="0"/>
      </contour>
      <contour>
        <pt x="53" y="207" on="1"/>
        <pt x="53" y="280" on="0"/>
        <pt x="107" y="400" on="0"/>
        <pt x="148" y="435" on="1"/>
        <pt x="234" y="507" on="0"/>
        <pt x="326" y="507" on="1"/>
        <pt x="381" y="507" on="0"/>
        <pt x="451" y="454" on="0"/>
        <pt x="451" y="405" on="1"/>
        <pt x="451" y="317" on="0"/>
        <pt x="268" y="206" on="0"/>
        <pt x="134" y="206" on="1"/>
        <pt x="134" y="131" on="0"/>
        <pt x="204" y="48" on="0"/>
        <pt x="270" y="48" on="1"/>
        <pt x="301" y="48" on="0"/>
        <pt x="359" y="74" on="0"/>
        <pt x="376" y="88" on="1"/>
        <pt x="393" y="101" on="1"/>
        <pt x="404" y="101" on="0"/>
        <pt x="420" y="71" on="0"/>
        <pt x="420" y="56" on="1"/>
        <pt x="420" y="38" on="0"/>
        <pt x="315" y="-14" on="0"/>
        <pt x="266" y="-14" on="1"/>
        <pt x="162" y="-14" on="0"/>
        <pt x="53" y="101" on="0"/>
      </contour>
      <contour>
        <pt x="265" y="692" on="1"/>
        <pt x="265" y="630" on="0"/>
        <pt x="208" y="630" on="1"/>
        <pt x="163" y="630" on="0"/>
        <pt x="163" y="668" on="1"/>
        <pt x="163" y="729" on="0"/>
        <pt x="220" y="729" on="1"/>
        <pt x="265" y="729" on="0"/>
      </contour>
      <contour>
        <pt x="457" y="692" on="1"/>
        <pt x="457" y="630" on="0"/>
        <pt x="400" y="630" on="1"/>
        <pt x="355" y="630" on="0"/>
        <pt x="355" y="668" on="1"/>
        <pt x="355" y="729" on="0"/>
        <pt x="412" y="729" on="1"/>
        <pt x="457" y="729" on="0"/>
      </contour>
    </TTGlyph>
    <TTGlyph name="egrave" xMin="53" yMin="-14" xMax="451" yMax="806">
      <contour>
        <pt x="378" y="395" on="1"/>
        <pt x="378" y="420" on="0"/>
        <pt x="347" y="447" on="0"/>
        <pt x="322" y="447" on="1"/>
        <pt x="268" y="447" on="0"/>
        <pt x="152" y="348" on="0"/>
        <pt x="138" y="265" on="1"/>
        <pt x="231" y="265" on="0"/>
        <pt x="378" y="339" on="0"/>
      </contour>
      <contour>
        <pt x="53" y="207" on="1"/>
        <pt x="53" y="280" on="0"/>
        <pt x="107" y="400" on="0"/>
        <pt x="148" y="435" on="1"/>
        <pt x="234" y="507" on="0"/>
        <pt x="326" y="507" on="1"/>
        <pt x="381" y="507" on="0"/>
        <pt x="451" y="454" on="0"/>
        <pt x="451" y="405" on="1"/>
        <pt x="451" y="317" on="0"/>
        <pt x="268" y="206" on="0"/>
        <pt x="134" y="206" on="1"/>
        <pt x="134" y="131" on="0"/>
        <pt x="204" y="48" on="0"/>
        <pt x="270" y="48" on="1"/>
        <pt x="301" y="48" on="0"/>
        <pt x="359" y="74" on="0"/>
        <pt x="376" y="88" on="1"/>
        <pt x="393" y="101" on="1"/>
        <pt x="404" y="101" on="0"/>
        <pt x="420" y="71" on="0"/>
        <pt x="420" y="56" on="1"/>
        <pt x="420" y="38" on="0"/>
        <pt x="315" y="-14" on="0"/>
        <pt x="266" y="-14" on="1"/>
        <pt x="162" y="-14" on="0"/>
        <pt x="53" y="101" on="0"/>
      </contour>
      <contour>
        <pt x="418" y="637" on="1"/>
        <pt x="422" y="631" on="0"/>
        <pt x="422" y="613" on="0"/>
        <pt x="407" y="598" on="0"/>
        <pt x="388" y="598" on="0"/>
        <pt x="383" y="603" on="1"/>
        <pt x="233" y="740" on="1"/>
        <pt x="220" y="752" on="0"/>
        <pt x="220" y="781" on="0"/>
        <pt x="246" y="806" on="0"/>
        <pt x="275" y="806" on="0"/>
        <pt x="281" y="799" on="1"/>
      </contour>
    </TTGlyph>
    <TTGlyph name="eight" xMin="42" yMin="-14" xMax="616" yMax="857">
      <contour>
        <pt x="594" y="239" on="1"/>
        <pt x="594" y="114" on="0"/>
        <pt x="436" y="-14" on="0"/>
        <pt x="197" y="-14" on="0"/>
        <pt x="42" y="102" on="0"/>
        <pt x="42" y="202" on="1"/>
        <pt x="42" y="392" on="0"/>
        <pt x="226" y="455" on="1"/>
        <pt x="116" y="520" on="0"/>
        <pt x="116" y="638" on="1"/>
        <pt x="116" y="742" on="0"/>
        <pt x="263" y="857" on="0"/>
        <pt x="471" y="857" on="0"/>
        <pt x="616" y="750" on="0"/>
        <pt x="616" y="580" on="0"/>
        <pt x="526" y="472" on="0"/>
        <pt x="449" y="445" on="1"/>
        <pt x="512" y="414" on="0"/>
        <pt x="594" y="304" on="0"/>
      </contour>
      <contour>
        <pt x="533" y="655" on="1"/>
        <pt x="533" y="708" on="0"/>
        <pt x="455" y="789" on="0"/>
        <pt x="289" y="789" on="0"/>
        <pt x="199" y="702" on="0"/>
        <pt x="199" y="581" on="0"/>
        <pt x="288" y="504" on="0"/>
        <pt x="356" y="487" on="1"/>
        <pt x="533" y="527" on="0"/>
      </contour>
      <contour>
        <pt x="508" y="234" on="1"/>
        <pt x="508" y="300" on="0"/>
        <pt x="395" y="403" on="0"/>
        <pt x="323" y="412" on="1"/>
        <pt x="233" y="399" on="0"/>
        <pt x="124" y="295" on="0"/>
        <pt x="124" y="140" on="0"/>
        <pt x="227" y="50" on="0"/>
        <pt x="393" y="50" on="0"/>
        <pt x="508" y="150" on="0"/>
      </contour>
    </TTGlyph>
    <TTGlyph name="eightinferior" xMin="48" yMin="-208" xMax="403" yMax="321">
      <contour>
        <pt x="403" y="196" on="1"/>
        <pt x="403" y="113" on="0"/>
        <pt x="307" y="68" on="1"/>
        <pt x="390" y="27" on="0"/>
        <pt x="390" y="-128" on="0"/>
        <pt x="292" y="-208" on="0"/>
        <pt x="144" y="-208" on="0"/>
        <pt x="48" y="-136" on="0"/>
        <pt x="48" y="-69" on="1"/>
        <pt x="48" y="36" on="0"/>
        <pt x="155" y="78" on="1"/>
        <pt x="92" y="122" on="0"/>
        <pt x="92" y="249" on="0"/>
        <pt x="183" y="321" on="0"/>
        <pt x="312" y="321" on="0"/>
        <pt x="403" y="254" on="0"/>
      </contour>
      <contour>
        <pt x="281" y="108" on="0"/>
        <pt x="337" y="157" on="0"/>
        <pt x="337" y="221" on="0"/>
        <pt x="295" y="263" on="0"/>
        <pt x="206" y="263" on="0"/>
        <pt x="157" y="218" on="0"/>
        <pt x="157" y="154" on="0"/>
        <pt x="207" y="108" on="0"/>
        <pt x="242" y="100" on="1"/>
      </contour>
      <contour>
        <pt x="259" y="-153" on="0"/>
        <pt x="322" y="-99" on="0"/>
        <pt x="322" y="-18" on="0"/>
        <pt x="260" y="42" on="0"/>
        <pt x="223" y="47" on="1"/>
        <pt x="176" y="38" on="0"/>
        <pt x="113" y="-24" on="0"/>
        <pt x="113" y="-105" on="0"/>
        <pt x="169" y="-153" on="0"/>
      </contour>
    </TTGlyph>
    <TTGlyph name="ellipsis" xMin="50" yMin="-14" xMax="556" yMax="85">
      <contour>
        <pt x="152" y="48" on="1"/>
        <pt x="152" y="-14" on="0"/>
        <pt x="95" y="-14" on="1"/>
        <pt x="50" y="-14" on="0"/>
        <pt x="50" y="24" on="1"/>
        <pt x="50" y="85" on="0"/>
        <pt x="107" y="85" on="1"/>
        <pt x="152" y="85" on="0"/>
      </contour>
      <contour>
        <pt x="354" y="48" on="1"/>
        <pt x="354" y="-14" on="0"/>
        <pt x="297" y="-14" on="1"/>
        <pt x="252" y="-14" on="0"/>
        <pt x="252" y="24" on="1"/>
        <pt x="252" y="85" on="0"/>
        <pt x="309" y="85" on="1"/>
        <pt x="354" y="85" on="0"/>
      </contour>
      <contour>
        <pt x="556" y="48" on="1"/>
        <pt x="556" y="-14" on="0"/>
        <pt x="499" y="-14" on="1"/>
        <pt x="454" y="-14" on="0"/>
        <pt x="454" y="24" on="1"/>
        <pt x="454" y="85" on="0"/>
        <pt x="511" y="85" on="1"/>
        <pt x="556" y="85" on="0"/>
      </contour>
    </TTGlyph>
    <TTGlyph name="emdash" xMin="0" yMin="239" xMax="840" yMax="297">
      <contour>
        <pt x="25" y="297" on="1"/>
        <pt x="818" y="297" on="1"/>
        <pt x="828" y="297" on="0"/>
        <pt x="840" y="281" on="0"/>
        <pt x="840" y="270" on="1"/>
        <pt x="840" y="239" on="0"/>
        <pt x="813" y="239" on="1"/>
        <pt x="18" y="239" on="1"/>
        <pt x="0" y="239" on="0"/>
        <pt x="0" y="297" on="0"/>
      </contour>
    </TTGlyph>
    <TTGlyph name="endash" xMin="0" yMin="239" xMax="581" yMax="297">
      <contour>
        <pt x="25" y="297" on="1"/>
        <pt x="559" y="297" on="1"/>
        <pt x="569" y="297" on="0"/>
        <pt x="581" y="281" on="0"/>
        <pt x="581" y="270" on="1"/>
        <pt x="581" y="239" on="0"/>
        <pt x="554" y="239" on="1"/>
        <pt x="18" y="239" on="1"/>
        <pt x="0" y="239" on="0"/>
        <pt x="0" y="297" on="0"/>
      </contour>
    </TTGlyph>
    <TTGlyph name="equal" xMin="76" yMin="280" xMax="595" yMax="539">
      <contour>
        <pt x="105" y="346" on="1"/>
        <pt x="549" y="346" on="1"/>
        <pt x="558" y="346" on="0"/>
        <pt x="571" y="329" on="0"/>
        <pt x="571" y="303" on="0"/>
        <pt x="555" y="280" on="0"/>
        <pt x="540" y="280" on="1"/>
        <pt x="97" y="280" on="1"/>
        <pt x="76" y="280" on="0"/>
        <pt x="76" y="308" on="1"/>
        <pt x="76" y="323" on="0"/>
        <pt x="92" y="346" on="0"/>
      </contour>
      <contour>
        <pt x="129" y="539" on="1"/>
        <pt x="568" y="539" on="1"/>
        <pt x="595" y="539" on="0"/>
        <pt x="595" y="508" on="1"/>
        <pt x="595" y="495" on="0"/>
        <pt x="578" y="473" on="0"/>
        <pt x="566" y="473" on="1"/>
        <pt x="120" y="473" on="1"/>
        <pt x="110" y="473" on="0"/>
        <pt x="99" y="492" on="0"/>
        <pt x="99" y="518" on="0"/>
        <pt x="117" y="539" on="0"/>
      </contour>
    </TTGlyph>
    <TTGlyph name="eslash" xMin="34" yMin="303" xMax="326" yMax="486">
      <contour>
        <pt x="281" y="478" on="1"/>
        <pt x="297" y="486" on="0"/>
        <pt x="311" y="486" on="0"/>
        <pt x="326" y="464" on="0"/>
        <pt x="326" y="436" on="0"/>
        <pt x="312" y="429" on="1"/>
        <pt x="79" y="311" on="1"/>
        <pt x="63" y="303" on="0"/>
        <pt x="49" y="303" on="0"/>
        <pt x="34" y="325" on="0"/>
        <pt x="34" y="353" on="0"/>
        <pt x="48" y="360" on="1"/>
      </contour>
    </TTGlyph>
    <TTGlyph name="eth" xMin="53" yMin="-14" xMax="530" yMax="858">
      <contour>
        <pt x="178" y="791" on="1"/>
        <pt x="156" y="791" on="0"/>
        <pt x="116" y="776" on="0"/>
        <pt x="95" y="776" on="0"/>
        <pt x="80" y="795" on="0"/>
        <pt x="80" y="810" on="1"/>
        <pt x="80" y="835" on="0"/>
        <pt x="147" y="858" on="0"/>
        <pt x="181" y="858" on="1"/>
        <pt x="305" y="858" on="0"/>
        <pt x="396" y="739" on="1"/>
        <pt x="485" y="784" on="1"/>
        <pt x="501" y="792" on="0"/>
        <pt x="515" y="792" on="0"/>
        <pt x="530" y="770" on="0"/>
        <pt x="530" y="742" on="0"/>
        <pt x="516" y="735" on="1"/>
        <pt x="428" y="690" on="1"/>
        <pt x="513" y="543" on="0"/>
        <pt x="513" y="348" on="1"/>
        <pt x="513" y="198" on="0"/>
        <pt x="452" y="96" on="1"/>
        <pt x="421" y="45" on="0"/>
        <pt x="317" y="-14" on="0"/>
        <pt x="249" y="-14" on="1"/>
        <pt x="156" y="-14" on="0"/>
        <pt x="53" y="114" on="0"/>
        <pt x="53" y="207" on="1"/>
        <pt x="53" y="316" on="0"/>
        <pt x="114" y="407" on="1"/>
        <pt x="145" y="452" on="0"/>
        <pt x="250" y="507" on="0"/>
        <pt x="393" y="507" on="0"/>
        <pt x="435" y="460" on="1"/>
        <pt x="419" y="577" on="0"/>
        <pt x="367" y="660" on="1"/>
        <pt x="283" y="617" on="1"/>
        <pt x="267" y="609" on="0"/>
        <pt x="253" y="609" on="0"/>
        <pt x="238" y="631" on="0"/>
        <pt x="238" y="659" on="0"/>
        <pt x="252" y="666" on="1"/>
        <pt x="333" y="707" on="1"/>
        <pt x="261" y="791" on="0"/>
      </contour>
      <contour>
        <pt x="169" y="372" on="0"/>
        <pt x="133" y="271" on="0"/>
        <pt x="133" y="140" on="0"/>
        <pt x="195" y="48" on="0"/>
        <pt x="334" y="48" on="0"/>
        <pt x="436" y="182" on="0"/>
        <pt x="436" y="350" on="0"/>
        <pt x="372" y="445" on="0"/>
        <pt x="253" y="445" on="0"/>
      </contour>
    </TTGlyph>
    <TTGlyph name="exclam" xMin="59" yMin="-14" xMax="249" yMax="827">
      <contour>
        <pt x="165" y="209" on="1"/>
        <pt x="162" y="185" on="0"/>
        <pt x="103" y="185" on="0"/>
        <pt x="103" y="203" on="1"/>
        <pt x="103" y="213" on="0"/>
        <pt x="104" y="222" on="1"/>
        <pt x="160" y="788" on="1"/>
        <pt x="163" y="827" on="0"/>
        <pt x="249" y="827" on="0"/>
        <pt x="249" y="795" on="1"/>
        <pt x="249" y="787" on="0"/>
        <pt x="244" y="752" on="1"/>
      </contour>
      <contour>
        <pt x="161" y="48" on="1"/>
        <pt x="161" y="-14" on="0"/>
        <pt x="104" y="-14" on="1"/>
        <pt x="59" y="-14" on="0"/>
        <pt x="59" y="24" on="1"/>
        <pt x="59" y="85" on="0"/>
        <pt x="116" y="85" on="1"/>
        <pt x="161" y="85" on="0"/>
      </contour>
    </TTGlyph>
    <TTGlyph name="exclamdown" xMin="46" yMin="-351" xMax="236" yMax="490">
      <contour>
        <pt x="130" y="267" on="1"/>
        <pt x="133" y="291" on="0"/>
        <pt x="192" y="291" on="0"/>
        <pt x="192" y="273" on="1"/>
        <pt x="192" y="263" on="0"/>
        <pt x="191" y="254" on="1"/>
        <pt x="135" y="-312" on="1"/>
        <pt x="132" y="-351" on="0"/>
        <pt x="46" y="-351" on="0"/>
        <pt x="46" y="-319" on="1"/>
        <pt x="46" y="-311" on="0"/>
        <pt x="51" y="-276" on="1"/>
      </contour>
      <contour>
        <pt x="134" y="428" on="1"/>
        <pt x="134" y="490" on="0"/>
        <pt x="191" y="490" on="1"/>
        <pt x="236" y="490" on="0"/>
        <pt x="236" y="452" on="1"/>
        <pt x="236" y="391" on="0"/>
        <pt x="179" y="391" on="1"/>
        <pt x="134" y="391" on="0"/>
      </contour>
    </TTGlyph>
</ttFont>
